<svg width="75" height="75" fill="none" xmlns="http://www.w3.org/2000/svg"><path d="M66.72 45.474a10.64 10.64 0 00-10.626-10.627H18.907a5.32 5.32 0 01-5.313-5.313v-8.348a10.613 10.613 0 007.592-7.59h32.63a10.625 10.625 0 100-5.312h-32.63A10.604 10.604 0 108.282 21.188v8.343A10.64 10.64 0 0018.909 40.16h37.185a5.321 5.321 0 015.313 5.315v7.966h-7.97v7.97h-32.25a10.625 10.625 0 100 5.312h32.252v7.968h21.25V53.44H66.72v-7.966zM64.062 5.628a5.313 5.313 0 110 10.625 5.313 5.313 0 010-10.625zM5.625 10.94a5.313 5.313 0 1110.625 0 5.313 5.313 0 01-10.625 0zm5.313 58.438a5.313 5.313 0 110-10.626 5.313 5.313 0 010 10.626zm58.437-10.625v10.625H58.75V58.753h10.625z" fill="#545A2F"/></svg>