<svg width="55" height="55" fill="none" xmlns="http://www.w3.org/2000/svg"><path d="M44.922 11.77a1.014 1.014 0 01-.512-.53 18.341 18.341 0 00-33.82 0 1.015 1.015 0 01-.512.53A17.377 17.377 0 000 27.452c-.025 9.335 7.542 17.122 16.868 17.358a17.234 17.234 0 009.613-2.624v11.796a1.019 1.019 0 002.037 0V42.186a17.193 17.193 0 009.614 2.623C47.46 44.573 55.026 36.786 55 27.451a17.379 17.379 0 00-10.078-15.68zM38.08 42.774a15.143 15.143 0 01-8.875-2.567 3.085 3.085 0 00-.688-.343V28.13l11.66-5.83a1.019 1.019 0 10-.912-1.822L28.52 25.852v-8.537a1.019 1.019 0 00-2.038 0v14.648l-10.748-5.374a1.019 1.019 0 00-.911 1.822l11.66 5.83v5.622c-.243.085-.474.2-.688.344a15.121 15.121 0 01-8.875 2.566c-8.228-.208-14.904-7.08-14.882-15.316A15.334 15.334 0 0110.93 13.62a3.047 3.047 0 001.538-1.59 16.303 16.303 0 0130.064 0 3.046 3.046 0 001.538 1.59 15.334 15.334 0 018.893 13.837c.023 8.237-6.653 15.108-14.882 15.316z" fill="#545A2F"/></svg>