<svg width="28" height="28" viewBox="0 0 28 28" fill="none" xmlns="http://www.w3.org/2000/svg">
<path d="M15.499 13.9923L26.755 2.72528C26.9535 2.52572 27.0649 2.2556 27.0647 1.97407C27.0646 1.69255 26.9528 1.42258 26.754 1.22328C26.356 0.827281 25.655 0.825281 25.253 1.22528L19.6265 6.85878L14 12.4923L2.74296 1.22228C2.34296 0.827281 1.64196 0.829281 1.24396 1.22428C1.14517 1.32267 1.06697 1.43976 1.01392 1.5687C0.960864 1.69764 0.934023 1.83586 0.93496 1.97528C0.93496 2.25928 1.04496 2.52528 1.24396 2.72228L12.5 13.9913L1.24496 25.2613C1.04635 25.4611 0.935119 25.7316 0.935682 26.0134C0.936244 26.2952 1.04855 26.5652 1.24796 26.7643C1.44096 26.9553 1.71396 27.0653 1.99596 27.0653H2.00196C2.28496 27.0643 2.55796 26.9533 2.74696 26.7603L14 15.4933L25.257 26.7633C25.456 26.9613 25.722 27.0713 26.004 27.0713C26.1434 27.0717 26.2816 27.0445 26.4105 26.9913C26.5394 26.9381 26.6565 26.86 26.7551 26.7614C26.8537 26.6628 26.9318 26.5457 26.985 26.4168C27.0382 26.2879 27.0654 26.1497 27.065 26.0103C27.065 25.7273 26.955 25.4603 26.755 25.2633L15.499 13.9923Z" fill="#63533E"/>
</svg>
