<svg width="207" height="110" viewBox="0 0 207 110" fill="none" xmlns="http://www.w3.org/2000/svg">
<path fill-rule="evenodd" clip-rule="evenodd" d="M67.7456 15.5089C99.6789 3.43786 124.131 11.2488 141.137 21.9659L140.682 22.5829C123.847 11.9726 99.6784 4.24436 68.0506 16.1999L67.7456 15.5089Z" fill="white"/>
<path fill-rule="evenodd" clip-rule="evenodd" d="M80.8716 11.1354C80.8242 11.2152 80.7531 11.2621 80.6934 11.2871L80.3755 10.6615C80.3185 10.6853 80.2492 10.7308 80.2029 10.8086C80.1574 10.8853 80.1539 10.96 80.1609 11.0112C80.1724 11.0946 80.2156 11.1487 80.2229 11.1579L80.2234 11.1586C80.2349 11.1731 80.245 11.1829 80.2495 11.1869C80.2487 11.1863 80.2477 11.1855 80.2465 11.1846C80.227 11.1693 80.1825 11.1385 80.1062 11.0915C79.9577 11.0001 79.7242 10.8689 79.4179 10.7114C78.8065 10.3971 77.9208 9.98622 76.8758 9.5885C74.7744 8.78874 72.081 8.0624 69.6884 8.2388L69.6268 7.55235C72.2027 7.36244 75.0325 8.14002 77.1699 8.95347C78.2442 9.36236 79.1568 9.78542 79.7926 10.1123C80.1099 10.2754 80.3622 10.4165 80.5331 10.5218C80.6164 10.5731 80.6899 10.6217 80.7432 10.6635C80.765 10.6806 80.8067 10.7141 80.8412 10.7578L80.8414 10.758C80.8537 10.7736 80.9023 10.8352 80.9148 10.926C80.9222 10.9799 80.9184 11.0569 80.8716 11.1354ZM80.252 11.1891C80.252 11.1891 80.2511 11.1884 80.2495 11.1869C80.2513 11.1884 80.2521 11.1891 80.252 11.1891Z" fill="white"/>
<path fill-rule="evenodd" clip-rule="evenodd" d="M69.232 6.72578C69.4593 6.99589 69.5889 7.23981 69.627 7.3387L69.2002 7.52635C69.1862 7.49011 69.0887 7.29309 68.8888 7.05545C68.6919 6.82143 68.4039 6.55793 68.014 6.37379C67.2489 6.01237 66.029 5.92896 64.2272 7.13921L63.9816 6.72171C65.8794 5.44695 67.2622 5.47944 68.2007 5.92275C68.6627 6.14097 69.0017 6.45203 69.232 6.72578Z" fill="white"/>
<path fill-rule="evenodd" clip-rule="evenodd" d="M68.268 14.8918C68.0232 15.0012 67.824 15.0453 67.7595 15.0527L67.7456 14.9608C67.7957 14.955 67.9832 14.9149 68.2196 14.8092C68.4551 14.704 68.7365 14.5347 68.9772 14.2723C69.4562 13.75 69.7833 12.8477 69.2375 11.3166L69.3388 11.2891C69.8924 12.8418 69.5663 13.7782 69.06 14.3303C68.808 14.6051 68.5137 14.7819 68.268 14.8918Z" fill="white"/>
<path fill-rule="evenodd" clip-rule="evenodd" d="M68.1447 16.1162C67.673 15.648 67.7413 15.1503 67.7601 15.0547L68.5588 15.1225C68.549 15.1724 68.504 15.5138 68.816 15.8234C69.1054 16.1107 69.7858 16.4496 71.4749 16.4022L71.5092 16.9316C69.6391 16.9842 68.6389 16.6067 68.1447 16.1162Z" fill="white"/>
<path fill-rule="evenodd" clip-rule="evenodd" d="M67.9911 14.88C67.9286 14.9828 67.8656 15.0426 67.762 15.0527L67.7456 14.9608C67.7775 14.9577 67.8155 14.9427 67.8767 14.842C67.9367 14.7434 68.0086 14.5804 68.1222 14.3155C68.1374 14.2802 68.1532 14.2431 68.1699 14.2042C68.4019 13.6617 68.7866 12.7624 69.5095 11.2891L69.6274 11.3207C68.9054 12.7922 68.5213 13.69 68.2894 14.2322C68.2728 14.2711 68.2569 14.3081 68.2418 14.3435C68.1292 14.6062 68.0548 14.7753 67.9911 14.88Z" fill="white"/>
<path fill-rule="evenodd" clip-rule="evenodd" d="M67.9856 15.4684C67.8927 15.415 67.7167 15.3023 67.7497 15.1208L68.4649 15.1862C68.4779 15.115 68.4318 15.0694 68.4177 15.0577C68.4216 15.0604 68.4287 15.0649 68.4399 15.0714C68.5054 15.109 68.6288 15.1663 68.8674 15.2738C68.8982 15.2876 68.9306 15.3022 68.9646 15.3175C69.4406 15.5316 70.2318 15.8875 71.5092 16.5166L71.0978 16.9365C69.8326 16.3134 69.0511 15.9619 68.5779 15.749C68.5439 15.7337 68.5115 15.7192 68.4807 15.7053C68.2576 15.6048 68.0913 15.5292 67.9856 15.4684ZM68.4137 15.0547C68.4138 15.0547 68.4153 15.0557 68.4177 15.0577C68.4147 15.0557 68.4135 15.0547 68.4137 15.0547Z" fill="white"/>
<path fill-rule="evenodd" clip-rule="evenodd" d="M69.4513 7.9026C69.5367 7.9224 69.598 7.98184 69.627 8.05198L69.2039 8.22539C69.2264 8.27992 69.277 8.33013 69.3476 8.34648C69.3993 8.35845 69.4369 8.34604 69.4421 8.34434L69.4423 8.34426C69.4448 8.34344 69.4462 8.34291 69.4463 8.34299C69.4464 8.34324 69.4345 8.34893 69.4052 8.36853C69.363 8.3968 69.3147 8.43259 69.254 8.47761C69.2071 8.51241 69.1527 8.55271 69.088 8.5993C68.8078 8.80088 68.401 9.06873 67.8971 9.23888C67.3903 9.41003 66.784 9.48273 66.1111 9.29258C65.4396 9.10282 64.7221 8.65702 63.9816 7.82598L64.3237 7.52344C65.0209 8.30577 65.6673 8.69343 66.236 8.85415C66.8034 9.01448 67.3137 8.95468 67.7502 8.80726C68.1897 8.65885 68.553 8.42206 68.82 8.22988C68.8697 8.19412 68.9192 8.15752 68.9659 8.12298C69.0368 8.07058 69.1012 8.02294 69.1501 7.99025C69.1889 7.96425 69.2434 7.92967 69.2996 7.91128C69.3267 7.90239 69.3839 7.88698 69.4513 7.9026Z" fill="white"/>
<path fill-rule="evenodd" clip-rule="evenodd" d="M68.2205 15.0199C68.2095 15.0391 68.1901 15.0501 68.1687 15.0527L68.1557 14.9614C68.1478 14.9624 68.1377 14.9675 68.1324 14.9767C68.1303 14.9805 68.13 14.983 68.13 14.983C68.1301 14.983 68.1302 14.9821 68.13 14.98C68.1293 14.969 68.124 14.9486 68.1117 14.9157C68.0976 14.8782 68.0777 14.8321 68.0538 14.7768C68.0363 14.7365 68.0167 14.6912 67.9958 14.6408C67.8982 14.4061 67.7789 14.0775 67.7514 13.7029C67.7239 13.3276 67.7885 12.9059 68.0584 12.4861C68.3282 12.0666 68.8007 11.6527 69.5825 11.2891L69.6274 11.3713C68.8583 11.729 68.402 12.132 68.1441 12.5331C67.8864 12.9339 67.8245 13.3363 67.8509 13.6967C67.8774 14.0576 67.9925 14.3761 68.0889 14.6079C68.1084 14.6547 68.1274 14.6988 68.1449 14.7392C68.1698 14.7968 68.1913 14.8466 68.2059 14.8857C68.2182 14.9185 68.228 14.9497 68.2296 14.9746C68.2304 14.9869 68.2297 15.0039 68.2205 15.0199Z" fill="white"/>
<path fill-rule="evenodd" clip-rule="evenodd" d="M67.852 15.4559C67.7728 15.4012 67.7342 15.3239 67.7486 15.2456L68.4193 15.3065C68.4321 15.2363 68.397 15.1658 68.3259 15.1167C68.2713 15.0789 68.2147 15.0672 68.2007 15.0643C68.183 15.0608 68.1709 15.06 68.1709 15.06C68.1709 15.06 68.1765 15.0604 68.1899 15.0605C68.2239 15.0609 68.2619 15.06 68.3135 15.0587C68.3537 15.0578 68.4022 15.0566 68.4634 15.0557C68.7157 15.0519 69.0822 15.0558 69.477 15.1288C69.8752 15.2023 70.3045 15.3464 70.6767 15.6218C71.0485 15.8969 71.3449 16.2893 71.5092 16.8386L70.8475 16.9365C70.7038 16.4565 70.4564 16.1491 70.1865 15.9495C69.917 15.7501 69.6067 15.6444 69.3052 15.5888C69.0005 15.5325 68.7074 15.5277 68.4779 15.5311C68.4416 15.5317 68.4025 15.5326 68.3638 15.5335C68.2947 15.535 68.2271 15.5366 68.1796 15.5361C68.1451 15.5357 68.0793 15.5346 68.0152 15.5217C67.984 15.5154 67.9147 15.4992 67.852 15.4559Z" fill="white"/>
<path fill-rule="evenodd" clip-rule="evenodd" d="M114.779 5.463C114.773 5.52592 114.762 5.59388 114.742 5.64545L114.097 5.4986C114.096 5.50011 114.096 5.49966 114.097 5.4969C114.099 5.48976 114.103 5.46714 114.108 5.42315C114.113 5.36908 114.117 5.29588 114.118 5.20596C114.118 5.02635 114.103 4.78645 114.059 4.50948C113.971 3.954 113.767 3.26153 113.346 2.61067C112.926 1.96136 112.294 1.36113 111.351 0.971006C110.41 0.581628 109.126 0.387724 107.367 0.594689L107.264 0.0900609C109.139 -0.130514 110.578 0.069382 111.674 0.522729C112.767 0.975327 113.485 1.66675 113.95 2.3856C114.415 3.1029 114.633 3.85511 114.727 4.44839C114.775 4.7458 114.791 5.00631 114.791 5.20658C114.791 5.30661 114.786 5.39321 114.779 5.463Z" fill="white"/>
<path fill-rule="evenodd" clip-rule="evenodd" d="M67.5632 17.0061C67.6396 17.016 67.7043 17.0267 67.7448 17.0379L67.6448 17.1753C67.6304 17.1713 67.5883 17.1632 67.5127 17.1534C67.4405 17.1441 67.3451 17.134 67.2298 17.1247C66.9993 17.106 66.6922 17.0904 66.3356 17.0883C65.6217 17.084 64.7151 17.1339 63.8297 17.3187C62.9452 17.5034 62.0857 17.8219 61.4571 18.3539C60.829 18.8855 60.4232 19.6372 60.4649 20.6975L60.2205 20.7011C60.1777 19.6147 60.5937 18.8288 61.2595 18.2653C61.9248 17.7022 62.8316 17.3681 63.7512 17.1761C64.6701 16.9843 65.6058 16.9334 66.338 16.9378C66.7045 16.9399 67.0214 16.956 67.2617 16.9754C67.3818 16.9851 67.4835 16.9958 67.5632 17.0061Z" fill="white"/>
<path fill-rule="evenodd" clip-rule="evenodd" d="M67.6802 14.8697C67.7011 14.8946 67.7332 14.9349 67.7448 14.975L67.2088 15.0386C67.2116 15.0481 67.2148 15.0537 67.2147 15.0537C67.2146 15.0537 67.211 15.0478 67.1997 15.0343C67.1833 15.0147 67.1573 14.9869 67.1208 14.9519C67.048 14.8821 66.9386 14.7889 66.7925 14.6833C66.5002 14.4721 66.0669 14.2153 65.4956 13.997C64.3617 13.5637 62.6688 13.275 60.408 13.814L60.2175 13.4874C62.6465 12.9083 64.5116 13.2149 65.7752 13.6978C66.4027 13.9375 66.8781 14.2191 67.2008 14.4523C67.3622 14.569 67.4869 14.6746 67.5743 14.7584C67.6178 14.8002 67.6535 14.8378 67.6802 14.8697Z" fill="white"/>
<path fill-rule="evenodd" clip-rule="evenodd" d="M69.4355 15.1024C69.4955 15.0788 69.549 15.0609 69.5868 15.0547L69.6264 15.1671C69.6152 15.1689 69.5808 15.1787 69.5203 15.2025C69.4629 15.225 69.3887 15.2575 69.3009 15.2999C69.1254 15.3847 68.8978 15.5083 68.6443 15.67C68.1373 15.9936 67.5288 16.4687 67.0268 17.09C66.0245 18.3305 65.4429 20.1578 66.9549 22.536L66.7992 22.582C65.265 20.1688 65.8522 18.304 66.8781 17.0343C67.3902 16.4005 68.0108 15.916 68.5283 15.5857C68.7871 15.4206 69.0206 15.2936 69.2027 15.2057C69.2937 15.1617 69.3724 15.1272 69.4355 15.1024Z" fill="white"/>
<path fill-rule="evenodd" clip-rule="evenodd" d="M82.1583 17.0551C82.158 17.0519 82.1579 17.0514 82.1584 17.0533L82.7829 16.9375C82.7968 16.9944 82.7996 17.0679 82.7994 17.1354C82.799 17.2104 82.7944 17.3032 82.7845 17.4099C82.7647 17.6235 82.7232 17.9003 82.6494 18.2143C82.5022 18.8408 82.2234 19.6285 81.7197 20.3629C81.2149 21.0989 80.4782 21.789 79.4156 22.1995C78.3512 22.6106 76.9927 22.7282 75.2721 22.3687L75.4211 21.8284C77.0338 22.1654 78.2448 22.0437 79.1566 21.6916C80.0701 21.3387 80.7163 20.7416 81.1715 20.078C81.6278 19.4129 81.8862 18.6888 82.0238 18.103C82.0925 17.8109 82.1303 17.5564 82.1481 17.3651C82.157 17.2694 82.1606 17.1912 82.1609 17.1334C82.1611 17.0871 82.1589 17.0629 82.1583 17.0551Z" fill="white"/>
<path fill-rule="evenodd" clip-rule="evenodd" d="M114.503 5.03994C114.691 5.20879 114.856 5.40526 114.765 5.64545L114.134 5.49433C114.13 5.50541 114.13 5.51417 114.131 5.51941C114.124 5.50612 114.098 5.46712 114.01 5.38866C113.844 5.23907 113.543 5.02042 113.029 4.65389C112.961 4.60548 112.89 4.55471 112.815 4.50143C111.769 3.75708 110.035 2.52232 107.264 0.376968L107.723 0C110.485 2.13781 112.211 3.36699 113.254 4.10971C113.329 4.16299 113.4 4.21377 113.468 4.2622C113.97 4.61979 114.306 4.86211 114.503 5.03994ZM114.133 5.52482C114.133 5.52471 114.132 5.5228 114.131 5.51941C114.133 5.52324 114.133 5.52493 114.133 5.52482Z" fill="white"/>
<path fill-rule="evenodd" clip-rule="evenodd" d="M67.17 17.0978C67.3941 16.9575 67.5694 16.8955 67.7448 16.9681L67.6442 17.1754C67.5984 17.1565 67.5269 17.1488 67.3082 17.2858C67.094 17.42 66.7809 17.6649 66.2756 18.0672C66.2083 18.1207 66.1377 18.177 66.0636 18.236C65.0302 19.0598 63.3172 20.4253 60.3704 22.583L60.2175 22.4049C63.1603 20.2502 64.8704 18.8871 65.9029 18.064C65.977 18.0049 66.0476 17.9487 66.1149 17.8951C66.6154 17.4966 66.9413 17.2411 67.17 17.0978Z" fill="white"/>
<path fill-rule="evenodd" clip-rule="evenodd" d="M127.627 18.8186C127.747 18.8279 127.871 18.8711 127.964 18.9929L127.587 19.3743C127.602 19.3944 127.616 19.3994 127.616 19.3994C127.616 19.3994 127.61 19.3972 127.593 19.3959C127.545 19.3922 127.459 19.3995 127.307 19.4325C127.008 19.498 126.53 19.6457 125.751 19.8927C125.647 19.9256 125.538 19.9601 125.424 19.9964C123.83 20.5023 121.188 21.3409 116.792 22.58L116.673 22.0179C121.062 20.7807 123.699 19.9438 125.291 19.4384C125.405 19.4021 125.514 19.3676 125.618 19.3347C126.388 19.0905 126.889 18.9348 127.214 18.8639C127.375 18.8288 127.513 18.8097 127.627 18.8186Z" fill="white"/>
<path fill-rule="evenodd" clip-rule="evenodd" d="M67.5579 16.27C67.6377 16.3499 67.7206 16.4745 67.7448 16.6639L67.1986 16.8112C67.2094 16.896 67.2438 16.9353 67.2438 16.9355C67.2437 16.9355 67.2434 16.9351 67.2426 16.9343C67.2285 16.9203 67.1886 16.889 67.0952 16.8397C66.9114 16.7425 66.6028 16.6163 66.0865 16.4104C66.0182 16.3831 65.9466 16.3546 65.8713 16.3247C64.8194 15.9058 63.0748 15.2112 60.2175 13.9435L60.3799 13.1719C63.2296 14.4362 64.9682 15.1285 66.0184 15.5466C66.0937 15.5766 66.1654 15.6051 66.2337 15.6324C66.7401 15.8344 67.075 15.9704 67.2852 16.0815C67.3888 16.1362 67.4835 16.1956 67.5579 16.27Z" fill="white"/>
<path fill-rule="evenodd" clip-rule="evenodd" d="M69.3255 15.1587C69.3909 15.1042 69.4695 15.0675 69.5738 15.0547L69.6264 15.1672C69.6004 15.1704 69.5646 15.1801 69.5176 15.2193C69.4692 15.2597 69.4172 15.3244 69.3566 15.426C69.2355 15.6287 69.0897 15.96 68.8618 16.4918C68.8314 16.5627 68.7996 16.6373 68.7661 16.7154C68.2996 17.8066 67.5265 19.6149 66.0816 22.582L65.8628 22.5539C67.3069 19.5884 68.0795 17.7814 68.5458 16.6906C68.5793 16.6124 68.6111 16.5379 68.6415 16.4669C68.8685 15.9372 69.0166 15.6003 69.1409 15.3922C69.2029 15.2884 69.2615 15.212 69.3255 15.1587Z" fill="white"/>
<path fill-rule="evenodd" clip-rule="evenodd" d="M82.1723 17.0287C82.1706 17.0347 82.1692 17.0452 82.1723 17.0591L82.7866 16.9375C82.8487 17.2081 82.6743 17.4118 82.4826 17.5822C82.2806 17.7618 81.9439 18.0018 81.4417 18.355C81.3736 18.4029 81.3022 18.4531 81.2273 18.5057C80.1825 19.2395 78.4535 20.4538 75.6714 22.583L75.2721 22.1325C78.0642 19.9957 79.8012 18.7757 80.8483 18.0403C80.9232 17.9877 80.9946 17.9375 81.0626 17.8897C81.5777 17.5275 81.879 17.3112 82.0484 17.1606C82.1363 17.0824 82.1646 17.0424 82.1723 17.0287ZM82.1746 17.0232C82.1749 17.0231 82.1744 17.0248 82.1723 17.0287C82.1732 17.0252 82.1743 17.0232 82.1746 17.0232Z" fill="white"/>
<path fill-rule="evenodd" clip-rule="evenodd" d="M111.633 1.50443C112.612 2.07559 113.383 3.0553 114.791 5.42937L114.182 5.64545C112.762 3.2506 112.052 2.39782 111.23 1.91815C110.818 1.67804 110.366 1.52395 109.729 1.32124C109.675 1.30387 109.619 1.28619 109.562 1.26812C108.958 1.07665 108.215 0.840958 107.264 0.460363L107.571 0C108.496 0.36979 109.215 0.597806 109.817 0.788928C109.874 0.806921 109.929 0.824587 109.984 0.842014C110.616 1.04322 111.144 1.21913 111.633 1.50443Z" fill="white"/>
<path fill-rule="evenodd" clip-rule="evenodd" d="M62.5458 18.3807C63.3274 17.8852 64.5751 17.5345 67.672 16.9375L67.7448 17.0835C64.6375 17.6824 63.4524 18.0242 62.7212 18.4877C62.3554 18.7195 62.0991 18.9845 61.7722 19.3395C61.7441 19.37 61.7155 19.4012 61.6863 19.433C61.3767 19.7703 60.9993 20.1815 60.4194 20.7011L60.2175 20.614C60.791 20.1001 61.1637 19.6941 61.4731 19.3571C61.5022 19.3253 61.5308 19.2941 61.559 19.2636C61.885 18.9095 62.1551 18.6283 62.5458 18.3807Z" fill="white"/>
<path fill-rule="evenodd" clip-rule="evenodd" d="M121.456 19.3388C122.773 18.8295 124.362 18.7222 127.964 18.8898L127.943 19.4717C124.334 19.3038 122.835 19.4203 121.618 19.8907C121.008 20.1267 120.461 20.4545 119.741 20.9014C119.679 20.9399 119.616 20.9792 119.552 21.0193C118.869 21.4441 118.037 21.9623 116.888 22.58L116.673 22.0526C117.808 21.4424 118.628 20.9314 119.31 20.507C119.375 20.467 119.438 20.4277 119.5 20.3892C120.217 19.9437 120.799 19.5927 121.456 19.3388Z" fill="white"/>
<path fill-rule="evenodd" clip-rule="evenodd" d="M79.1189 20.7551C79.9326 20.2946 80.6794 19.4242 82.2426 16.9375L82.7994 17.2171C81.2499 19.6819 80.4324 20.6873 79.4606 21.2373C78.9751 21.5121 78.464 21.6659 77.8541 21.8397C77.8013 21.8548 77.7475 21.8701 77.6928 21.8856C77.1113 22.0506 76.4179 22.2474 75.518 22.583L75.2721 22.0562C76.1987 21.7106 76.916 21.5071 77.4986 21.3418C77.5536 21.3262 77.6074 21.3109 77.6601 21.2959C78.2747 21.1207 78.7116 20.9856 79.1189 20.7551Z" fill="white"/>
<path fill-rule="evenodd" clip-rule="evenodd" d="M111.862 3.7863C112.826 4.06969 113.888 4.38176 114.791 5.32328L114.269 5.64545C113.492 4.83581 112.658 4.58924 111.731 4.31512C111.419 4.22284 111.097 4.12743 110.762 4.00637C110.109 3.77008 109.457 3.44149 108.854 2.84312C108.255 2.24898 107.719 1.40285 107.264 0.147639L107.896 0C108.336 1.21221 108.839 1.98807 109.366 2.51101C109.889 3.02974 110.448 3.31331 111.033 3.52478C111.296 3.62 111.575 3.70187 111.862 3.7863Z" fill="white"/>
<path fill-rule="evenodd" clip-rule="evenodd" d="M65.4765 19.2376C65.9391 18.4234 66.4184 17.5797 67.6204 16.9375L67.7448 17.1344C66.6102 17.7406 66.1724 18.5098 65.7159 19.3118C65.5679 19.5717 65.4181 19.835 65.2419 20.0973C64.8843 20.6297 64.4234 21.1418 63.6539 21.576C62.8866 22.0089 61.8195 22.3602 60.2554 22.583L60.2175 22.3579C61.7608 22.1381 62.7937 21.7941 63.5245 21.3819C64.2531 20.9708 64.6886 20.4878 65.0312 19.9776C65.1919 19.7383 65.3334 19.4894 65.4765 19.2376Z" fill="white"/>
<path fill-rule="evenodd" clip-rule="evenodd" d="M124.075 20.4188C125.145 19.7527 126.26 19.059 127.895 18.8164L127.964 19.3622C126.437 19.5889 125.432 20.2133 124.379 20.8678C124.036 21.0806 123.689 21.2965 123.316 21.503C121.797 22.3455 119.979 22.9423 116.673 22.3268L116.759 21.7839C119.955 22.3789 121.662 21.8016 123.084 21.0128C123.419 20.8267 123.745 20.6241 124.075 20.4188Z" fill="white"/>
<path fill-rule="evenodd" clip-rule="evenodd" d="M79.8435 18.1913C80.7343 17.9614 81.5341 17.7549 82.3349 16.9375L82.7994 17.329C81.8656 18.2821 80.8431 18.544 79.9161 18.7814C79.6402 18.8521 79.3727 18.9206 79.1186 19.0045C78.5537 19.191 78.0055 19.457 77.4689 19.979C76.9279 20.5054 76.3842 21.3063 75.8583 22.583L75.2721 22.3752C75.817 21.0524 76.3987 20.1767 77.0147 19.5774C77.6352 18.9737 78.2757 18.6649 78.9082 18.4561C79.2327 18.349 79.5433 18.2688 79.8435 18.1913Z" fill="white"/>
<path fill-rule="evenodd" clip-rule="evenodd" d="M114.697 5.25563C114.767 5.32104 114.818 5.42519 114.775 5.54157L114.163 5.38948C114.129 5.48198 114.172 5.56392 114.22 5.60841C114.243 5.63005 114.265 5.6409 114.273 5.64428C114.255 5.63796 114.205 5.62539 114.104 5.60878C113.971 5.58689 113.799 5.56537 113.588 5.53893C113.483 5.52582 113.368 5.5115 113.244 5.49533C112.513 5.40016 111.517 5.24895 110.55 4.9293C109.584 4.60976 108.622 4.11358 107.988 3.31528C107.35 2.51062 107.073 1.4334 107.404 0L108.032 0.0989189C107.727 1.42503 107.993 2.35679 108.524 3.02532C109.059 3.70021 109.89 4.14144 110.788 4.43826C111.685 4.73497 112.623 4.87907 113.344 4.97291C113.454 4.98727 113.561 5.00067 113.663 5.0134C113.885 5.04119 114.081 5.06576 114.229 5.09007C114.334 5.10734 114.444 5.12883 114.531 5.16018C114.571 5.17489 114.64 5.20315 114.697 5.25563ZM114.274 5.64451C114.277 5.64579 114.276 5.64582 114.273 5.64428L114.274 5.64451Z" fill="white"/>
<path fill-rule="evenodd" clip-rule="evenodd" d="M67.5824 16.9642C67.625 16.9389 67.6844 16.9265 67.7448 16.95L67.6437 17.1458C67.6763 17.1585 67.7078 17.1496 67.7222 17.1411C67.7249 17.1395 67.7262 17.1384 67.7263 17.1384C67.7263 17.1385 67.7223 17.1421 67.7149 17.1527C67.6929 17.1843 67.6654 17.2416 67.6314 17.3288C67.586 17.4452 67.5354 17.5979 67.4749 17.7807C67.4456 17.8692 67.414 17.9646 67.3795 18.0665C67.1698 18.6851 66.8618 19.5142 66.3601 20.292C65.8584 21.0697 65.158 21.8042 64.1589 22.2235C63.1566 22.6442 61.8709 22.7405 60.2175 22.269L60.2948 22.0652C61.8997 22.5229 63.1173 22.4224 64.0511 22.0305C64.9881 21.6372 65.6565 20.9433 66.1442 20.1873C66.6318 19.4314 66.9337 18.6213 67.1422 18.006C67.1751 17.9087 67.206 17.8156 67.2349 17.7282C67.2966 17.5419 67.3499 17.3813 67.3971 17.2601C67.4314 17.172 67.4661 17.0952 67.5031 17.0419C67.5211 17.0161 67.5465 16.9855 67.5824 16.9642Z" fill="white"/>
<path fill-rule="evenodd" clip-rule="evenodd" d="M127.516 19.4828C127.57 19.5087 127.638 19.5442 127.683 19.5848L127.964 19.8431L127.448 19.9328C127.408 19.9507 127.356 19.977 127.288 20.0132C127.159 20.0825 126.998 20.1755 126.803 20.2874C126.71 20.3408 126.61 20.3986 126.502 20.4601C125.842 20.8364 124.934 21.3352 123.902 21.7536C121.854 22.5837 119.212 23.1372 117.059 21.6577L116.673 21.3927L117.531 21.2435C119.67 19.3318 122.04 18.811 123.95 18.8164C124.965 18.8193 125.847 18.9707 126.491 19.136C126.813 19.2187 127.079 19.3054 127.274 19.38C127.371 19.4171 127.453 19.4521 127.516 19.4828ZM117.808 21.6088C119.634 22.5919 121.81 22.1491 123.676 21.3927C124.652 20.9971 125.518 20.525 126.169 20.1552L117.808 21.6088ZM126.755 19.6398L118.411 21.0905C120.303 19.6193 122.314 19.2159 123.948 19.2205C124.904 19.2233 125.734 19.3659 126.339 19.5211C126.493 19.5607 126.633 19.601 126.755 19.6398Z" fill="white"/>
<path fill-rule="evenodd" clip-rule="evenodd" d="M67.5594 16.1207C67.5967 16.1405 67.7173 16.2161 67.7448 16.414L67.2174 16.545C67.2419 16.7215 67.3484 16.7802 67.3611 16.787C67.3769 16.7954 67.3875 16.7976 67.3876 16.7975C67.3876 16.7975 67.3857 16.797 67.3814 16.7965C67.3571 16.7932 67.309 16.7926 67.2282 16.7975C67.1206 16.8041 66.9836 16.8184 66.8168 16.8357C66.7367 16.8441 66.6497 16.8532 66.5559 16.8625C65.9877 16.9186 65.2103 16.9772 64.3922 16.8942C62.7759 16.7303 60.8786 15.9967 60.2175 13.4031L60.7253 13.1719C61.2748 15.3275 62.8586 16.0196 64.4328 16.1792C65.2098 16.258 65.9549 16.2028 66.5163 16.1474C66.6022 16.1389 66.6849 16.1302 66.7632 16.1221C66.9361 16.1041 67.0873 16.0883 67.2037 16.0812C67.2871 16.0761 67.3685 16.0742 67.4343 16.0829C67.4652 16.087 67.5122 16.0956 67.5594 16.1207Z" fill="white"/>
<path fill-rule="evenodd" clip-rule="evenodd" d="M68.8244 15.1167C68.834 15.0974 68.8593 15.064 68.9231 15.0547L68.9673 15.1666C68.998 15.1621 69.0067 15.1486 69.0066 15.1485C69.0066 15.1485 69.0063 15.149 69.0058 15.15C69.0033 15.155 69.0002 15.1668 69.0001 15.1885C68.9998 15.2309 69.0105 15.2944 69.0307 15.3791C69.058 15.4932 69.1009 15.6392 69.1517 15.8124C69.1761 15.8955 69.2023 15.9849 69.2296 16.08C69.3968 16.6642 69.5986 17.4551 69.6238 18.291C69.6741 19.9586 69.021 21.8324 65.9331 22.582L65.8628 22.4751C68.8329 21.7541 69.4844 19.9509 69.4344 18.2931C69.4094 17.4663 69.2098 16.6825 69.0429 16.0997C69.0162 16.0063 68.9902 15.9179 68.9659 15.8352C68.9147 15.6607 68.8709 15.5116 68.8433 15.3957C68.8229 15.3105 68.8103 15.2397 68.8106 15.1881C68.8108 15.1628 68.8139 15.1378 68.8244 15.1167Z" fill="white"/>
<path fill-rule="evenodd" clip-rule="evenodd" d="M82.2656 16.974C82.2149 17.0198 82.1661 17.1076 82.1896 17.2129L82.7916 17.0904C82.821 17.2223 82.763 17.3338 82.689 17.4007C82.6297 17.4544 82.5616 17.4804 82.5218 17.4935C82.4368 17.5215 82.3306 17.5368 82.23 17.5478C82.0882 17.5634 81.9008 17.5757 81.689 17.5896C81.5919 17.5959 81.4898 17.6026 81.3846 17.6101C80.6969 17.6591 79.7999 17.7468 78.9272 18.0035C78.0542 18.2603 77.2308 18.6791 76.6643 19.3734C76.1032 20.0612 75.7651 21.0548 75.9289 22.5205L75.3169 22.583C75.1396 20.9965 75.5013 19.8424 76.1788 19.012C76.8509 18.1882 77.805 17.7184 78.746 17.4415C79.6874 17.1646 80.6412 17.0734 81.3388 17.0237C81.4575 17.0153 81.5668 17.0081 81.6668 17.0016C81.8684 16.9884 82.0323 16.9777 82.1596 16.9637C82.2562 16.9531 82.3038 16.9431 82.3207 16.9377C82.3129 16.9409 82.2906 16.9513 82.2656 16.974ZM82.3215 16.9375C82.3212 16.9376 82.321 16.9377 82.3207 16.9377L82.3215 16.9375Z" fill="white"/>
<path fill-rule="evenodd" clip-rule="evenodd" d="M92.1036 0.958012C93.5271 1.9427 94.0299 3.36583 94.09 3.65546L93.5799 3.76364C93.5409 3.57567 93.0983 2.28463 91.8093 1.39303C90.5414 0.516 88.397 -0.0129523 84.873 1.40017L84.6809 0.910229C88.324 -0.55065 90.659 -0.0412283 92.1036 0.958012Z" fill="white"/>
<path fill-rule="evenodd" clip-rule="evenodd" d="M93.5509 2.97515C93.8085 3.09834 94.0342 3.26324 94.09 3.61543L93.5785 3.75742C93.5788 3.75831 93.5794 3.76043 93.5805 3.76274C93.582 3.76573 93.5805 3.76121 93.57 3.75007C93.5449 3.72358 93.4899 3.68165 93.3734 3.62589C93.1398 3.51421 92.7513 3.38796 92.0997 3.18487C92.0134 3.15797 91.9228 3.12982 91.8277 3.10028C90.5004 2.68783 88.2992 2.00381 84.6809 0.666414L84.8215 0C88.4294 1.33356 90.6225 2.01506 91.9474 2.42677C92.0425 2.45631 92.1331 2.48447 92.2194 2.51138C92.8581 2.71042 93.2821 2.84658 93.5509 2.97515Z" fill="white"/>
<path fill-rule="evenodd" clip-rule="evenodd" d="M89.4836 3.89029C90.0176 3.42044 90.7845 2.77099 91.9524 1.87891L92.2083 2.71854C91.0512 3.60246 90.2944 4.2436 89.7697 4.70517C89.605 4.85014 89.4601 4.98023 89.3312 5.09599C89.059 5.34035 88.858 5.52084 88.6912 5.64254L88.4447 4.79582C88.5886 4.69085 88.756 4.5405 89.0085 4.31367C89.1406 4.19497 89.296 4.05533 89.4836 3.89029Z" fill="white"/>
<path fill-rule="evenodd" clip-rule="evenodd" d="M87.5815 2.85596C88.1105 2.62543 88.8706 2.30844 90.0313 1.87891L90.3255 2.33928C89.1791 2.76354 88.4324 3.0751 87.9159 3.30019C87.7568 3.36951 87.6157 3.43247 87.4892 3.4889C87.2175 3.61007 87.0133 3.70118 86.8435 3.76072L86.5619 3.29578C86.7011 3.24698 86.8607 3.17571 87.1063 3.06608C87.2371 3.00771 87.3922 2.93847 87.5815 2.85596Z" fill="white"/>
<path fill-rule="evenodd" clip-rule="evenodd" d="M87.0432 2.78835C87.3012 2.56825 87.6723 2.26969 88.2429 1.87891L88.4437 2.43729C87.8864 2.81904 87.5275 3.10811 87.2807 3.31859C87.1981 3.38912 87.1296 3.44938 87.0683 3.50331C87.0364 3.53139 87.0065 3.55776 86.9775 3.58297C86.897 3.65298 86.8225 3.71523 86.751 3.76072L86.5619 3.19458C86.6038 3.16794 86.6559 3.12574 86.7367 3.05552C86.7619 3.03359 86.79 3.00885 86.8209 2.98167C86.8838 2.9263 86.9582 2.86082 87.0432 2.78835Z" fill="white"/>
<path fill-rule="evenodd" clip-rule="evenodd" d="M93.9183 3.36466C94.013 3.42374 94.0713 3.54071 94.09 3.66761L93.5867 3.81811C93.5992 3.90348 93.642 3.99272 93.7122 4.03648C93.7397 4.0536 93.7629 4.05815 93.776 4.05943C93.7892 4.06071 93.7977 4.05918 93.7993 4.05887C93.7995 4.05883 93.7996 4.05881 93.7996 4.05881C93.7996 4.05887 93.7912 4.06104 93.7714 4.07064C93.7506 4.08072 93.7236 4.0958 93.6893 4.11697C93.605 4.16889 93.5048 4.23895 93.3817 4.32501C93.2893 4.38965 93.1839 4.4633 93.0627 4.54508C92.5188 4.91208 91.7454 5.37775 90.842 5.56346C89.935 5.74989 88.8953 5.65443 87.8259 4.89871C86.7578 4.14398 85.6813 2.74578 84.6809 0.378434L85.1214 0C86.0839 2.2776 87.0938 3.56302 88.0542 4.24171C89.0133 4.91941 89.9442 5.00716 90.7686 4.83771C91.5965 4.66754 92.3152 4.23823 92.8428 3.88228C92.9451 3.81323 93.0443 3.744 93.1365 3.6797C93.2723 3.58493 93.3928 3.50087 93.4853 3.44388C93.5608 3.39734 93.6496 3.34771 93.7307 3.33216C93.7702 3.32459 93.8426 3.31746 93.9183 3.36466Z" fill="white"/>
<path fill-rule="evenodd" clip-rule="evenodd" d="M107.241 9.21213C107.201 9.31001 107.114 9.37666 107.024 9.41108L106.685 8.80387C106.597 8.83721 106.512 8.90223 106.473 8.99793C106.439 9.08072 106.454 9.15074 106.464 9.18372C106.482 9.24281 106.517 9.28047 106.52 9.28433L106.52 9.28461C106.527 9.29226 106.532 9.29649 106.532 9.2965C106.532 9.2965 106.528 9.29288 106.518 9.28497C106.483 9.25757 106.417 9.21131 106.317 9.14589C106.121 9.01716 105.819 8.83276 105.43 8.60972C104.655 8.16423 103.548 7.57213 102.276 6.97329C99.7141 5.76652 96.5549 4.56787 94.09 4.43261L94.1438 3.76562C96.8096 3.9119 100.11 5.18302 102.679 6.39285C103.973 7.0023 105.1 7.6052 105.894 8.06124C106.29 8.28897 106.607 8.48196 106.821 8.62223C106.927 8.69132 107.015 8.75246 107.077 8.80099C107.104 8.82252 107.144 8.85467 107.176 8.8911L107.176 8.89142C107.188 8.90437 107.229 8.95106 107.25 9.01812C107.261 9.05439 107.276 9.12715 107.241 9.21213Z" fill="white"/>
<path fill-rule="evenodd" clip-rule="evenodd" d="M107.241 9.21213C107.201 9.31001 107.114 9.37666 107.024 9.41108L106.685 8.80387C106.597 8.83721 106.512 8.90223 106.473 8.99793C106.439 9.08072 106.454 9.15074 106.464 9.18372C106.482 9.24281 106.517 9.28047 106.52 9.28433L106.52 9.28461C106.527 9.29226 106.532 9.29649 106.532 9.2965C106.532 9.2965 106.528 9.29288 106.518 9.28497C106.483 9.25757 106.417 9.21131 106.317 9.14589C106.121 9.01716 105.819 8.83276 105.43 8.60972C104.655 8.16423 103.548 7.57213 102.276 6.97329C99.7141 5.76652 96.5549 4.56787 94.09 4.43261L94.1438 3.76562C96.8096 3.9119 100.11 5.18302 102.679 6.39285C103.973 7.0023 105.1 7.6052 105.894 8.06124C106.29 8.28897 106.607 8.48196 106.821 8.62223C106.927 8.69132 107.015 8.75246 107.077 8.80099C107.104 8.82252 107.144 8.85467 107.176 8.8911L107.176 8.89142C107.188 8.90437 107.229 8.95106 107.25 9.01812C107.261 9.05439 107.276 9.12715 107.241 9.21213Z" fill="white"/>
<path fill-rule="evenodd" clip-rule="evenodd" d="M122.308 12.8954C122.283 13.0212 122.209 13.1209 122.113 13.1718L121.826 12.4541C121.735 12.5024 121.664 12.5981 121.64 12.7181C121.62 12.8137 121.639 12.8888 121.646 12.9155C121.655 12.9479 121.665 12.9697 121.669 12.9775C121.674 12.9869 121.677 12.9922 121.677 12.9923C121.678 12.9928 121.677 12.991 121.674 12.9867C121.671 12.9825 121.666 12.9768 121.661 12.9695C121.649 12.9546 121.634 12.9356 121.613 12.912C121.531 12.8157 121.396 12.6716 121.211 12.4824C120.843 12.1063 120.3 11.5745 119.639 10.935C119.201 10.5105 118.711 10.0391 118.188 9.53593C117.139 8.52655 115.958 7.38931 114.79 6.24655L115.235 5.64453C116.4 6.78537 117.577 7.91816 118.625 8.9263C119.148 9.43026 119.64 9.90306 120.081 10.3302C120.741 10.9694 121.291 11.5075 121.667 11.8916C121.854 12.0826 122.003 12.2414 122.103 12.3578C122.15 12.4133 122.198 12.4727 122.233 12.5278C122.246 12.5493 122.28 12.6038 122.3 12.6761C122.31 12.7116 122.329 12.7941 122.308 12.8954Z" fill="white"/>
<path fill-rule="evenodd" clip-rule="evenodd" d="M102.323 16.921C101.957 17.0008 101.675 16.7508 101.618 16.6821L101.744 16.3993C101.744 16.3993 101.745 16.4007 101.748 16.4036C101.75 16.4063 101.754 16.4098 101.758 16.4141C101.767 16.4226 101.78 16.4333 101.795 16.4451C101.825 16.4689 101.866 16.4967 101.916 16.5212C102.015 16.5704 102.147 16.6056 102.295 16.5732C102.585 16.51 102.97 16.1816 103.31 15.0547L103.5 15.2111C103.137 16.4152 102.7 16.8389 102.323 16.921Z" fill="white"/>
<path fill-rule="evenodd" clip-rule="evenodd" d="M101.965 17.1285C102.099 17.031 102.241 16.964 102.315 16.9375L102.736 17.17C102.737 17.1698 102.736 17.1699 102.735 17.1704C102.73 17.1726 102.708 17.1818 102.674 17.1995C102.636 17.2199 102.587 17.2486 102.537 17.2847C102.437 17.357 102.338 17.4565 102.303 17.5773C102.236 17.8089 102.395 18.1625 103.5 18.5951L103.057 18.8193C101.828 18.3383 101.535 17.8924 101.637 17.5392C101.687 17.3677 101.827 17.2284 101.965 17.1285Z" fill="white"/>
<path fill-rule="evenodd" clip-rule="evenodd" d="M108.89 20.7074C109.011 20.7005 109.1 20.7026 109.144 20.7089L109.125 20.7832C109.095 20.7789 109.016 20.7761 108.898 20.7828C108.781 20.7896 108.629 20.8054 108.455 20.8368C108.106 20.8997 107.667 21.0247 107.235 21.2625C106.372 21.7369 105.526 22.6656 105.482 24.4668L105.381 24.4654C105.425 22.6451 106.282 21.6924 107.175 21.2016C107.62 20.9568 108.072 20.8281 108.431 20.7633C108.611 20.7309 108.768 20.7144 108.89 20.7074Z" fill="white"/>
<path fill-rule="evenodd" clip-rule="evenodd" d="M101.822 16.8936C101.768 16.9315 101.689 16.9722 101.618 16.8823L101.747 16.5794C101.729 16.5567 101.713 16.561 101.713 16.5611C101.713 16.5612 101.72 16.5594 101.741 16.5454C101.785 16.5143 101.856 16.4496 101.98 16.3326C101.996 16.3173 102.013 16.3012 102.031 16.2843C102.282 16.048 102.698 15.6558 103.404 15.0547L103.5 15.3915C102.798 15.9892 102.385 16.3785 102.136 16.6139C102.118 16.6308 102.101 16.647 102.084 16.6623C101.965 16.7746 101.881 16.8524 101.822 16.8936Z" fill="white"/>
<path fill-rule="evenodd" clip-rule="evenodd" d="M101.629 17.1654C101.61 17.1118 101.59 17.0083 101.833 16.9375L102.376 17.1807C102.468 17.1539 102.482 17.121 102.484 17.112C102.484 17.1146 102.485 17.1192 102.487 17.1264C102.501 17.1648 102.543 17.2305 102.627 17.3548C102.638 17.3709 102.65 17.3877 102.662 17.4054C102.831 17.6536 103.113 18.0661 103.5 18.7574L102.652 18.8193C102.268 18.1344 101.99 17.7267 101.821 17.4799C101.809 17.4622 101.798 17.4454 101.787 17.4293C101.708 17.3127 101.65 17.2261 101.629 17.1654ZM102.484 17.1096C102.484 17.1097 102.484 17.1105 102.484 17.112C102.483 17.1103 102.484 17.1096 102.484 17.1096Z" fill="white"/>
<path fill-rule="evenodd" clip-rule="evenodd" d="M108.835 20.8338C108.95 20.7348 109.04 20.6905 109.144 20.7062L109.125 20.7854C109.079 20.7784 109.024 20.7909 108.91 20.8883C108.798 20.9844 108.642 21.1502 108.394 21.4189C108.361 21.4548 108.326 21.4925 108.29 21.5321C107.782 22.0832 106.94 22.9964 105.461 24.4668L105.381 24.4168C106.858 22.9478 107.699 22.0356 108.207 21.4849C108.243 21.4453 108.278 21.4075 108.311 21.3716C108.558 21.1045 108.717 20.9342 108.835 20.8338Z" fill="white"/>
<path fill-rule="evenodd" clip-rule="evenodd" d="M101.731 16.9271C101.691 16.9474 101.652 16.9333 101.623 16.9002L101.753 16.6229C101.729 16.5957 101.695 16.583 101.662 16.6005C101.637 16.6135 101.624 16.6376 101.621 16.6417L101.621 16.6418C101.619 16.6454 101.618 16.6477 101.618 16.6477C101.618 16.6476 101.62 16.642 101.625 16.6267C101.633 16.6 101.641 16.5685 101.651 16.5281C101.659 16.4962 101.669 16.4588 101.681 16.4139C101.732 16.2248 101.811 15.9606 101.941 15.7157C102.073 15.4691 102.257 15.2413 102.516 15.1285C102.774 15.016 103.096 15.0221 103.5 15.2164L103.436 15.5453C103.062 15.3654 102.783 15.3689 102.574 15.4599C102.366 15.5507 102.218 15.7326 102.109 15.9364C102 16.1421 101.931 16.3692 101.883 16.5471C101.875 16.5791 101.866 16.6123 101.858 16.6439C101.845 16.693 101.833 16.7385 101.824 16.7706C101.817 16.7957 101.805 16.8341 101.788 16.865C101.78 16.8798 101.761 16.9111 101.731 16.9271Z" fill="white"/>
<path fill-rule="evenodd" clip-rule="evenodd" d="M101.619 17.0713C101.612 17.0156 101.665 16.9675 101.743 16.9375L102.142 17.1742C102.211 17.1477 102.26 17.1037 102.254 17.0531C102.249 17.0147 102.214 16.9899 102.206 16.9842C102.195 16.9766 102.185 16.9722 102.185 16.9722C102.185 16.9722 102.189 16.974 102.199 16.9779C102.223 16.9876 102.251 16.9975 102.288 17.0108C102.32 17.0221 102.358 17.0357 102.407 17.0537C102.598 17.1239 102.867 17.2315 103.09 17.3821C103.315 17.5345 103.494 17.7317 103.5 17.9776C103.506 18.2227 103.34 18.502 102.927 18.8193L102.387 18.6587C102.752 18.3783 102.868 18.1553 102.864 17.9812C102.859 17.8081 102.736 17.6696 102.57 17.5576C102.402 17.4438 102.191 17.3581 102.018 17.2944C101.99 17.284 101.959 17.2727 101.928 17.2616C101.876 17.2432 101.826 17.2253 101.793 17.2122C101.769 17.2025 101.72 17.1828 101.683 17.1573C101.665 17.1451 101.624 17.1146 101.619 17.0713Z" fill="white"/>
<path fill-rule="evenodd" clip-rule="evenodd" d="M108.996 20.7205C109.016 20.7052 109.043 20.7007 109.068 20.7043L109.048 20.7832C109.053 20.784 109.064 20.7829 109.072 20.777C109.074 20.7754 109.075 20.7744 109.075 20.7744C109.075 20.7744 109.074 20.7759 109.073 20.7801C109.068 20.7949 109.067 20.8219 109.071 20.8637C109.074 20.9109 109.082 20.9699 109.092 21.04C109.099 21.0929 109.108 21.1522 109.115 21.2177C109.151 21.5184 109.176 21.9324 109.051 22.3665C108.926 22.8012 108.649 23.2565 108.083 23.6384C107.517 24.02 106.666 24.3256 105.396 24.4668L105.381 24.3873C106.635 24.2479 107.466 23.9472 108.012 23.5785C108.558 23.2101 108.825 22.7711 108.947 22.3495C109.069 21.9273 109.045 21.5228 109.009 21.2249C109.002 21.1627 108.994 21.1045 108.986 21.0515C108.976 20.9792 108.968 20.9168 108.964 20.8683C108.961 20.8267 108.961 20.7897 108.968 20.7629C108.972 20.7497 108.98 20.7332 108.996 20.7205Z" fill="white"/>
<path fill-rule="evenodd" clip-rule="evenodd" d="M101.523 16.6505C101.556 16.6843 101.595 16.7261 101.617 16.7647L101.018 16.9326C101.019 16.9351 101.02 16.9365 101.02 16.9365C101.02 16.9366 101.012 16.9262 100.988 16.9023C100.961 16.8749 100.922 16.8381 100.87 16.7938C100.767 16.7053 100.621 16.591 100.437 16.4669C100.067 16.2178 99.5569 15.9367 98.9541 15.7423C98.3532 15.5485 97.6706 15.4439 96.9426 15.5341C96.2165 15.6241 95.4093 15.9123 94.5683 16.5481L94.0902 16.247C95.0071 15.5539 95.9355 15.2052 96.8282 15.0945C97.7189 14.9842 98.5383 15.1152 99.2281 15.3377C99.9159 15.5595 100.485 15.8751 100.889 16.1475C101.092 16.2841 101.256 16.4118 101.375 16.5144C101.435 16.5656 101.484 16.6117 101.523 16.6505Z" fill="white"/>
<path fill-rule="evenodd" clip-rule="evenodd" d="M101.496 16.7992C101.485 16.8343 101.465 16.8901 101.433 16.9345L100.982 16.6647C100.974 16.6757 100.97 16.683 100.97 16.683C100.97 16.6829 100.973 16.6756 100.979 16.6575C100.988 16.6307 100.999 16.591 101.011 16.5388C101.034 16.4349 101.057 16.2891 101.069 16.1114C101.094 15.7558 101.074 15.2803 100.928 14.7625C100.638 13.7366 99.8473 12.5245 97.8542 11.7409L98.068 11.2891C100.224 12.1369 101.122 13.4765 101.45 14.6398C101.613 15.2165 101.635 15.7449 101.608 16.1423C101.594 16.3411 101.568 16.509 101.54 16.636C101.526 16.6993 101.511 16.7544 101.496 16.7992Z" fill="white"/>
<path fill-rule="evenodd" clip-rule="evenodd" d="M101.531 17.0074C101.556 17.0166 101.591 17.0312 101.618 17.0553L101.479 17.4151C101.483 17.419 101.486 17.4209 101.486 17.421C101.486 17.4211 101.48 17.4177 101.465 17.4121C101.445 17.4046 101.416 17.3959 101.379 17.3876C101.304 17.3709 101.2 17.3565 101.075 17.3544C100.824 17.3502 100.491 17.3954 100.132 17.5654C99.42 17.9027 98.5956 18.7359 98.1127 20.7011L97.8542 20.5561C98.3688 18.4621 99.2617 17.5411 100.05 17.1678C100.441 16.9824 100.804 16.9332 101.078 16.9378C101.215 16.9401 101.331 16.9558 101.419 16.9754C101.463 16.9852 101.5 16.9962 101.531 17.0074Z" fill="white"/>
<path fill-rule="evenodd" clip-rule="evenodd" d="M101.045 15.8539C101.255 15.9101 101.51 16.0245 101.617 16.4408L101.001 16.8356C101.017 16.8997 101.043 16.9277 101.051 16.9347C101.043 16.9289 101.011 16.9101 100.933 16.8893C100.755 16.8417 100.459 16.8122 99.9437 16.7695C99.8759 16.7638 99.8047 16.758 99.7299 16.7519C98.687 16.6665 96.9562 16.5247 94.0902 16.1004L94.1524 15.0547C97.0047 15.477 98.7249 15.6179 99.7648 15.7031C99.8396 15.7092 99.9108 15.715 99.9786 15.7207C100.477 15.762 100.82 15.7936 101.045 15.8539ZM101.054 16.9365C101.054 16.9365 101.053 16.936 101.051 16.9347L101.054 16.9365Z" fill="white"/>
<path fill-rule="evenodd" clip-rule="evenodd" d="M101.607 16.6504C101.626 16.7318 101.626 16.8366 101.557 16.9345L101.107 16.6596C101.072 16.7086 101.08 16.7519 101.079 16.752C101.079 16.752 101.079 16.7518 101.079 16.7516C101.077 16.7407 101.066 16.7072 101.027 16.6342C100.951 16.4908 100.808 16.2644 100.565 15.8858C100.532 15.8356 100.498 15.7829 100.463 15.7275C99.9672 14.9571 99.1453 13.6794 97.8542 11.534L98.3247 11.2891C99.6121 13.4282 100.431 14.7011 100.926 15.4702C100.961 15.5256 100.995 15.5783 101.027 15.6285C101.266 15.9992 101.423 16.2465 101.511 16.4126C101.554 16.4944 101.591 16.5747 101.607 16.6504Z" fill="white"/>
<path fill-rule="evenodd" clip-rule="evenodd" d="M101.445 16.9512C101.496 16.9316 101.558 16.927 101.618 16.9785L101.477 17.3357C101.499 17.355 101.518 17.3506 101.518 17.3507C101.518 17.3507 101.517 17.3509 101.516 17.3514C101.504 17.356 101.478 17.371 101.428 17.4121C101.33 17.4932 101.177 17.6429 100.924 17.8938C100.89 17.9271 100.855 17.962 100.818 17.9987C100.301 18.5108 99.4446 19.3599 98.0034 20.7011L97.8542 20.3511C99.2921 19.013 100.146 18.1665 100.662 17.6552C100.699 17.6185 100.734 17.5835 100.768 17.5502C101.017 17.3035 101.181 17.1422 101.292 17.051C101.346 17.0059 101.398 16.9695 101.445 16.9512Z" fill="white"/>
<path fill-rule="evenodd" clip-rule="evenodd" d="M97.3721 15.056C98.3114 15.0299 99.3704 15.3789 101.617 16.3909L101.315 16.9365C99.0411 15.9125 98.1339 15.6451 97.393 15.6657C97.022 15.676 96.6765 15.759 96.1838 15.8899C96.1416 15.9011 96.0985 15.9126 96.0545 15.9244C95.5882 16.0488 95.0111 16.2029 94.2247 16.3466L94.0902 15.7488C94.8464 15.6106 95.3981 15.4634 95.8632 15.3393C95.907 15.3276 95.95 15.3161 95.9924 15.3049C96.4801 15.1753 96.9031 15.0691 97.3721 15.056Z" fill="white"/>
<path fill-rule="evenodd" clip-rule="evenodd" d="M98.9346 15.9485C99.6694 15.6989 100.507 15.4143 101.617 15.6844L101.459 16.3399C100.554 16.1198 99.9501 16.3233 99.2523 16.5584C99.0121 16.6393 98.7608 16.7239 98.4823 16.7963C97.9508 16.9344 97.361 17.0037 96.6391 16.8464C95.9239 16.6905 95.1012 16.3171 94.0902 15.6073L94.4754 15.0547C95.4397 15.7317 96.1803 16.0562 96.7817 16.1873C97.3764 16.3169 97.8567 16.2622 98.3139 16.1434C98.5148 16.0911 98.7203 16.0213 98.9346 15.9485Z" fill="white"/>
<path fill-rule="evenodd" clip-rule="evenodd" d="M101.347 15.7409C101.448 15.7654 101.563 15.8612 101.617 16.0579L101.021 16.4148C101.067 16.5809 101.166 16.659 101.242 16.6775C101.273 16.685 101.296 16.6826 101.308 16.6807C101.32 16.6787 101.328 16.6757 101.329 16.6752C101.329 16.6751 101.329 16.6751 101.329 16.6753C101.328 16.676 101.32 16.68 101.303 16.6908C101.284 16.7032 101.259 16.7208 101.228 16.7447C101.141 16.812 101.032 16.9055 100.896 17.0219C100.828 17.0806 100.753 17.145 100.67 17.2149C100.193 17.6188 99.5258 18.1519 98.7781 18.4892C98.0308 18.8263 97.177 18.9799 96.34 18.5797C95.4943 18.1753 94.7133 17.2284 94.0902 15.5006L94.6581 15.0547C95.2187 16.6094 95.8809 17.3623 96.5383 17.6767C97.2045 17.9952 97.9139 17.8864 98.5901 17.5814C99.266 17.2765 99.8823 16.7878 100.35 16.3916C100.421 16.332 100.489 16.2732 100.555 16.2169C100.7 16.0924 100.83 15.9807 100.931 15.9031C101.001 15.8486 101.084 15.7896 101.161 15.7588C101.197 15.7446 101.267 15.7214 101.347 15.7409Z" fill="white"/>
<path fill-rule="evenodd" clip-rule="evenodd" d="M101.587 16.6612C101.605 16.6966 101.653 16.8143 101.574 16.9345L101.156 16.6588C101.085 16.7674 101.132 16.8694 101.14 16.885C101.148 16.9024 101.156 16.912 101.156 16.912C101.157 16.912 101.156 16.9111 101.154 16.9091C101.142 16.896 101.113 16.8701 101.06 16.8275C100.99 16.7715 100.898 16.7031 100.787 16.6196C100.732 16.5784 100.672 16.5336 100.607 16.4848C100.223 16.1951 99.7046 15.7891 99.2232 15.2931C98.2733 14.3143 97.3877 12.8964 98.1315 11.2891L98.5848 11.5013C97.9823 12.8033 98.6607 13.9935 99.581 14.9417C100.035 15.4093 100.528 15.7966 100.907 16.0824C100.966 16.1266 101.022 16.1689 101.076 16.2091C101.192 16.2961 101.295 16.3726 101.371 16.4338C101.426 16.4778 101.48 16.5233 101.519 16.5657C101.538 16.5854 101.566 16.6185 101.587 16.6612Z" fill="white"/>
<path fill-rule="evenodd" clip-rule="evenodd" d="M101.462 16.9677C101.482 16.9516 101.548 16.9094 101.618 16.9663L101.476 17.3032C101.538 17.3534 101.592 17.3133 101.6 17.3077C101.607 17.3019 101.611 17.2969 101.611 17.2968C101.611 17.2968 101.61 17.298 101.608 17.3009C101.598 17.3161 101.579 17.3475 101.552 17.4012C101.515 17.4724 101.47 17.5654 101.416 17.6781C101.39 17.7333 101.361 17.7932 101.33 17.8575C101.143 18.2429 100.881 18.7622 100.556 19.2498C99.9129 20.2146 98.9755 21.1213 97.8542 20.4936L97.9597 20.1318C98.9061 20.6617 99.7222 19.9256 100.349 18.9851C100.659 18.5201 100.911 18.0211 101.096 17.6399C101.125 17.5805 101.152 17.5233 101.178 17.4692C101.234 17.3527 101.283 17.251 101.323 17.1745C101.351 17.1194 101.379 17.0675 101.406 17.0299C101.418 17.0124 101.437 16.9869 101.462 16.9677Z" fill="white"/>
<path fill-rule="evenodd" clip-rule="evenodd" d="M122.169 13.783L122.159 13.7871L121.818 13.194L121.809 13.1974C121.804 13.1993 121.789 13.2056 121.78 13.2102C121.75 13.2261 121.582 13.4815 121.706 13.7243C121.859 13.7991 122.061 13.8113 122.085 13.8073C122.094 13.8055 122.107 13.8025 122.111 13.8015L122.119 13.7993L122.122 13.7986L122.118 13.7999L122.103 13.8043L121.984 13.841C121.874 13.8746 121.707 13.9256 121.489 13.9907C121.055 14.1208 120.42 14.307 119.641 14.5234C118.082 14.956 115.941 15.5102 113.662 15.9781C111.386 16.4453 108.955 16.8298 106.822 16.9169C104.717 17.0029 102.786 16.8057 101.618 16.0104L102.146 15.5129C103.055 16.1322 104.698 16.3499 106.781 16.2648C108.835 16.1808 111.206 15.8081 113.46 15.3455C115.71 14.8836 117.829 14.3354 119.374 13.9064C120.146 13.692 120.775 13.5076 121.204 13.379C121.419 13.3148 121.584 13.2644 121.692 13.2311L121.813 13.194L121.846 13.1842L121.856 13.1813L121.867 13.1786C121.871 13.1775 121.885 13.1744 121.894 13.1726C121.918 13.1685 122.12 13.1806 122.273 13.2555C122.397 13.4983 122.23 13.7538 122.199 13.7698C122.189 13.7745 122.174 13.7809 122.169 13.783Z" fill="white"/>
<path fill-rule="evenodd" clip-rule="evenodd" d="M122.143 13.8834L122.143 13.8835L121.825 13.207L121.825 13.2072C121.823 13.2083 121.809 13.2143 121.793 13.2238C121.782 13.2304 121.75 13.2529 121.73 13.2697C121.68 13.3235 121.61 13.5901 121.693 13.7803C121.792 13.8641 121.954 13.9152 121.994 13.9164C122.011 13.9157 122.038 13.9129 122.048 13.9115C122.063 13.909 122.074 13.9062 122.077 13.9056L122.077 13.9055C122.083 13.904 122.087 13.9028 122.087 13.9028C122.087 13.9027 122.086 13.9032 122.082 13.9044C122.069 13.9085 122.044 13.9165 122.007 13.929C121.934 13.9536 121.82 13.9928 121.671 14.0456C121.372 14.151 120.934 14.3098 120.4 14.5125C119.33 14.9182 117.878 15.4987 116.387 16.1795C114.894 16.8613 113.373 17.6389 112.161 18.4375C111.555 18.8368 111.034 19.2358 110.635 19.6247C110.232 20.0171 109.975 20.3785 109.862 20.6991L109.145 20.4555C109.312 19.9824 109.659 19.5263 110.101 19.0961C110.546 18.6624 111.109 18.2339 111.738 17.8191C112.998 16.9895 114.559 16.1931 116.067 15.5042C117.578 14.8144 119.046 14.2274 120.126 13.8178C120.666 13.613 121.11 13.4522 121.414 13.3448C121.566 13.2912 121.683 13.2506 121.761 13.2245C121.8 13.2116 121.83 13.2015 121.851 13.195L121.851 13.1949C121.858 13.1926 121.875 13.1876 121.89 13.1836L121.89 13.1836C121.894 13.1827 121.907 13.1796 121.923 13.1769C121.933 13.1755 121.96 13.1727 121.978 13.1719C122.018 13.1731 122.18 13.2243 122.279 13.3081C122.362 13.4984 122.291 13.765 122.242 13.8189C122.222 13.8359 122.19 13.8585 122.178 13.8653C122.161 13.8752 122.147 13.8818 122.143 13.8834Z" fill="white"/>
<path fill-rule="evenodd" clip-rule="evenodd" d="M95.7439 10.1736L95.7439 10.1736L95.4136 9.44422L95.4135 9.44427C95.4122 9.44486 95.4057 9.44789 95.3974 9.45229C95.3922 9.45516 95.3769 9.46402 95.3672 9.47014C95.3436 9.48682 95.2317 9.62016 95.1887 9.76009C95.2684 10.0534 95.5817 10.2092 95.6357 10.2053C95.6522 10.2026 95.6765 10.1972 95.6842 10.1952C95.6957 10.192 95.7043 10.189 95.7051 10.1887C95.7081 10.1877 95.7101 10.187 95.7101 10.187C95.7101 10.187 95.7083 10.1876 95.704 10.1893C95.6908 10.1944 95.6667 10.204 95.6314 10.2184C95.5614 10.2469 95.4522 10.2922 95.3087 10.3532C95.0219 10.4752 94.5998 10.6593 94.0832 10.8969C93.0495 11.3721 91.641 12.0594 90.1833 12.8875C88.7237 13.7167 87.2252 14.6811 86.006 15.709C84.7763 16.7459 83.8792 17.8074 83.55 18.8192L82.8002 18.5671C83.201 17.335 84.2415 16.1537 85.5018 15.091C86.7728 14.0195 88.3171 13.0279 89.798 12.1866C91.2808 11.3443 92.7104 10.6468 93.7577 10.1653C94.2817 9.9244 94.7107 9.73716 95.0039 9.61247C95.1505 9.55015 95.2635 9.5033 95.3377 9.47307C95.3745 9.45808 95.403 9.4467 95.4217 9.43943C95.4288 9.43667 95.4412 9.43184 95.4525 9.42797C95.4546 9.42724 95.4643 9.42391 95.4764 9.42054C95.4844 9.41841 95.5089 9.41299 95.5257 9.41023C95.5798 9.4063 95.8932 9.56213 95.9729 9.85548C95.9299 9.99546 95.8179 10.1289 95.7941 10.1457C95.7842 10.1519 95.7687 10.1609 95.7631 10.164C95.7539 10.1689 95.7462 10.1725 95.7439 10.1736Z" fill="white"/>
<path fill-rule="evenodd" clip-rule="evenodd" d="M137.293 20.4988C137.233 20.6195 137.159 20.6758 137.126 20.6982L136.781 19.6116C136.754 19.6302 136.684 19.6822 136.626 19.7982C136.554 19.942 136.53 20.1277 136.564 20.3026C136.592 20.4438 136.647 20.5291 136.67 20.561C136.696 20.5988 136.72 20.6213 136.731 20.6309C136.749 20.6475 136.762 20.6551 136.762 20.6551C136.762 20.6551 136.755 20.6508 136.738 20.6429C136.675 20.6147 136.556 20.5723 136.373 20.5222C136.013 20.4233 135.447 20.3052 134.689 20.2076C133.175 20.0126 130.909 19.9011 128.018 20.1813L127.963 18.9877C130.897 18.7035 133.205 18.8156 134.762 19.0161C135.539 19.1163 136.133 19.2389 136.526 19.3468C136.72 19.4 136.876 19.4524 136.983 19.501C137.027 19.5208 137.1 19.5559 137.163 19.6131C137.182 19.6298 137.212 19.659 137.243 19.703C137.27 19.7412 137.328 19.8324 137.357 19.9791C137.392 20.1595 137.367 20.3503 137.293 20.4988Z" fill="white"/>
<path fill-rule="evenodd" clip-rule="evenodd" d="M11.2905 38.3784C11.2905 37.9729 11.4157 37.5292 11.6655 37.048C11.9158 36.5662 12.2284 36.0975 12.6033 35.6413C12.9783 35.185 13.3785 34.8051 13.8034 34.5013C14.2288 34.197 14.6414 34.0451 15.0416 34.0451C15.5916 34.0451 16.1541 34.3238 16.7294 34.8812C17.3041 35.4388 17.7919 35.92 18.192 36.3255C18.9924 37.1873 19.7048 38.0866 20.33 39.0247C20.9552 39.962 21.5676 40.9376 22.1682 41.9513C25.0184 46.7664 27.3814 51.7966 29.2571 57.0423C31.1325 62.2881 32.6451 67.6482 33.7957 73.1221C34.1954 71.7534 34.733 70.4355 35.4083 69.1687C36.0835 67.9013 36.7711 66.6346 37.4715 65.3672C38.7715 62.9343 40.0844 60.5396 41.4096 58.1828C42.7347 55.8262 44.0728 53.4564 45.4232 51.0747C46.9236 48.4388 48.4487 45.7402 49.9988 42.9779C51.5496 40.2158 53.1499 37.5672 54.8001 35.0331C54.95 34.7799 55.1379 34.4883 55.363 34.1588C55.588 33.8295 55.8378 33.5001 56.1129 33.1707C56.388 32.8409 56.6629 32.5622 56.938 32.3341C57.213 32.1065 57.5009 31.9922 57.8007 31.9922C58.3507 31.9922 58.8761 32.2077 59.3761 32.6383C59.8763 33.069 60.126 33.5633 60.126 34.1208C60.126 34.3744 60.0391 34.615 59.8639 34.8431C59.6888 35.0713 59.526 35.2869 59.3761 35.4894C57.9259 37.3142 56.6382 39.2527 55.5129 41.3051C54.3876 43.358 53.2498 45.3979 52.0996 47.4252C49.9489 51.1759 47.8485 54.9393 45.7981 58.7152C43.7479 62.4912 41.7222 66.2796 39.7218 70.081C39.3216 70.8411 38.8714 71.6772 38.3713 72.5897C37.8712 73.502 37.3711 74.4395 36.8711 75.4026C36.3709 76.3655 35.9083 77.316 35.4835 78.2535C35.0581 79.1915 34.7459 80.0402 34.5456 80.8007C34.3458 81.4594 34.2083 82.0801 34.1331 82.6631C34.0578 83.2461 33.9203 83.7399 33.7205 84.1454C33.5206 84.551 33.208 84.8804 32.7826 85.134C32.3577 85.3872 31.6949 85.5141 30.795 85.5141C30.1946 85.5141 29.7444 85.3622 29.4447 85.0579C29.1443 84.7541 28.9193 84.3736 28.7694 83.9174C28.6196 83.4611 28.532 82.9799 28.5068 82.4731C28.4821 81.9662 28.4193 81.5101 28.3193 81.1045C27.419 75.4281 25.9563 69.7261 23.9306 63.9992C21.9055 58.2716 19.6171 52.8233 17.0667 47.6532C16.4667 46.4877 15.8414 45.2966 15.1915 44.0804C14.5415 42.8636 13.791 41.7488 12.9408 40.7352C12.6909 40.482 12.3531 40.1145 11.9282 39.6327C11.5032 39.1514 11.2905 38.7333 11.2905 38.3784ZM193.827 68.9852C193.827 67.8597 193.359 67.2968 192.424 67.2968C191.781 67.2968 191.284 67.5484 190.933 68.0522C190.582 68.5556 190.261 69.0443 189.969 69.5186C189.442 70.3478 188.653 71.4442 187.601 72.8067C186.549 74.1693 185.409 75.4873 184.182 76.7611C182.954 78.0349 181.697 79.1453 180.411 80.0933C179.125 81.0413 177.956 81.5151 176.904 81.5151C176.202 81.5151 175.661 81.1451 175.281 80.4047C174.901 79.6637 174.624 78.8049 174.448 77.8274C174.273 76.8498 174.171 75.8873 174.141 74.9393C174.112 73.9913 174.097 73.2805 174.097 72.8067C174.097 71.2662 174.2 69.6224 174.405 67.8743C174.609 66.1267 174.945 64.4829 175.413 62.9424C175.647 62.2906 175.968 61.4319 176.377 60.3656C176.786 59.2988 176.991 58.44 176.991 57.7884C176.991 57.1957 176.772 56.8108 176.333 56.6333C175.895 56.4553 175.442 56.3666 174.974 56.3666C174.156 56.3666 173.528 56.6478 173.089 57.2108C172.65 57.7733 172.285 58.3809 171.993 59.0326C171.701 59.6246 171.277 60.5285 170.722 61.7427C170.166 62.9575 169.508 64.2753 168.749 65.6971C167.989 67.1193 167.185 68.5856 166.337 70.0961C165.49 71.607 164.628 72.9696 163.751 74.1838C162.873 75.3986 162.026 76.4057 161.207 77.2053C160.389 78.0054 159.659 78.4049 159.016 78.4049C158.489 78.4049 158.168 78.1382 158.051 77.6054C157.934 77.0719 157.875 76.6277 157.875 76.2723C157.875 72.8954 158.548 69.7406 159.892 66.8079C161.237 63.8758 163.049 61.2243 165.329 58.8547C166.615 57.492 167.974 56.2924 169.406 55.2557C170.838 54.2189 172.344 53.2263 173.922 52.2789C174.156 52.16 174.361 52.0266 174.536 51.8789C174.711 51.7304 174.799 51.5083 174.799 51.2121C174.799 50.5603 174.477 49.9388 173.834 49.3462C173.192 48.7536 172.549 48.4573 171.905 48.4573C169.333 48.4573 166.863 49.3462 164.496 51.1234C162.128 52.9005 160.024 55.1078 158.183 57.7437C156.341 60.3801 154.865 63.1794 153.754 66.1417C153.668 66.3713 153.585 66.5995 153.506 66.825C153.224 67.2617 152.983 67.6562 152.785 68.0077C152.317 68.9557 151.645 70.1106 150.768 71.4732C149.892 72.8357 148.898 74.1542 147.787 75.4276C146.676 76.7015 145.522 77.7973 144.324 78.7158C143.125 79.6342 141.941 80.0933 140.772 80.0933C140.07 80.0933 139.53 79.9153 139.15 79.56C138.77 79.2045 138.492 78.7603 138.317 78.2269C138.141 77.6941 138.039 77.116 138.01 76.4939C137.981 75.8722 137.966 75.2942 137.966 74.7613C137.966 72.6878 138.025 70.6145 138.141 68.5405C138.258 66.4671 138.317 64.3936 138.317 62.3202C138.317 61.6685 138.288 60.8688 138.229 59.921C138.171 58.973 138.01 58.025 137.747 57.077C137.484 56.129 137.089 55.3293 136.563 54.6777C136.037 54.026 135.336 53.7001 134.459 53.7001C133.348 53.7001 132.048 54.3519 130.557 55.6552C129.066 56.9587 127.59 58.4691 126.128 60.1876C124.667 61.9057 123.308 63.6532 122.051 65.4304C120.794 67.2075 119.844 68.5701 119.201 69.5181C119.435 67.8001 119.728 66.082 120.078 64.3641C120.429 62.6461 120.926 60.9576 121.569 59.2988C122.095 57.8771 122.606 56.322 123.104 54.6336C123.6 52.9452 123.849 51.3304 123.849 49.7904C123.849 48.8424 123.659 48.102 123.279 47.5685C122.899 47.0351 122.212 46.7689 121.218 46.7689C120.107 46.7689 119.04 47.2131 118.017 48.102C116.994 48.9903 116.366 49.9678 116.132 51.0341C115.84 52.3967 115.577 53.7894 115.343 55.211C115.109 56.6328 114.846 58.025 114.554 59.3875C114.116 61.5181 113.675 63.6923 113.23 65.9116C113.18 65.9698 113.131 66.0314 113.083 66.0971C112.674 66.6596 112.323 67.1483 112.031 67.5635C111.504 68.3926 110.657 69.5036 109.487 70.8958C108.319 72.2878 107.033 73.6505 105.63 74.9834C104.227 76.3164 102.823 77.472 101.421 78.4496C100.018 79.4266 98.7899 79.8857 97.7378 79.8266C98.4392 78.8194 98.9507 77.7237 99.2722 76.5385C99.5937 75.3539 99.7545 74.1688 99.7545 72.9842C99.7545 71.0882 99.4621 69.2223 98.8774 67.3855C98.2932 65.5492 97.5622 63.757 96.6856 62.0095C95.8086 60.2614 94.9023 58.5288 93.9674 56.8108C93.032 55.0927 92.2134 53.3747 91.512 51.6562C92.0383 50.2936 92.5057 48.8574 92.9149 47.3464C93.3244 45.836 93.5287 44.34 93.5287 42.8587C93.5287 42.3849 93.4852 41.8811 93.3971 41.3482C93.3096 40.8148 93.1637 40.2965 92.9588 39.7931C92.754 39.2893 92.4621 38.8747 92.0818 38.5488C91.7019 38.223 91.2488 38.0601 90.7229 38.0601C89.6708 38.0601 88.7354 38.445 87.9168 39.2151C87.0985 39.9856 86.4264 40.9035 85.9 41.9704C85.3742 43.0367 84.965 44.1621 84.6727 45.3473C84.3804 46.5318 84.234 47.5685 84.234 48.4573C84.234 50.057 84.4971 51.6266 85.0235 53.1673C82.8642 61.1251 78.1377 67.6026 73.4687 73.5175C72.2998 74.9984 71.0136 76.317 69.6103 77.472C68.2074 78.627 66.6878 79.575 65.0509 80.3154C63.4141 81.0564 61.66 81.4264 59.7897 81.4264C57.7438 81.4264 56.2821 80.8488 55.4055 79.6938C54.5285 78.5237 54.0903 76.9385 54.0903 74.9242C54.0903 73.7989 54.2362 72.5401 54.5285 71.1775C55.873 70.7032 57.3342 69.8148 58.9127 68.5115C60.4911 67.1935 61.9672 65.6975 63.3409 64.0091C64.7146 62.3057 65.8548 60.5581 66.7605 58.7509C67.6667 56.9442 68.1198 55.2852 68.1198 53.8043C68.1198 52.2638 67.6959 50.9755 66.8486 49.9684C66.0007 48.9612 64.7878 48.4573 63.2093 48.4573C60.8711 48.4573 58.7227 49.3757 56.7643 51.2126C54.806 53.049 53.1256 55.2852 51.7227 57.9216C50.3194 60.5581 49.2381 63.2978 48.4783 66.1417C47.7185 68.9852 47.3381 71.4145 47.3381 73.4288C47.3381 75.028 47.5137 76.5536 47.8644 78.0054C48.2151 79.4566 48.785 80.7305 49.5744 81.8264C50.3635 82.9222 51.3721 83.8111 52.5993 84.4923C53.827 85.1737 55.3174 85.5141 57.0716 85.5141C59.4682 85.5141 61.7773 85.1145 63.9988 84.2999C66.2198 83.4853 68.295 82.3894 70.2241 81.0117C72.1533 79.6342 73.9217 78.0199 75.5294 76.1836C79.5678 71.5685 83.1873 66.2772 85.5934 60.5872C86.2072 59.1359 86.7187 57.8179 87.1277 56.6328C87.8291 57.6991 88.5454 58.9584 89.276 60.4097C90.0066 61.861 90.6646 63.3569 91.2488 64.8975C91.8335 66.4375 92.3158 67.9781 92.6957 69.5181C93.0756 71.0586 93.2661 72.5099 93.2661 73.8726C93.2661 76.1239 92.6665 77.9752 91.4684 79.4266C90.2699 80.8784 88.5014 81.6038 86.1631 81.6038C84.9942 81.6038 83.9124 81.4855 82.9187 81.2484C81.9249 81.0117 80.9312 80.5671 79.9373 79.9153C79.6454 79.738 79.3966 79.5895 79.1924 79.4712C78.9876 79.3529 78.7101 79.2938 78.3594 79.2938C77.4239 79.2938 76.956 79.7379 76.956 80.6263C76.956 81.0413 77.0441 81.3968 77.2191 81.693C77.3947 81.9893 77.6282 82.2851 77.9206 82.5814C79.2067 83.8256 80.8292 84.6253 82.7871 84.9806C84.7455 85.3361 86.5722 85.5141 88.2674 85.5141C91.4244 85.5141 94.3033 85.1436 96.9048 84.4032C99.5062 83.6626 101.874 82.5814 104.007 81.1596C106.141 79.7379 108.114 77.9903 109.926 75.9163C110.519 75.2385 111.102 74.5323 111.675 73.7974C110.905 78.0405 110.52 82.1833 110.52 86.2249C110.52 86.8174 110.667 87.3359 110.959 87.78C111.251 88.2242 111.719 88.4467 112.362 88.4467C113.18 88.4467 113.896 88.1505 114.51 87.558C115.124 86.9653 115.606 86.3137 115.957 85.6028C116.951 83.3514 117.974 81.1446 119.026 78.9824C120.078 76.8198 121.248 74.7022 122.533 72.6288C123.586 70.9103 124.755 69.1035 126.041 67.2075C127.327 65.312 128.701 63.6532 130.162 62.2315C130.396 61.9944 130.717 61.6981 131.126 61.3426C131.536 60.9873 131.887 60.8093 132.179 60.8093C132.53 60.8093 132.749 61.0464 132.837 61.5206C132.924 61.9944 132.968 62.3498 132.968 62.5869C132.968 64.3049 132.91 65.9934 132.793 67.6522C132.676 69.311 132.617 70.9994 132.617 72.7175C132.617 73.843 132.661 75.0872 132.749 76.4498C132.837 77.8123 133.1 79.0862 133.538 80.2708C133.976 81.4559 134.619 82.448 135.467 83.2481C136.314 84.0477 137.498 84.4478 139.018 84.4478C140.655 84.4478 142.336 83.9143 144.061 82.848C145.785 81.7817 147.422 80.4784 148.971 78.9379C150.124 77.7913 151.18 76.5872 152.139 75.3253C152.175 75.8161 152.231 76.3395 152.307 76.8944C152.454 77.9607 152.717 78.9679 153.097 79.9159C153.477 80.8639 154.017 81.6634 154.719 82.3152C155.42 82.9669 156.297 83.2928 157.35 83.2928C158.518 83.2928 159.702 82.848 160.901 81.9597C162.099 81.0709 163.254 80.0046 164.364 78.7604C165.475 77.5166 166.483 76.2277 167.39 74.8947C168.295 73.5617 169.041 72.4512 169.626 71.5624C169.567 72.6287 169.596 73.9467 169.713 75.5169C169.83 77.087 170.122 78.5974 170.59 80.0492C171.058 81.5006 171.73 82.7448 172.607 83.7815C173.483 84.8182 174.653 85.3365 176.114 85.3365C177.634 85.3365 179.169 84.8919 180.718 84.0036C182.267 83.1148 183.728 82.0189 185.102 80.7154C186.476 79.4121 187.747 78.0199 188.916 76.539C190.085 75.0576 191.079 73.7542 191.898 72.6288C192.19 72.155 192.584 71.5625 193.082 70.8516C193.578 70.1407 193.827 69.5186 193.827 68.9852ZM62.771 52.5451C63.3558 52.5451 63.75 52.7677 63.9548 53.2118C64.1596 53.656 64.2614 54.1302 64.2614 54.604C64.2614 55.7891 63.9399 57.0329 63.2969 58.3067C62.6538 59.5951 61.8648 60.8394 60.9294 62.0685C59.994 63.2832 58.971 64.3942 57.8606 65.3717C56.75 66.3488 55.7271 67.1489 54.7917 67.7414C54.9084 66.9709 55.2299 65.7271 55.7563 64.0387C56.2821 62.3352 56.9252 60.6323 57.6854 58.9434C58.4452 57.2404 59.2634 55.7445 60.1405 54.4706C61.0175 53.1822 61.894 52.5451 62.771 52.5451Z" fill="white"/>
</svg>
