<svg width="35" height="17" fill="none" xmlns="http://www.w3.org/2000/svg"><path d="M1.62 9.182h31.76c.343 0 .62-.306.62-.682 0-.376-.277-.682-.62-.682H1.62c-.342 0-.62.306-.62.682 0 .376.278.682.62.682z" fill="#1A1A18"/><path d="M26.154 16a.312.312 0 00.214-.084l7.578-7.214a.283.283 0 00.088-.204.283.283 0 00-.088-.203l-7.578-7.21a.313.313 0 00-.427 0 .278.278 0 000 .406l7.363 7.007-7.364 7.01a.278.278 0 000 .407.31.31 0 00.214.085z" fill="#1A1A18"/><path d="M1.62 9.182h31.76c.343 0 .62-.306.62-.682 0-.376-.277-.682-.62-.682H1.62c-.342 0-.62.306-.62.682 0 .376.278.682.62.682z" stroke="#1A1A18" stroke-width=".682"/><path d="M26.154 16a.312.312 0 00.214-.084l7.578-7.214a.283.283 0 00.088-.204.283.283 0 00-.088-.203l-7.578-7.21a.313.313 0 00-.427 0 .278.278 0 000 .406l7.363 7.007-7.364 7.01a.278.278 0 000 .407.31.31 0 00.214.085z" stroke="#1A1A18" stroke-width=".682"/></svg>