<svg width="28" height="28" fill="none" xmlns="http://www.w3.org/2000/svg"><path d="M15.499 13.992L26.755 2.725a1.064 1.064 0 00-.001-1.502c-.398-.396-1.099-.398-1.501.002L19.626 6.86 14 12.492 2.743 1.222c-.4-.395-1.101-.393-1.499.002a1.05 1.05 0 00-.309.751c0 .284.11.55.309.747L12.5 13.992 1.245 25.261a1.064 1.064 0 00.003 1.502c.193.191.466.301.748.301h.006c.283 0 .556-.112.745-.305L14 15.493l11.257 11.27a1.054 1.054 0 001.153.228 1.058 1.058 0 00.345-1.728l-11.256-11.27z" fill="#63533E"/></svg>