<svg width="45" height="45" fill="none" xmlns="http://www.w3.org/2000/svg"><path fill-rule="evenodd" clip-rule="evenodd" d="M13.997 1.999c2.2-.102 2.9-.124 8.503-.124 5.602 0 6.304.024 8.501.124 2.198.1 3.698.45 5.01.958a10.146 10.146 0 013.653 2.381 10.074 10.074 0 012.377 3.65c.51 1.313.859 2.813.96 5.007.102 2.203.124 2.904.124 8.505 0 5.602-.024 6.304-.124 8.503-.1 2.194-.45 3.694-.96 5.006a10.118 10.118 0 01-2.377 3.655 10.113 10.113 0 01-3.653 2.377c-1.312.51-2.812.859-5.006.96-2.201.102-2.902.124-8.505.124-5.602 0-6.304-.024-8.503-.124-2.194-.1-3.694-.45-5.006-.96a10.119 10.119 0 01-3.655-2.377 10.109 10.109 0 01-2.38-3.653C2.45 34.7 2.1 33.2 2 31.005c-.102-2.203-.124-2.904-.124-8.505 0-5.602.024-6.304.124-8.501.1-2.198.45-3.698.958-5.01a10.117 10.117 0 012.381-3.653 10.11 10.11 0 013.65-2.38C10.302 2.45 11.802 2.1 13.996 2h.002zM30.834 5.71c-2.175-.1-2.827-.12-8.334-.12s-6.16.02-8.334.12c-2.012.092-3.104.428-3.831.71-.962.376-1.65.82-2.372 1.542a6.397 6.397 0 00-1.541 2.372c-.283.727-.619 1.819-.71 3.83-.1 2.176-.12 2.828-.12 8.335 0 5.507.02 6.16.12 8.334.091 2.012.427 3.104.71 3.831.33.894.857 1.706 1.541 2.372a6.403 6.403 0 002.372 1.541c.727.283 1.819.619 3.83.71 2.176.1 2.826.12 8.335.12s6.16-.02 8.334-.12c2.012-.091 3.104-.427 3.831-.71.962-.375 1.65-.82 2.372-1.541a6.403 6.403 0 001.541-2.372c.283-.727.619-1.819.71-3.83.1-2.176.12-2.828.12-8.335 0-5.507-.02-6.16-.12-8.334-.091-2.012-.427-3.104-.71-3.831-.375-.962-.82-1.65-1.541-2.372a6.4 6.4 0 00-2.372-1.541c-.727-.283-1.819-.619-3.83-.71zM19.866 28.858a6.88 6.88 0 007.5-11.224 6.88 6.88 0 00-11.671 3.857 6.88 6.88 0 004.17 7.367zm-4.862-13.854a10.6 10.6 0 1114.991 14.991 10.6 10.6 0 01-14.991-14.991zm20.448-1.527a2.507 2.507 0 10-3.44-3.647 2.507 2.507 0 003.44 3.647z" fill="#fff"/></svg>