<svg width="172" height="182" fill="none" xmlns="http://www.w3.org/2000/svg"><path fill-rule="evenodd" clip-rule="evenodd" d="M80.327 12.215c45.457 1.993 70.098 25.6 84.082 48.86l-1.004.604c-13.83-23.005-38.151-46.322-83.13-48.294l.052-1.17z" fill="#fff"/><path fill-rule="evenodd" clip-rule="evenodd" d="M99.247 15.059c.261 0-5.288-8.292-11.842-10.688L99.247 15.06z" fill="#fff"/><path fill-rule="evenodd" clip-rule="evenodd" d="M99.603 15.528a.594.594 0 01-.356.12v-1.172a.577.577 0 00-.55.402.546.546 0 00-.018.269v.001a.412.412 0 00.018.065l-.001-.003a2.42 2.42 0 00-.116-.207c-.129-.213-.34-.533-.627-.933a34.328 34.328 0 00-2.503-3.058c-2.153-2.35-5.102-4.939-8.246-6.088l.402-1.1c3.41 1.247 6.513 4.002 8.707 6.397a35.501 35.501 0 012.59 3.166c.3.415.53.762.68 1.011.073.122.137.235.179.328.017.037.05.113.067.201v.001a.594.594 0 01-.226.6zm-.904-.31l-.002-.005a.03.03 0 01.002.006z" fill="#fff"/><path fill-rule="evenodd" clip-rule="evenodd" d="M87.906 4.568c.018-.42-.449-4.934-7.105-4.067l7.105 4.067z" fill="#fff"/><path fill-rule="evenodd" clip-rule="evenodd" d="M88.112 3.518c.155.501.19.907.184 1.066l-.78-.032a2.997 2.997 0 00-.15-.803 3.94 3.94 0 00-.803-1.44c-.84-.952-2.48-1.843-5.712-1.421L80.75.114c3.423-.447 5.346.486 6.398 1.68a4.72 4.72 0 01.964 1.724zm-7.194 8.835c.278.087 3.394.578 3.998-4.048l-3.998 4.048z" fill="#fff"/><path fill-rule="evenodd" clip-rule="evenodd" d="M81.58 12.513a2.37 2.37 0 01-.692-.06l.06-.19c.056.017.291.063.623.05.33-.014.75-.087 1.18-.301.852-.427 1.767-1.427 2.065-3.715l.199.026c-.305 2.337-1.25 3.405-2.175 3.868a3.11 3.11 0 01-1.26.322zm.767.635c-.115.183-1.23 2.146 1.954 3.45l-1.954-3.45z" fill="#fff"/><path fill-rule="evenodd" clip-rule="evenodd" d="M81.752 14.505a2.354 2.354 0 01.307-1.536l.575.36a1.68 1.68 0 00-.212 1.072c.08.523.486 1.26 2.007 1.884l-.257.627c-1.662-.68-2.291-1.576-2.42-2.407zm6.154-9.938c.018-.42-1.047-.597-7.105-4.067l7.105 4.067z" fill="#fff"/><path fill-rule="evenodd" clip-rule="evenodd" d="M87.874 3.918c.2.136.436.334.422.664l-.78-.032a.154.154 0 00.026.097.64.64 0 00-.105-.082c-.17-.114-.466-.273-.985-.542l-.215-.112a140.213 140.213 0 01-5.63-3.074l.388-.677c2.819 1.615 4.553 2.514 5.601 3.058l.216.112c.502.26.847.443 1.062.588zm-.33.731l-.002-.002.002.002zm-6.626 7.704c.278.087.587-.597 3.998-4.048l-3.998 4.048z" fill="#fff"/><path fill-rule="evenodd" clip-rule="evenodd" d="M81.246 12.322c-.123.107-.233.17-.358.13l.06-.19c.014.004.047.013.167-.091a8.43 8.43 0 00.553-.579l.114-.125c.553-.608 1.47-1.617 3.063-3.229l.142.141a95.316 95.316 0 00-3.057 3.223l-.114.125a8.553 8.553 0 01-.57.595zm1.101.826c-.114.183.315.532 2.13 3.615l-2.13-3.615z" fill="#fff"/><path fill-rule="evenodd" clip-rule="evenodd" d="M82.071 13.507c-.056-.115-.145-.327-.013-.538l.575.36a.207.207 0 00.03-.158.361.361 0 00.016.036c.042.085.128.223.293.478l.068.104c.33.51.877 1.358 1.728 2.803l-.585.344c-.843-1.433-1.385-2.271-1.713-2.78l-.068-.104a6.462 6.462 0 01-.331-.545zm.591-.34l.001.004a.017.017 0 010-.004zm5.244-8.6c.018-.42-5.157 2.356-7.105-4.067l7.105 4.067z" fill="#fff"/><path fill-rule="evenodd" clip-rule="evenodd" d="M88.133 4.229a.42.42 0 01.163.354l-.78-.032a.356.356 0 00.138.294.311.311 0 00.152.066h.011l-.069.01a5.558 5.558 0 00-.28.055l-.315.065c-.527.103-1.278.219-2.103.132a4.611 4.611 0 01-2.569-1.09c-.828-.71-1.55-1.81-2.053-3.47l.747-.226c.47 1.552 1.125 2.513 1.814 3.103a3.832 3.832 0 002.142.907c.71.074 1.372-.024 1.871-.122l.273-.056c.135-.028.258-.054.349-.069a1.03 1.03 0 01.272-.015.472.472 0 01.237.094zm-7.215 8.124c.278.087-.664-3.885 3.998-4.048l-3.998 4.048z" fill="#fff"/><path fill-rule="evenodd" clip-rule="evenodd" d="M81.001 12.431a.124.124 0 01-.113.02l.06-.191a.076.076 0 00-.068.012.052.052 0 00-.016.019v-.002a.397.397 0 00.015-.086c.006-.057.01-.128.014-.213l.012-.214c.024-.366.079-.871.275-1.387a3.033 3.033 0 011.127-1.45c.59-.408 1.426-.69 2.606-.732l.007.2c-1.151.04-1.947.315-2.5.696-.551.38-.868.872-1.053 1.358-.186.487-.239.969-.262 1.328l-.012.203c-.005.091-.009.17-.015.23a.555.555 0 01-.027.14.158.158 0 01-.05.07zm1.345.717c-.114.183 2.894.529 2.13 3.882l-2.13-3.882z" fill="#fff"/><path fill-rule="evenodd" clip-rule="evenodd" d="M82.028 13.287a.358.358 0 01.031-.318l.575.36a.32.32 0 00.028-.282.29.29 0 00-.101-.133l.022.011c.036.018.078.035.134.059l.157.066c.264.115.64.295.997.59.36.295.703.709.9 1.286.197.577.238 1.293.036 2.18l-.661-.15c.18-.79.132-1.374-.017-1.811a2.153 2.153 0 00-.69-.982 3.479 3.479 0 00-.836-.49l-.123-.053a4.803 4.803 0 01-.19-.083.688.688 0 01-.15-.094.389.389 0 01-.112-.156zm59.389 14.027c.378-.427 3.938-8.107-4.008-10.373l4.008 10.373z" fill="#fff"/><path fill-rule="evenodd" clip-rule="evenodd" d="M141.786 27.302a1.346 1.346 0 01-.142.215l-.455-.4.018-.026.05-.084a4.6 4.6 0 00.147-.293 8.82 8.82 0 00.375-.973c.256-.794.479-1.83.452-2.914-.027-1.082-.302-2.203-1.034-3.186-.73-.982-1.936-1.854-3.872-2.406l.166-.583c2.038.581 3.367 1.518 4.192 2.627.824 1.108 1.125 2.359 1.154 3.533.029 1.172-.212 2.278-.482 3.115a9.4 9.4 0 01-.401 1.041 5.467 5.467 0 01-.168.334zM80.3 13.56c-.375-.43-7.53-4.953-10.803 2.635L80.3 13.56z" fill="#fff"/><path fill-rule="evenodd" clip-rule="evenodd" d="M80.323 13.206c.074.056.146.114.191.166l-.426.372a1.56 1.56 0 00-.103-.084 4.368 4.368 0 00-.273-.184 8.794 8.794 0 00-.918-.499c-.756-.357-1.756-.713-2.838-.827-1.08-.113-2.23.016-3.304.617-1.073.6-2.096 1.686-2.895 3.538l-.52-.225c.838-1.942 1.937-3.135 3.138-3.807 1.2-.672 2.475-.808 3.64-.686 1.164.123 2.227.503 3.02.878.398.188.732.376.98.532.123.078.227.15.308.21zm.471-.028c.092-.362-.89-6.438-7.952-6.967l7.953 6.967z" fill="#fff"/><path fill-rule="evenodd" clip-rule="evenodd" d="M81.156 13.027a.831.831 0 01-.014.242l-.696-.177a.182.182 0 00-.006.029l-.001-.05a2.3 2.3 0 00-.026-.216 5.68 5.68 0 00-.174-.737 7.887 7.887 0 00-1.035-2.155c-1.06-1.548-2.976-3.135-6.39-3.391l.054-.717c3.65.274 5.756 1.99 6.929 3.702.583.85.932 1.696 1.13 2.353.1.33.161.614.196.833.017.11.028.205.033.284z" fill="#fff"/><path fill-rule="evenodd" clip-rule="evenodd" d="M82.442 12.972c-.366-.073-6.354 1.041-6.518 8.122l6.517-8.122z" fill="#fff"/><path fill-rule="evenodd" clip-rule="evenodd" d="M82.299 12.845a.65.65 0 01.167 0l-.048.242a.88.88 0 00-.096.003c-.06.006-.14.017-.236.035-.193.037-.452.1-.755.201a7.814 7.814 0 00-2.15 1.118c-1.535 1.134-3.052 3.148-3.133 6.648l-.247-.006c.083-3.581 1.641-5.665 3.233-6.84a8.061 8.061 0 012.219-1.154 6.48 6.48 0 01.787-.21c.103-.018.19-.03.259-.037zM98.003 23.27c-.125.556-4.264 7.94-10.755 2.827l10.755-2.828z" fill="#fff"/><path fill-rule="evenodd" clip-rule="evenodd" d="M97.635 23.191l.001-.002.736.165a1.38 1.38 0 01-.096.256 5.084 5.084 0 01-.175.337 9.388 9.388 0 01-.614.943c-.523.714-1.284 1.563-2.26 2.232-.978.67-2.183 1.167-3.582 1.147-1.401-.02-2.955-.555-4.63-1.874l.467-.592c1.571 1.238 2.97 1.696 4.173 1.713 1.207.017 2.262-.41 3.145-1.015.886-.608 1.59-1.389 2.08-2.057.244-.333.433-.634.564-.866.065-.116.114-.213.148-.286.028-.06.04-.091.043-.101zm43.782 4.123c.378-.427-.593-1.527-4.008-10.373l4.008 10.373z" fill="#fff"/><path fill-rule="evenodd" clip-rule="evenodd" d="M141.72 26.67c.093.308.134.607-.077.845l-.454-.401-.001.003.002-.019a.896.896 0 00-.05-.253c-.085-.28-.269-.716-.584-1.44l-.131-.302a190.927 190.927 0 01-3.3-8.053l.566-.218a189.62 189.62 0 003.29 8.03l.131.302c.308.71.51 1.183.608 1.505zM80.3 13.563c-.375-.43-1.59.391-10.803 2.635L80.3 13.563z" fill="#fff"/><path fill-rule="evenodd" clip-rule="evenodd" d="M79.704 13.193c.318-.053.609-.053.81.178l-.426.372-.002-.002m-.382-.548c-.331.055-.825.193-1.57.407l1.57-.407zm-1.57.407l-.316.09.317-.09zm-.316.09a188.324 188.324 0 01-8.388 2.226l8.388-2.225zm-8.388 2.226l.134.55-.134-.55zm.134.55c4.304-1.047 6.866-1.786 8.41-2.23l-8.41 2.23zm8.41-2.23l.317-.092-.316.091zm.317-.092c.758-.218 1.215-.345 1.505-.393l-1.505.393zm1.505-.393a.89.89 0 01.265-.017l-.265.017zm.265-.017a.082.082 0 01.024.007l-.024-.007zm.024.007zm70.177 36.895c-.148-.5-2.104-.406-14.277-2.773l14.277 2.773z" fill="#fff"/><path fill-rule="evenodd" clip-rule="evenodd" d="M150.288 50.139a.662.662 0 01.34.392l-.731.217c.014.049.042.07.042.07l-.016-.01a1.54 1.54 0 00-.334-.11c-.376-.093-.996-.2-2.018-.368l-.428-.07a360.55 360.55 0 01-11.231-2.019l.146-.749a359.822 359.822 0 0011.209 2.014l.428.07c1.008.167 1.665.28 2.079.382.204.051.379.107.514.181zM80.794 13.178c.092-.361-1.147-1.02-7.775-6.928l7.775 6.928z" fill="#fff"/><path fill-rule="evenodd" clip-rule="evenodd" d="M81.067 12.834a.562.562 0 01.076.43l-.697-.175c-.017.069.006.115.005.115l-.001-.003a1.058 1.058 0 00-.153-.173c-.193-.192-.533-.482-1.102-.96l-.237-.2a258.01 258.01 0 01-6.177-5.351l.478-.537a257.032 257.032 0 006.162 5.338l.237.2c.558.47.925.782 1.145 1 .109.107.202.211.264.316zm1.375.138c-.366-.073-.96 1.198-6.518 8.122l6.517-8.122z" fill="#fff"/><path fill-rule="evenodd" clip-rule="evenodd" d="M82.216 12.908a.327.327 0 01.25-.063l-.048.242c-.004 0-.02-.004-.065.026a1.236 1.236 0 00-.21.2c-.19.212-.468.576-.914 1.165l-.187.247a255.843 255.843 0 01-5.021 6.44l-.192-.154c2.592-3.229 4.103-5.228 5.016-6.434l.187-.248c.443-.585.729-.959.927-1.18.098-.11.182-.191.257-.241zM98.003 23.27c-.125.556-1.585.413-10.755 2.827l10.755-2.828z" fill="#fff"/><path fill-rule="evenodd" clip-rule="evenodd" d="M97.65 23.158a.083.083 0 00-.014.033l.735.165c-.079.352-.381.505-.688.611-.324.111-.83.226-1.584.392l-.322.07a189.36 189.36 0 00-8.432 2.036l-.192-.729a190.297 190.297 0 018.784-2.113c.773-.17 1.228-.275 1.5-.369a.8.8 0 00.213-.096zm.006-.006s0 .002-.006.006l.006-.006zm43.761 4.162c.011-7.656-.8-6.256-4.008-10.373l4.008 10.373z" fill="#fff"/><path fill-rule="evenodd" clip-rule="evenodd" d="M140.887 20.66c.645 1.2.839 2.843.833 6.657h-.606c.006-3.842-.2-5.327-.76-6.37-.281-.523-.657-.947-1.186-1.516a18.104 18.104 0 00-.139-.15 29.865 29.865 0 01-1.859-2.15l.478-.373c.724.93 1.324 1.573 1.825 2.111l.139.15c.526.565.953 1.041 1.275 1.64zM80.3 13.56c-7.59-1.001-6.307-.016-10.803 2.634L80.3 13.559z" fill="#fff"/><path fill-rule="evenodd" clip-rule="evenodd" d="M73.639 13.24c1.267-.481 2.917-.462 6.7.036l-.074.562c-3.808-.502-5.313-.49-6.425-.068-.557.212-1.028.531-1.66.982l-.167.119c-.599.428-1.333.953-2.371 1.565l-.288-.488a29.399 29.399 0 002.33-1.539l.167-.118c.629-.448 1.154-.81 1.788-1.05zm76.623 37.397c-8.127-4.15-7.298-2.819-14.277-2.773l14.277 2.773z" fill="#fff"/><path fill-rule="evenodd" clip-rule="evenodd" d="M142.734 47.3c1.76.189 3.644.927 7.703 3l-.347.679c-4.069-2.078-5.835-2.749-7.437-2.92-.804-.087-1.578-.048-2.611.019l-.271.017c-.98.064-2.177.143-3.783.153l-.005-.763c1.583-.01 2.76-.087 3.739-.151l.271-.018c1.029-.066 1.864-.11 2.741-.016zM98.003 23.27c-6.199 4.494-5.54 3.016-10.755 2.827l10.755-2.828z" fill="#fff"/><path fill-rule="evenodd" clip-rule="evenodd" d="M92.207 26.066c1.153-.154 2.463-.844 5.576-3.101l.442.61c-3.086 2.237-4.546 3.055-5.918 3.238-.685.092-1.33.023-2.096-.072l-.202-.025c-.73-.091-1.6-.2-2.774-.242l.027-.754c1.209.044 2.108.157 2.84.248l.202.025c.771.095 1.327.15 1.903.073zm49.21 1.248c-.925-4.057-5.096-3.096-4.008-10.373l4.008 10.373z" fill="#fff"/><path fill-rule="evenodd" clip-rule="evenodd" d="M139.605 23.889c.834.83 1.734 1.725 2.107 3.36l-.591.135c-.33-1.449-1.071-2.189-1.878-2.994a16.029 16.029 0 01-.814-.855c-.534-.614-1.01-1.344-1.277-2.398-.266-1.047-.319-2.394-.044-4.239l.6.09c-.268 1.794-.209 3.055.031 4 .238.94.658 1.588 1.147 2.15.223.257.468.5.719.75zM80.3 13.559c-4.142.393-3.728 4.653-10.803 2.634L80.3 13.56z" fill="#fff"/><path fill-rule="evenodd" clip-rule="evenodd" d="M76.682 14.926c.93-.719 1.929-1.49 3.591-1.649l.054.564c-1.485.141-2.32.785-3.224 1.482-.3.23-.608.467-.949.694-.676.449-1.459.825-2.534.953-1.07.128-2.41.007-4.201-.504l.155-.545c1.746.498 3.007.603 3.979.487.966-.115 1.666-.45 2.288-.863.285-.19.56-.402.841-.619zm73.58 35.71c-5.063-1.54-7.427 1.934-14.277-2.773l14.277 2.773z" fill="#fff"/><path fill-rule="evenodd" clip-rule="evenodd" d="M145.191 49.953c1.552-.14 3.181-.289 5.182.32l-.222.73c-1.846-.562-3.285-.432-4.806-.295-.498.044-1.004.09-1.536.112-2.161.091-4.546-.24-8.04-2.64l.432-.63c3.356 2.307 5.577 2.592 7.576 2.508a29.7 29.7 0 001.414-.105zM98.003 23.27c-3.83 1.626-5.495-2.317-10.755 2.827l10.755-2.828z" fill="#fff"/><path fill-rule="evenodd" clip-rule="evenodd" d="M94.383 23.15c1.12.18 2.127.344 3.474-.228l.294.694c-1.564.664-2.845.455-4.009.264-.346-.056-.683-.111-1.013-.141-.733-.066-1.492-.028-2.38.324-.895.355-1.944 1.039-3.237 2.302l-.527-.539c1.338-1.308 2.47-2.06 3.486-2.463 1.023-.406 1.906-.448 2.725-.375.42.038.81.1 1.187.162zm47.034 4.164c.378-.427-8.675-3.833-4.008-10.373l4.008 10.373z" fill="#fff"/><path fill-rule="evenodd" clip-rule="evenodd" d="M141.715 27.173c.031.1.024.231-.071.338l-.454-.4a.255.255 0 00-.054.24.151.151 0 00.021.046 1.283 1.283 0 00-.173-.141c-.131-.096-.305-.21-.518-.35-.104-.069-.218-.143-.34-.225-.727-.484-1.7-1.17-2.541-2.056-.84-.887-1.566-1.994-1.765-3.323-.2-1.338.139-2.854 1.342-4.54l.494.352c-1.131 1.584-1.409 2.945-1.237 4.098.174 1.162.814 2.16 1.606 2.996.792.835 1.719 1.49 2.437 1.969l.321.212c.221.145.414.273.557.376.102.074.202.153.27.23a.49.49 0 01.105.178zm-.555.228l-.001-.002.001.002zM80.3 13.563c-.375-.43-4.921 8.106-10.803 2.634L80.3 13.563z" fill="#fff"/><path fill-rule="evenodd" clip-rule="evenodd" d="M80.206 13.263a.33.33 0 01.308.107l-.427.373a.236.236 0 00.214.078.153.153 0 00.044-.014l-.004.003c-.027.018-.08.066-.165.155-.112.119-.249.277-.415.47l-.266.308c-.574.657-1.379 1.533-2.365 2.25-.986.718-2.173 1.292-3.511 1.318-1.346.025-2.802-.505-4.315-1.913l.386-.414c1.427 1.328 2.746 1.783 3.918 1.76 1.18-.022 2.256-.53 3.19-1.208.932-.679 1.702-1.515 2.27-2.166.088-.1.172-.198.252-.291.173-.2.323-.375.444-.503.087-.091.176-.178.26-.235a.47.47 0 01.182-.078zm.141.543l-.002.001a.048.048 0 01.002-.001zm69.916 36.832c-.148-.5-11.332 3.617-14.495-3.226l14.495 3.226zm0 0c-.148-.5-5.748-7.148-14.606-2.744l14.606 2.744z" fill="#fff"/><path fill-rule="evenodd" clip-rule="evenodd" d="M150.493 50.256c.05.073.115.174.143.27l.189.637-.782-.174a3.719 3.719 0 00-.255.033c-.216.034-.491.086-.822.15l-.515.097c-1.123.21-2.657.468-4.292.525-3.24.112-7.058-.567-8.745-4.219l-.331-.716 1.269.283c4.154-1.781 7.585-1.21 10.038-.069a12.16 12.16 0 013.037 2.018c.354.323.631.62.828.855.098.117.178.222.238.31zm-13.974-2.278c1.624 2.568 4.693 3.137 7.613 3.036 1.461-.051 2.847-.27 3.929-.467l-11.542-2.569zm1.211-.53c3.444-1.169 6.27-.625 8.331.333a11.346 11.346 0 012.839 1.886c.133.122.254.239.362.348l-11.532-2.567zM80.795 13.18c.091-.361-8.276-1.967-7.72-7.336l7.72 7.336z" fill="#fff"/><path fill-rule="evenodd" clip-rule="evenodd" d="M81.039 12.897a.4.4 0 01.104.373l-.697-.176a.32.32 0 00.089.315 1.796 1.796 0 00-.204-.093 20.07 20.07 0 00-.556-.21l-.352-.131c-.767-.287-1.808-.697-2.837-1.27-2.036-1.13-4.17-2.981-3.868-5.896l.714.074c-.254 2.454 1.517 4.09 3.503 5.195.981.545 1.98.94 2.74 1.224l.334.124c.234.086.438.161.592.224.111.045.217.092.297.139a.638.638 0 01.14.108zm-.495.517h-.002a.02.02 0 01.002 0zm1.898-.444c-.366-.073-1.127 8.4-6.518 8.121l6.517-8.122z" fill="#fff"/><path fill-rule="evenodd" clip-rule="evenodd" d="M82.313 12.908c.022-.025.075-.073.152-.057l-.048.242c.025.005.047 0 .062-.008.012-.007.018-.013.019-.014l-.005.008a1.906 1.906 0 00-.097.267c-.045.15-.096.344-.156.576l-.094.359c-.207.781-.507 1.832-.966 2.878-.914 2.084-2.484 4.201-5.263 4.058l.013-.246c2.613.134 4.118-1.846 5.024-3.91.45-1.03.747-2.065.953-2.844l.093-.352c.06-.234.113-.435.159-.589a2.14 2.14 0 01.096-.274.39.39 0 01.058-.095zm15.69 10.363c-.125.557-8.188-4.785-10.755 2.827l10.755-2.827z" fill="#fff"/><path fill-rule="evenodd" clip-rule="evenodd" d="M97.848 22.948a.33.33 0 00-.212.238l.735.166a.425.425 0 01-.281.31.563.563 0 01-.237.022 1.806 1.806 0 01-.36-.088c-.17-.055-.389-.138-.637-.233l-.357-.134c-.808-.302-1.875-.667-3.007-.819-1.133-.151-2.3-.084-3.325.446-1.016.525-1.945 1.531-2.562 3.36l-.714-.24c.667-1.977 1.708-3.158 2.93-3.79 1.212-.626 2.551-.686 3.77-.523 1.22.163 2.353.553 3.172.86.139.051.267.1.384.144.236.09.429.163.581.213.116.038.176.052.2.054-.011 0-.041 0-.08.014zm.08-.014zm21.508-9.73c.157-.683.767-8.228-10.41-8.833l10.41 8.832z" fill="#fff"/><path fill-rule="evenodd" clip-rule="evenodd" d="M118.811 8.561c1.286 2.15 1.095 4.313 1 4.728l-.749-.17c.062-.268.253-2.22-.91-4.163-1.144-1.912-3.652-3.904-9.147-4.201l.042-.767c5.683.308 8.458 2.391 9.764 4.573z" fill="#fff"/><path fill-rule="evenodd" clip-rule="evenodd" d="M119.436 13.204c.157-.683-1.536-1.299-10.41-8.833l10.41 8.832z" fill="#fff"/><path fill-rule="evenodd" clip-rule="evenodd" d="M119.392 12.321c.283.279.506.581.418.968l-.748-.171v.01s-.001-.006-.008-.02a1.057 1.057 0 00-.2-.24c-.256-.252-.709-.613-1.473-1.21l-.319-.248a233.068 233.068 0 01-8.285-6.747l.496-.585a233.205 233.205 0 008.261 6.727l.319.248c.749.585 1.244.977 1.539 1.268z" fill="#fff"/><path fill-rule="evenodd" clip-rule="evenodd" d="M117.548 11.3c-3.316.06-4.432.266-5.09.266l5.09-.265z" fill="#fff"/><path fill-rule="evenodd" clip-rule="evenodd" d="M113.977 11.078c.783-.06 1.898-.126 3.564-.156l.014.767a60.08 60.08 0 00-3.52.154c-.241.018-.454.036-.644.052-.401.034-.697.06-.933.06v-.768c.203 0 .449-.02.821-.052a71.4 71.4 0 01.698-.057zm1.214-1.496c-2.835.06-3.79.265-4.352.265l4.352-.265z" fill="#fff"/><path fill-rule="evenodd" clip-rule="evenodd" d="M112.129 9.356c.671-.06 1.627-.127 3.054-.157l.016.763a43.448 43.448 0 00-3.545.205 8.89 8.89 0 01-.815.06v-.763c.169 0 .372-.02.684-.05.167-.017.365-.037.606-.058zm.781-1.758c-2.05.06-2.74.265-3.147.265l3.147-.265z" fill="#fff"/><path fill-rule="evenodd" clip-rule="evenodd" d="M110.674 7.372a23.44 23.44 0 012.225-.157l.023.77a22.768 22.768 0 00-2.155.151c-.157.02-.287.037-.405.054l-.174.023c-.154.02-.295.036-.425.036v-.77c.074 0 .171-.009.325-.029l.161-.022c.12-.016.263-.036.425-.056z" fill="#fff"/><path fill-rule="evenodd" clip-rule="evenodd" d="M119.436 13.204c.157-.683-9.174 2.292-10.41-8.833l10.41 8.832z" fill="#fff"/><path fill-rule="evenodd" clip-rule="evenodd" d="M119.711 12.894c.102.115.13.262.1.395l-.748-.172a.325.325 0 00.151.349c.018.01.03.013.033.014l-.042-.006a1.677 1.677 0 00-.129-.007c-.135-.003-.299.001-.5.006a31.62 31.62 0 01-.522.01c-.886.009-2.121-.03-3.409-.413-1.294-.384-2.643-1.114-3.747-2.481-1.103-1.366-1.938-3.34-2.253-6.176l.763-.085c.303 2.727 1.097 4.552 2.087 5.779.988 1.224 2.194 1.88 3.368 2.227 1.179.35 2.324.39 3.183.382.166-.002.329-.006.48-.01.222-.005.42-.01.568-.006.121.003.262.011.378.047a.523.523 0 01.239.147z" fill="#fff"/><path fill-rule="evenodd" clip-rule="evenodd" d="M130.705 27.023c.262 0-5.916-11.004-11.841-14.226l11.841 14.226z" fill="#fff"/><path fill-rule="evenodd" clip-rule="evenodd" d="M131.135 27.426a.59.59 0 01-.43.185v-1.17a.58.58 0 00-.569.471.533.533 0 000 .197h.001c.003.019.007.03.007.03l-.008-.021a4.675 4.675 0 00-.144-.307 24.474 24.474 0 00-.699-1.259 56.378 56.378 0 00-2.665-4.09c-2.25-3.15-5.209-6.607-8.044-8.148l.559-1.029c3.09 1.68 6.182 5.337 8.438 8.496a57.343 57.343 0 012.722 4.179c.321.547.571 1 .733 1.322.081.159.146.297.188.403a1.1 1.1 0 01.061.194c.005.027.025.126.003.244a.59.59 0 01-.153.303z" fill="#fff"/><path fill-rule="evenodd" clip-rule="evenodd" d="M130.705 27.023c.262 0-5.916-11.004-11.841-14.226l11.841 14.226z" fill="#fff"/><path fill-rule="evenodd" clip-rule="evenodd" d="M131.135 27.426a.59.59 0 01-.43.185v-1.17a.58.58 0 00-.569.471.533.533 0 000 .197h.001c.003.019.007.03.007.03l-.008-.021a4.675 4.675 0 00-.144-.307 24.474 24.474 0 00-.699-1.259 56.378 56.378 0 00-2.665-4.09c-2.25-3.15-5.209-6.607-8.044-8.148l.559-1.029c3.09 1.68 6.182 5.337 8.438 8.496a57.343 57.343 0 012.722 4.179c.321.547.571 1 .733 1.322.081.159.146.297.188.403a1.1 1.1 0 01.061.194c.005.027.025.126.003.244a.59.59 0 01-.153.303zm16.349 12.506c.261 0-2.93-6.453-5.925-12.905l5.925 12.905z" fill="#fff"/><path fill-rule="evenodd" clip-rule="evenodd" d="M147.957 40.285a.599.599 0 01-.473.233v-1.171a.574.574 0 00-.567.494c-.006.05-.003.088-.002.103l.004.028-.009-.033a3.144 3.144 0 00-.034-.098c-.061-.17-.169-.432-.323-.783-.305-.697-.77-1.699-1.34-2.91-.378-.802-.802-1.696-1.255-2.65a831.8 831.8 0 01-2.93-6.224l1.062-.493c.998 2.15 2.016 4.297 2.923 6.208.453.956.878 1.853 1.259 2.661a132.92 132.92 0 011.354 2.938c.155.355.277.647.352.856.036.099.071.206.089.3a.73.73 0 01.012.242.613.613 0 01-.122.3zM120.7 31.8c.098.177 1.422 1.917 3.941-.109l-3.941.11z" fill="#fff"/><path fill-rule="evenodd" clip-rule="evenodd" d="M121.664 32.888c-.758-.235-1.175-.782-1.256-.928l.583-.323h.001a1.57 1.57 0 00.231.253c.15.133.363.276.638.361.527.164 1.375.14 2.571-.821l.418.52c-1.324 1.063-2.398 1.182-3.186.938zm-.226.979c-.145.037-1.635.651-.668 2.83l.668-2.83z" fill="#fff"/><path fill-rule="evenodd" clip-rule="evenodd" d="M121.075 33.924a1.26 1.26 0 01.336-.166l.054.215c-.021.005-.13.044-.267.136a1.43 1.43 0 00-.417.427c-.245.392-.382 1.05.091 2.114l-.203.09c-.495-1.114-.37-1.853-.076-2.322a1.65 1.65 0 01.482-.494zm6.785 7.356c-.281-.2-3.793-1.581-6.189 3.38l6.189-3.38z" fill="#fff"/><path fill-rule="evenodd" clip-rule="evenodd" d="M127.686 40.963c.132.05.239.1.298.142l-.248.348-.004-.002a3.05 3.05 0 00-.662-.216 3.726 3.726 0 00-1.468.008c-1.136.234-2.564 1.077-3.738 3.509l-.385-.186c1.221-2.53 2.748-3.476 4.037-3.742a4.155 4.155 0 011.637-.009c.214.043.395.097.533.148zM120.7 31.8c.098.177.581-.017 3.941-.109l-3.941.11z" fill="#fff"/><path fill-rule="evenodd" clip-rule="evenodd" d="M120.869 32.2c-.121-.005-.343-.029-.461-.24l.583-.324a.21.21 0 00-.125-.104l.034.003c.088.004.239-.004.524-.024l.116-.008c.57-.04 1.517-.105 3.092-.148l.018.667a66.976 66.976 0 00-3.064.146l-.116.008a6.097 6.097 0 01-.601.025zm-.008-.669l.005.001h-.005zm.577 2.336c-.144.037-.097.417-.667 2.83l.667-2.83z" fill="#fff"/><path fill-rule="evenodd" clip-rule="evenodd" d="M121.247 33.95c.026-.081.066-.167.164-.192l.054.215a.033.033 0 00.015-.008.192.192 0 00-.022.052c-.022.071-.046.19-.085.393l-.017.085a48.16 48.16 0 01-.478 2.225l-.216-.05a48.15 48.15 0 00.476-2.217l.017-.085c.038-.198.065-.332.092-.418zm.234.014l-.001.001.001-.001zm6.378 7.32c-.28-.2-.881.451-5.987 3.052l5.987-3.052z" fill="#fff"/><path fill-rule="evenodd" clip-rule="evenodd" d="M127.442 41.108c.18-.075.372-.125.542-.003l-.248.348a.043.043 0 00.012.006.468.468 0 00-.141.043c-.162.068-.41.204-.826.439l-.174.097c-.846.477-2.251 1.268-4.637 2.483l-.194-.38a114.896 114.896 0 004.795-2.573c.407-.229.681-.38.871-.46zm.312.351h-.006.006z" fill="#fff"/><path fill-rule="evenodd" clip-rule="evenodd" d="M126.638 41.777c-.602 1.518-.721 2.064-.845 2.363l.845-2.363z" fill="#fff"/><path fill-rule="evenodd" clip-rule="evenodd" d="M125.833 43.349c.122-.367.303-.887.606-1.65l.397.158a29.348 29.348 0 00-.597 1.626l-.098.301c-.061.19-.106.33-.152.439l-.394-.165c.038-.091.075-.206.131-.38l.107-.33zm-.424-.826c-.511 1.3-.599 1.772-.705 2.027l.705-2.027z" fill="#fff"/><path fill-rule="evenodd" clip-rule="evenodd" d="M124.712 43.867c.1-.317.251-.764.509-1.418l.378.149a21.353 21.353 0 00-.579 1.647c-.051.164-.089.289-.128.384l-.375-.157c.032-.076.061-.17.106-.318l.089-.287zm-.637-.683c-.362.942-.399 1.295-.476 1.48l.476-1.48z" fill="#fff"/><path fill-rule="evenodd" clip-rule="evenodd" d="M123.548 44.154c.066-.234.167-.564.351-1.04l.353.135a11.163 11.163 0 00-.393 1.201l-.022.084c-.02.074-.04.141-.064.2l-.349-.146c.014-.034.028-.08.048-.153l.021-.078c.015-.057.033-.126.055-.203zM120.7 31.799c.098.177 1.53-2.262 3.941-.109l-3.941.109z" fill="#fff"/><path fill-rule="evenodd" clip-rule="evenodd" d="M120.675 32.14a.35.35 0 01-.267-.178l.583-.323a.318.318 0 00-.241-.16.292.292 0 00-.184.039l.016-.013a2.1 2.1 0 00.092-.085l.119-.11c.194-.179.487-.426.867-.606a2.366 2.366 0 011.415-.208c.552.09 1.15.377 1.788.947l-.444.497c-.567-.507-1.053-.722-1.451-.786a1.698 1.698 0 00-1.022.152 2.887 2.887 0 00-.703.495l-.092.085c-.051.048-.1.095-.136.125a.648.648 0 01-.141.096.375.375 0 01-.199.033zm.763 1.727c-.144.037 1.323 1.518-.667 2.83l.667-2.83z" fill="#fff"/><path fill-rule="evenodd" clip-rule="evenodd" d="M121.326 33.833a.124.124 0 01.085-.075l.054.215a.1.1 0 00.068-.06.075.075 0 00.005-.043v-.001s.002.007.012.027l.048.092.053.099c.088.168.202.41.255.695.053.287.045.62-.11.968-.155.347-.453.701-.964 1.038l-.122-.186c.484-.319.749-.642.883-.942.134-.3.141-.586.095-.838a2.272 2.272 0 00-.233-.632l-.048-.089a2.797 2.797 0 01-.057-.11.336.336 0 01-.03-.083.138.138 0 01.006-.075zm6.533 7.45c-.28-.2-.519 4.688-5.806 3.138l5.806-3.138z" fill="#fff"/><path fill-rule="evenodd" clip-rule="evenodd" d="M127.758 41.074a.241.241 0 01.226.03l-.249.348a.187.187 0 00.225-.008.11.11 0 00.017-.018l-.001.001c-.002.004-.012.023-.031.07-.024.061-.049.136-.08.227l-.086.25c-.147.413-.377.98-.775 1.508a3.492 3.492 0 01-1.79 1.274c-.82.252-1.87.261-3.221-.135l.12-.41c1.293.379 2.255.358 2.975.136a3.072 3.072 0 001.575-1.123c.358-.475.571-.995.713-1.394l.079-.227c.035-.103.066-.195.092-.262a.727.727 0 01.089-.172.275.275 0 01.122-.095zm-7.944-8.967c.018-.395-1.394-6.088-6.669-3.862l6.669 3.862z" fill="#fff"/><path fill-rule="evenodd" clip-rule="evenodd" d="M120.184 31.908c.011.065.022.146.019.216l-.779-.036-.001.01s-.001-.017-.008-.06a3.622 3.622 0 00-.045-.208 5.955 5.955 0 00-.214-.667 6.007 6.007 0 00-.99-1.718c-.467-.552-1.072-1.012-1.849-1.214-.775-.2-1.764-.157-3.02.373l-.304-.719c1.382-.583 2.547-.662 3.52-.41.97.252 1.706.823 2.249 1.465.542.64.901 1.362 1.123 1.944.112.292.191.553.242.757.026.102.045.193.057.267zm.058.246c.219-.137 2.712-3.542-.568-7.193l.568 7.193z" fill="#fff"/><path fill-rule="evenodd" clip-rule="evenodd" d="M120.428 32.196a.53.53 0 01-.101.093l-.171-.273-.003.002.034-.035c.025-.03.058-.07.097-.124.079-.107.177-.26.281-.451a5.37 5.37 0 00.546-1.563c.232-1.28.047-2.992-1.558-4.778l.24-.215c1.675 1.864 1.884 3.68 1.635 5.05a5.658 5.658 0 01-.58 1.659c-.11.203-.216.368-.304.488-.043.06-.083.109-.116.147zm1.285 1.166c-.148-.212-3.678-2.525-7.154.94l7.154-.94z" fill="#fff"/><path fill-rule="evenodd" clip-rule="evenodd" d="M121.86 33.03a.692.692 0 01.134.134l-.561.393a.223.223 0 00.023.027l-.022-.018a1.713 1.713 0 00-.115-.081 3.814 3.814 0 00-.444-.245 5.144 5.144 0 00-1.534-.449c-1.238-.159-2.882.099-4.54 1.752l-.483-.486c1.818-1.811 3.677-2.13 5.11-1.945a5.84 5.84 0 011.741.51c.216.102.393.204.525.29.065.042.121.082.166.118zm-2.046-.923c.018-.395-.984-.567-6.669-3.86l6.669 3.86z" fill="#fff"/><path fill-rule="evenodd" clip-rule="evenodd" d="M119.799 31.476c.188.13.419.323.404.647l-.78-.036a.167.167 0 00.03.108.682.682 0 00-.095-.074c-.157-.108-.434-.257-.922-.514l-.202-.106a132.592 132.592 0 01-5.285-2.92l.392-.675a130.963 130.963 0 005.256 2.904l.202.106c.471.248.796.421 1 .56zm-.345.72l-.001-.001.001.002zm.788-.042c.219-.137-.085-1.06-.568-7.193l.568 7.193z" fill="#fff"/><path fill-rule="evenodd" clip-rule="evenodd" d="M120.457 32.09a.297.297 0 01-.13.198l-.17-.273a.044.044 0 00-.017.017l.004-.014a.827.827 0 00.009-.182 15.435 15.435 0 00-.092-1.015l-.023-.214c-.112-1.043-.299-2.772-.525-5.636l.321-.026c.226 2.86.412 4.585.524 5.628l.023.213c.055.504.088.832.094 1.042.002.104-.001.192-.018.263zm1.256 1.267c-.148-.211-1.054.14-7.154.94l7.154-.94z" fill="#fff"/><path fill-rule="evenodd" clip-rule="evenodd" d="M121.674 32.974a.483.483 0 01.321.193l-.561.393c.051.074.119.087.12.088l-.008-.001-.027-.001c-.024 0-.057 0-.101.004-.184.014-.485.06-.995.142l-.212.034a178.95 178.95 0 01-5.607.817l-.089-.68c2.842-.372 4.553-.647 5.588-.813l.212-.034c.497-.08.832-.132 1.05-.148a1.22 1.22 0 01.309.005zm-1.86-.867c-3.319-4.14-3.149-3.031-6.669-3.86l6.669 3.86z" fill="#fff"/><path fill-rule="evenodd" clip-rule="evenodd" d="M116.707 28.573c.918.389 1.763 1.231 3.411 3.287l-.609.489c-1.67-2.084-2.399-2.757-3.106-3.057-.354-.15-.72-.214-1.254-.291l-.14-.02c-.505-.074-1.132-.164-1.953-.358l.179-.76c.787.186 1.383.272 1.887.345l.14.02c.528.077.987.151 1.445.345z" fill="#fff"/><path fill-rule="evenodd" clip-rule="evenodd" d="M119.814 32.107c-2.262-1.789-4.097.54-6.669-3.86l6.669 3.86z" fill="#fff"/><path fill-rule="evenodd" clip-rule="evenodd" d="M117.339 30.857c.817.086 1.76.185 2.716.942l-.484.612c-.764-.604-1.421-.675-2.192-.759-.268-.029-.549-.06-.853-.114a4.073 4.073 0 01-1.807-.774c-.623-.47-1.252-1.194-1.911-2.323l.674-.394c.626 1.072 1.191 1.706 1.706 2.094a3.3 3.3 0 001.477.629c.212.038.438.062.674.087z" fill="#fff"/><path fill-rule="evenodd" clip-rule="evenodd" d="M119.814 32.107c.018-.395-6.349 1.697-6.669-3.86l6.669 3.86z" fill="#fff"/><path fill-rule="evenodd" clip-rule="evenodd" d="M120.015 31.75a.423.423 0 01.188.37l-.78-.035a.357.357 0 00.229.348.175.175 0 00.029.007l-.027-.001c-.022 0-.052 0-.09.002a8.72 8.72 0 00-.417.035l-.288.027c-.606.054-1.446.108-2.306-.008-.859-.117-1.772-.409-2.493-1.074-.73-.674-1.22-1.688-1.305-3.157l.779-.045c.076 1.309.501 2.117 1.055 2.628.561.517 1.299.77 2.069.874.77.105 1.538.057 2.131.004l.258-.024c.185-.018.352-.034.479-.04a1.37 1.37 0 01.284.01.517.517 0 01.205.078z" fill="#fff"/><path fill-rule="evenodd" clip-rule="evenodd" d="M120.242 32.154c.219-.137-3.421-4.773-.569-7.193l.569 7.193z" fill="#fff"/><path fill-rule="evenodd" clip-rule="evenodd" d="M120.412 32.121a.187.187 0 01-.085.167l-.17-.272a.132.132 0 00-.066.115v.008l-.004-.013a1.129 1.129 0 00-.067-.15 16.572 16.572 0 00-.193-.361l-.124-.228c-.267-.493-.617-1.17-.884-1.922-.531-1.491-.758-3.35.751-4.63l.208.246c-1.344 1.14-1.177 2.81-.656 4.277.259.727.599 1.386.864 1.876l.12.22c.081.148.15.276.201.376.037.073.068.14.086.195a.32.32 0 01.019.096zm1.301 1.239c-.148-.212-4.59 3.663-7.154.94l7.154-.94z" fill="#fff"/><path fill-rule="evenodd" clip-rule="evenodd" d="M121.66 33.009a.369.369 0 01.335.153l-.561.393a.317.317 0 00.282.136.213.213 0 00.046-.008 1.13 1.13 0 00-.123.064c-.09.052-.203.121-.341.206l-.225.138c-.481.294-1.149.684-1.899.995-1.476.613-3.424.975-4.863-.553l.498-.47c1.125 1.195 2.68.981 4.103.39.7-.29 1.331-.658 1.804-.946l.21-.129c.145-.09.273-.168.374-.225a1.71 1.71 0 01.213-.108.538.538 0 01.147-.036zm.105.673l-.003.001a.013.013 0 01.003 0zm25.719 6.248c.261 0-22.385-1.165-25.38-7.617l25.38 7.616z" fill="#fff"/><path fill-rule="evenodd" clip-rule="evenodd" d="M147.5 40.515h-.016v-1.17h-.015l-.047.003c-.051.008-.461.323-.483.792.144.215.399.356.433.364a.803.803 0 00.039.006l.012.002-.021-.002-.166-.01a106.105 106.105 0 01-3.244-.27c-2.143-.211-5.06-.56-8.082-1.113-3.018-.552-6.165-1.31-8.758-2.348-2.555-1.023-4.728-2.375-5.579-4.21l1.062-.493c.646 1.392 2.426 2.605 4.952 3.615 2.488.996 5.548 1.738 8.533 2.284 2.981.545 5.864.89 7.987 1.1a105.562 105.562 0 003.206.266l.169.011.046.004.016.001.015.002c.007 0 .027.004.04.006.034.008.29.15.433.364-.021.47-.431.785-.482.793l-.024.002-.026.001z" fill="#fff"/><path fill-rule="evenodd" clip-rule="evenodd" d="M147.483 39.93c.262 0-16.77-1.661-20.092 1.8l20.092-1.8z" fill="#fff"/><path fill-rule="evenodd" clip-rule="evenodd" d="M147.545 40.511c-.031.003-.056.003-.061.003v-1.17h-.001l-.056.002c-.02.003-.08.014-.119.025-.104.045-.379.38-.388.705.084.184.278.361.333.39a.547.547 0 00.124.038l.016.002h-.006a35.222 35.222 0 00-.606-.058 93.601 93.601 0 00-7.997-.33c-2.307.008-4.705.124-6.722.448-1.008.162-1.906.374-2.642.643-.743.271-1.279.585-1.606.926l-.845-.81c.503-.525 1.227-.916 2.05-1.216.83-.303 1.806-.53 2.857-.699 2.103-.338 4.57-.455 6.903-.464a94.873 94.873 0 018.618.383l.133.014h.001c.01.001.035.004.059.009l.05.011a.978.978 0 01.08.028c.056.028.25.206.333.39-.008.326-.283.66-.388.705a1 1 0 01-.12.025zm-30.491-20.198c.262 0-15.82-.875-20.093 3.702l20.093-3.702z" fill="#fff"/><path fill-rule="evenodd" clip-rule="evenodd" d="M117.087 20.893l-.032.001v-1.17h-.027a.969.969 0 00-.052.005 1.1 1.1 0 00-.42.28c-.068.435.259.832.333.86a1.012 1.012 0 00.104.021l.009.001h-.008a64.223 64.223 0 00-2.371-.062 70.664 70.664 0 00-5.869.198c-2.242.175-4.606.49-6.662 1.04-2.076.553-3.75 1.322-4.702 2.343l-.856-.8c1.184-1.267 3.123-2.106 5.256-2.675 2.153-.574 4.594-.898 6.873-1.076a71.851 71.851 0 018.286-.144l.122.007.046.004h.001l.036.005a.85.85 0 01.072.017c.075.028.402.425.334.861a1.109 1.109 0 01-.42.28 1.129 1.129 0 01-.053.005zm43.044 34.527c.262 0-3.26-2.611-10.303-5.303l10.303 5.304z" fill="#fff"/><path fill-rule="evenodd" clip-rule="evenodd" d="M160.428 55.933a.602.602 0 01-.297.077v-1.17a.579.579 0 00-.534.78.523.523 0 00.084.142c-.003-.003-.009-.01-.021-.02a4.587 4.587 0 00-.377-.29 23.63 23.63 0 00-1.855-1.162c-1.702-.974-4.316-2.287-7.809-3.622l.418-1.094c3.549 1.357 6.218 2.696 7.972 3.7.877.502 1.53.923 1.952 1.224.208.148.373.275.483.375.045.04.122.111.179.198a.607.607 0 01.1.438.593.593 0 01-.295.424zm-.745-.17l-.002-.001a.01.01 0 00.002.001zM60.864 14.232C26.287 24.944 1.171 57.175 1.171 95.272c0 46.851 37.98 84.83 84.829 84.83 46.85 0 84.829-37.979 84.829-84.83a84.837 84.837 0 00-3.467-24.08l1.123-.332A86.027 86.027 0 01172 95.273c0 47.496-38.503 86-86 86-47.496 0-86-38.504-86-86 0-38.625 25.464-71.3 60.518-82.16l.346 1.119z" fill="#fff"/><path fill-rule="evenodd" clip-rule="evenodd" d="M19.447 75.907c0-.305.096-.64.287-1.002.19-.363.43-.716.715-1.06a4.8 4.8 0 01.916-.858c.325-.229.64-.343.945-.343.42 0 .85.21 1.288.63.439.42.811.782 1.117 1.087a16.18 16.18 0 011.631 2.033c.478.706.945 1.44 1.403 2.204a65.276 65.276 0 015.411 11.365 91.432 91.432 0 013.464 12.11 15.518 15.518 0 011.23-2.977c.516-.955 1.04-1.909 1.575-2.863a285.69 285.69 0 013.006-5.411c1.012-1.775 2.033-3.56 3.063-5.353a1154.79 1154.79 0 003.493-6.098 106.234 106.234 0 013.664-5.983c.115-.19.258-.41.43-.659.172-.248.362-.496.572-.744.21-.248.42-.458.63-.63.21-.171.43-.257.658-.257.42 0 .821.162 1.203.486.382.325.572.697.572 1.117a.871.871 0 01-.2.544c-.134.172-.258.334-.372.486a30.889 30.889 0 00-2.949 4.38 360.056 360.056 0 01-2.605 4.61 418.944 418.944 0 00-4.81 8.502 742.349 742.349 0 00-4.637 8.56c-.305.572-.65 1.202-1.03 1.889a106.92 106.92 0 00-1.146 2.118 44.168 44.168 0 00-1.059 2.147 12.218 12.218 0 00-.716 1.919 8.583 8.583 0 00-.315 1.402 3.527 3.527 0 01-.314 1.117 1.787 1.787 0 01-.716.744c-.325.191-.83.286-1.517.286-.459 0-.802-.114-1.03-.343a2.145 2.145 0 01-.516-.859 4.081 4.081 0 01-.2-1.088 5.366 5.366 0 00-.144-1.031c-.687-4.275-1.803-8.569-3.35-12.882a111.948 111.948 0 00-5.238-12.31 196.09 196.09 0 00-1.431-2.69 14.631 14.631 0 00-1.718-2.52c-.19-.19-.449-.467-.773-.83-.324-.363-.487-.678-.487-.945zm139.318 23.05c0-.847-.357-1.271-1.071-1.271-.49 0-.87.19-1.137.569-.268.379-.513.747-.737 1.104-.401.625-1.004 1.45-1.807 2.476a36.089 36.089 0 01-2.61 2.978 22.638 22.638 0 01-2.878 2.51c-.981.714-1.873 1.071-2.676 1.071-.536 0-.949-.279-1.239-.837-.29-.558-.501-1.204-.635-1.941a14.652 14.652 0 01-.234-2.175 54.165 54.165 0 01-.034-1.606c0-1.16.078-2.398.234-3.714.156-1.316.413-2.554.77-3.715.178-.49.424-1.137.736-1.94.312-.804.468-1.45.468-1.941 0-.446-.167-.736-.502-.87a2.76 2.76 0 00-1.037-.2c-.625 0-1.104.21-1.439.635a6.655 6.655 0 00-.836 1.372 80.594 80.594 0 00-.97 2.04 54.513 54.513 0 01-1.506 2.979 182.265 182.265 0 01-1.841 3.313 31.946 31.946 0 01-1.974 3.078c-.67.915-1.316 1.674-1.941 2.276-.625.602-1.182.903-1.673.903-.402 0-.647-.201-.736-.602a4.81 4.81 0 01-.134-1.004c0-2.543.513-4.919 1.539-7.127a21.529 21.529 0 014.15-5.99 21.94 21.94 0 013.112-2.71 48.225 48.225 0 013.446-2.242c.178-.09.335-.19.469-.302.133-.111.2-.279.2-.502 0-.49-.245-.959-.736-1.405-.49-.446-.981-.67-1.472-.67-1.963 0-3.848.67-5.655 2.008-1.807 1.339-3.414 3.001-4.819 4.986a28.355 28.355 0 00-3.569 6.84c-.216.328-.399.625-.55.89-.357.714-.87 1.584-1.54 2.61a25.624 25.624 0 01-2.275 2.978 18.194 18.194 0 01-2.643 2.476c-.915.692-1.819 1.038-2.711 1.038-.536 0-.948-.134-1.238-.402a2.345 2.345 0 01-.636-1.004 4.813 4.813 0 01-.234-1.305 26.668 26.668 0 01-.034-1.305c0-1.561.045-3.123.134-4.685a82.29 82.29 0 00.134-4.684c0-.49-.022-1.093-.067-1.807a10.202 10.202 0 00-.368-2.142c-.201-.714-.502-1.316-.903-1.807-.402-.49-.937-.736-1.607-.736-.847 0-1.84.49-2.978 1.472a32.769 32.769 0 00-3.38 3.414 56.458 56.458 0 00-3.112 3.948 211.854 211.854 0 00-2.175 3.079c.179-1.294.402-2.588.67-3.882a23.274 23.274 0 011.138-3.815 54.69 54.69 0 001.171-3.513c.379-1.272.568-2.488.568-3.648 0-.713-.145-1.271-.435-1.673-.29-.401-.814-.602-1.573-.602-.847 0-1.661.335-2.442 1.004-.781.669-1.26 1.405-1.439 2.208a65.179 65.179 0 00-.602 3.146c-.179 1.07-.38 2.12-.603 3.145-.334 1.605-.67 3.242-1.01 4.914-.039.043-.076.09-.113.14-.312.423-.58.791-.803 1.104-.401.624-1.048 1.46-1.94 2.509a37.791 37.791 0 01-2.945 3.079 27.571 27.571 0 01-3.213 2.61c-1.07.736-2.007 1.082-2.81 1.037a7.89 7.89 0 001.17-2.476c.246-.892.369-1.785.369-2.677 0-1.428-.223-2.833-.67-4.216a27.642 27.642 0 00-1.672-4.05 132.075 132.075 0 00-2.075-3.914 38.48 38.48 0 01-1.874-3.882 32.498 32.498 0 001.07-3.246 12.7 12.7 0 00.47-3.38c0-.357-.034-.736-.101-1.137a5.376 5.376 0 00-.335-1.171 2.4 2.4 0 00-.67-.938 1.554 1.554 0 00-1.036-.368c-.803 0-1.517.29-2.142.87a7.192 7.192 0 00-1.54 2.075c-.4.803-.713 1.65-.936 2.543-.223.893-.335 1.673-.335 2.343 0 1.204.201 2.386.603 3.547-1.648 5.993-5.256 10.871-8.82 15.326a19.574 19.574 0 01-2.944 2.978c-1.07.87-2.23 1.584-3.48 2.141a9.734 9.734 0 01-4.015.837c-1.562 0-2.678-.435-3.347-1.305-.669-.881-1.003-2.075-1.003-3.592 0-.847.11-1.795.334-2.822 1.026-.357 2.141-1.026 3.346-2.007a24.892 24.892 0 003.38-3.391 22.024 22.024 0 002.61-3.96c.691-1.36 1.037-2.61 1.037-3.725 0-1.16-.323-2.13-.97-2.89-.647-.758-1.573-1.137-2.778-1.137-1.784 0-3.424.691-4.919 2.075-1.494 1.383-2.777 3.067-3.848 5.052a28.917 28.917 0 00-2.476 6.19c-.58 2.142-.87 3.972-.87 5.489 0 1.204.134 2.353.402 3.446.267 1.093.702 2.053 1.305 2.878a6.946 6.946 0 002.308 2.008c.938.513 2.075.769 3.414.769 1.83 0 3.591-.301 5.287-.914a20.106 20.106 0 004.751-2.476 23.552 23.552 0 004.05-3.637c3.082-3.475 5.844-7.46 7.68-11.745a47.237 47.237 0 001.172-2.978 28.537 28.537 0 011.64 2.844 35.282 35.282 0 011.505 3.38c.446 1.16.814 2.32 1.104 3.48.29 1.16.436 2.253.436 3.279 0 1.696-.458 3.09-1.372 4.183-.915 1.093-2.265 1.639-4.05 1.639-.892 0-1.717-.089-2.476-.267-.758-.178-1.517-.513-2.275-1.004a29.92 29.92 0 00-.569-.335c-.156-.089-.368-.133-.636-.133-.713 0-1.07.334-1.07 1.003 0 .313.067.581.2.804.134.223.312.446.536.669.981.937 2.22 1.539 3.714 1.807 1.494.267 2.889.401 4.183.401 2.41 0 4.606-.279 6.592-.836 1.985-.558 3.792-1.372 5.42-2.443 1.63-1.071 3.135-2.387 4.518-3.949.453-.51.897-1.042 1.335-1.596-.587 3.196-.881 6.316-.881 9.36 0 .446.111.836.335 1.171.222.334.58.502 1.07.502.625 0 1.172-.223 1.64-.67a5.312 5.312 0 001.104-1.472c.759-1.695 1.54-3.357 2.343-4.986a53.45 53.45 0 012.676-4.785 105.226 105.226 0 012.678-4.082c.981-1.428 2.03-2.677 3.145-3.748.178-.178.424-.402.736-.67.313-.267.58-.401.803-.401.268 0 .435.178.502.536a4.8 4.8 0 01.101.803c0 1.294-.045 2.565-.134 3.814a53.666 53.666 0 00-.134 3.815c0 .848.033 1.785.1 2.811s.268 1.985.603 2.878c.334.892.825 1.639 1.472 2.242.647.602 1.55.903 2.71.903 1.25 0 2.533-.401 3.849-1.205a20.925 20.925 0 003.748-2.944 26.232 26.232 0 002.417-2.721c.028.37.071.764.129 1.182.112.803.312 1.561.603 2.275.29.714.702 1.316 1.238 1.807.535.491 1.204.736 2.007.736.893 0 1.796-.335 2.711-1.004a17.513 17.513 0 002.643-2.409 27.98 27.98 0 002.309-2.911c.692-1.004 1.261-1.84 1.707-2.51-.045.803-.022 1.796.067 2.978.089 1.183.312 2.32.669 3.414.357 1.093.87 2.03 1.539 2.811.669.78 1.562 1.171 2.677 1.171 1.16 0 2.331-.335 3.514-1.004a17.539 17.539 0 003.346-2.477 29.72 29.72 0 002.911-3.145 96.914 96.914 0 002.276-2.945c.223-.356.524-.803.903-1.338s.569-1.004.569-1.406zM58.739 86.577c.446 0 .747.167.903.501.157.335.234.692.234 1.049 0 .892-.245 1.829-.736 2.788a17.7 17.7 0 01-1.807 2.833 17.746 17.746 0 01-2.342 2.488c-.847.736-1.628 1.338-2.342 1.785.089-.58.334-1.517.736-2.789a32.947 32.947 0 011.472-3.837c.58-1.283 1.205-2.41 1.874-3.369.67-.97 1.338-1.45 2.008-1.45z" fill="#fff"/></svg>