<svg width="417" height="438" fill="none" xmlns="http://www.w3.org/2000/svg"><path fill-rule="evenodd" clip-rule="evenodd" d="M194.737 30.352c109.937 4.798 169.532 61.635 203.352 117.634l-2.427 1.452c-33.449-55.384-92.269-111.522-201.049-116.27l.124-2.816z" fill="#fff" fill-opacity=".2"/><path fill-rule="evenodd" clip-rule="evenodd" d="M240.494 37.204c.633 0-12.787-19.963-28.639-25.731l28.639 25.73z" fill="#fff" fill-opacity=".2"/><path fill-rule="evenodd" clip-rule="evenodd" d="M241.358 38.326a1.441 1.441 0 01-.864.287v-2.82a1.4 1.4 0 00-1.33.97 1.304 1.304 0 00-.042.645v.004a.88.88 0 00.044.156l-.004-.007a5.612 5.612 0 00-.279-.499 35.361 35.361 0 00-1.517-2.245c-1.386-1.92-3.465-4.552-6.053-7.364-5.208-5.658-12.339-11.89-19.943-14.657l.972-2.648c8.248 3.002 15.752 9.636 21.059 15.4 2.668 2.9 4.817 5.62 6.264 7.623.722 1 1.28 1.835 1.643 2.436.177.292.33.565.432.788.041.09.123.273.164.485v.002c.014.075.073.378-.041.733a1.427 1.427 0 01-.505.711zm-2.187-.745l-.005-.013a.113.113 0 00.005.013z" fill="#fff" fill-opacity=".2"/><path fill-rule="evenodd" clip-rule="evenodd" d="M213.068 11.94c.042-1.01-1.086-11.88-17.184-9.791l17.184 9.792z" fill="#fff" fill-opacity=".2"/><path fill-rule="evenodd" clip-rule="evenodd" d="M213.567 9.414c.376 1.208.46 2.186.445 2.567l-1.887-.077c.005-.124-.035-.884-.362-1.933a9.469 9.469 0 00-1.942-3.465c-2.032-2.293-5.996-4.438-13.815-3.424l-.244-1.863c8.279-1.074 12.929 1.172 15.475 4.044a11.36 11.36 0 012.33 4.151zm-17.4 21.278c.674.208 8.21 1.39 9.669-9.747l-9.669 9.747z" fill="#fff" fill-opacity=".2"/><path fill-rule="evenodd" clip-rule="evenodd" d="M197.767 31.064c-.846.035-1.472-.08-1.672-.142l.143-.46c.137.042.706.153 1.509.12a7.064 7.064 0 002.852-.724c2.062-1.027 4.275-3.434 4.997-8.944l.48.062c-.737 5.628-3.021 8.198-5.261 9.313a7.546 7.546 0 01-3.048.775zm1.855 1.534c-.277.439-2.972 5.165 4.726 8.305l-4.726-8.305z" fill="#fff" fill-opacity=".2"/><path fill-rule="evenodd" clip-rule="evenodd" d="M198.184 35.862c-.299-1.918.567-3.418.743-3.698l1.389.867c-.1.16-.72 1.242-.512 2.581.196 1.258 1.176 3.035 4.854 4.536l-.622 1.51c-4.019-1.64-5.541-3.796-5.852-5.796zm14.884-23.922c.042-1.01-2.534-1.438-17.184-9.792l17.184 9.793z" fill="#fff" fill-opacity=".2"/><path fill-rule="evenodd" clip-rule="evenodd" d="M212.99 10.383c.485.327 1.055.805 1.022 1.6l-1.887-.079a.369.369 0 00.063.235 1.553 1.553 0 00-.255-.199c-.409-.275-1.126-.655-2.382-1.305l-.521-.27c-2.543-1.312-6.763-3.491-13.615-7.398l.938-1.631c6.818 3.888 11.012 6.053 13.547 7.362l.521.27c1.214.627 2.048 1.065 2.569 1.415zm-.798 1.761l-.004-.005a.039.039 0 01.004.005zm-16.025 18.548c.674.208 1.421-1.438 9.669-9.747l-9.669 9.747z" fill="#fff" fill-opacity=".2"/><path fill-rule="evenodd" clip-rule="evenodd" d="M196.961 30.604c-.299.26-.564.409-.866.316l.143-.46c.035.01.116.032.405-.219.281-.243.684-.677 1.339-1.393l.275-.3a233.017 233.017 0 017.407-7.775l.344.34a233.987 233.987 0 00-7.393 7.759l-.275.3c-.647.708-1.072 1.166-1.379 1.432zm2.661 1.994c-.276.439.761 1.28 5.151 8.703l-5.151-8.703z" fill="#fff" fill-opacity=".2"/><path fill-rule="evenodd" clip-rule="evenodd" d="M198.957 33.46c-.136-.276-.351-.787-.03-1.296l1.389.867a.498.498 0 00.074-.38.912.912 0 00.038.087c.101.204.31.536.708 1.15l.163.251a173.35 173.35 0 014.18 6.747l-1.413.828c-2.04-3.448-3.351-5.467-4.144-6.69l-.164-.251c-.375-.58-.648-1.004-.801-1.314zm1.429-.818l.004.01-.004-.01zm12.682-20.702c.042-1.01-12.475 5.673-17.184-9.792l17.184 9.793z" fill="#fff" fill-opacity=".2"/><path fill-rule="evenodd" clip-rule="evenodd" d="M213.615 11.128c.284.22.409.545.396.854l-1.886-.077a.858.858 0 00.332.708.742.742 0 00.368.157h.001l.026.003c0 .001-.046.002-.167.022-.186.03-.404.075-.679.133-.214.045-.463.098-.761.156-1.274.25-3.09.527-5.086.318-2.008-.21-4.204-.914-6.211-2.625-2.003-1.706-3.751-4.358-4.968-8.353l1.807-.545c1.138 3.738 2.721 6.05 4.389 7.47 1.663 1.418 3.477 2.006 5.181 2.184 1.717.18 3.316-.057 4.524-.293.222-.043.447-.09.66-.135.326-.068.624-.13.844-.166.173-.027.423-.062.657-.036.112.013.35.053.573.225zm-17.448 19.564c.674.208-1.606-9.353 9.669-9.747l-9.669 9.747z" fill="#fff" fill-opacity=".2"/><path fill-rule="evenodd" clip-rule="evenodd" d="M196.369 30.874a.301.301 0 01-.274.047l.144-.46a.187.187 0 00-.164.03.128.128 0 00-.039.044l.001-.003a.907.907 0 00.036-.208c.013-.137.022-.308.033-.514.008-.152.017-.323.029-.515.058-.881.191-2.098.665-3.338.476-1.243 1.296-2.512 2.726-3.493 1.429-.98 3.449-1.661 6.302-1.76l.017.48c-2.784.098-4.708.76-6.044 1.677-1.335.915-2.101 2.098-2.548 3.268-.449 1.173-.578 2.333-.635 3.198-.011.172-.02.337-.028.488-.011.22-.021.411-.036.557a1.31 1.31 0 01-.066.336.384.384 0 01-.119.166zm3.252 1.724c-.276.439 7 1.271 5.151 9.345l-5.151-9.345z" fill="#fff" fill-opacity=".2"/><path fill-rule="evenodd" clip-rule="evenodd" d="M198.851 32.93a.855.855 0 01.076-.765l1.389.867a.766.766 0 00.068-.681.69.69 0 00-.196-.283.507.507 0 00-.048-.037s.015.01.054.028c.087.041.189.084.324.14l.379.16c.64.278 1.547.711 2.411 1.419.87.712 1.701 1.707 2.177 3.098.476 1.39.576 3.112.087 5.25l-1.599-.364c.435-1.9.319-3.309-.04-4.36-.36-1.05-.984-1.805-1.667-2.364-.69-.565-1.434-.926-2.023-1.181-.096-.042-.199-.085-.299-.127a11.541 11.541 0 01-.459-.2 1.687 1.687 0 01-.365-.224.931.931 0 01-.269-.376zm143.632 33.774c.914-1.03 9.525-19.518-9.694-24.973l9.694 24.973z" fill="#fff" fill-opacity=".2"/><path fill-rule="evenodd" clip-rule="evenodd" d="M343.375 66.672a3.068 3.068 0 01-.343.517l-1.098-.965-.002.001s.014-.017.043-.062a3.12 3.12 0 00.121-.203c.098-.173.219-.41.356-.705.273-.588.598-1.388.907-2.342.619-1.911 1.159-4.405 1.094-7.016-.065-2.606-.731-5.303-2.501-7.67-1.766-2.364-4.682-4.464-9.364-5.793l.402-1.403c4.927 1.399 8.142 3.655 10.138 6.325 1.993 2.666 2.72 5.678 2.79 8.505.07 2.822-.512 5.484-1.164 7.5a22.513 22.513 0 01-.972 2.506c-.149.32-.287.592-.407.805zm-148.7-33.082c-.908-1.035-18.212-11.924-26.129 6.343l26.129-6.343z" fill="#fff" fill-opacity=".2"/><path fill-rule="evenodd" clip-rule="evenodd" d="M194.728 32.745c.18.134.354.274.463.399l-1.032.897c.002 0 .001 0 0 0a1.098 1.098 0 00-.059-.054 4.713 4.713 0 00-.189-.148 10.63 10.63 0 00-.66-.444 21.3 21.3 0 00-2.221-1.2c-1.827-.86-4.247-1.718-6.863-1.992-2.611-.273-5.395.037-7.992 1.484-2.593 1.444-5.068 4.06-7 8.518l-1.258-.54c2.026-4.676 4.683-7.55 7.59-9.168 2.902-1.617 5.986-1.945 8.804-1.65 2.813.295 5.385 1.212 7.304 2.114.962.453 1.768.905 2.367 1.28.299.188.55.36.746.504zm1.14-.065c.221-.87-2.152-15.5-19.233-16.774l19.233 16.773z" fill="#fff" fill-opacity=".2"/><path fill-rule="evenodd" clip-rule="evenodd" d="M196.743 32.309c.009.15.018.382-.033.582l-1.684-.425a.428.428 0 00-.013.068c-.001 0 .001-.035-.004-.121a5.587 5.587 0 00-.061-.518 13.706 13.706 0 00-.422-1.776 18.927 18.927 0 00-2.503-5.187c-2.564-3.728-7.197-7.549-15.453-8.164l.13-1.725c8.826.658 13.92 4.788 16.757 8.912a20.673 20.673 0 012.733 5.665c.24.792.39 1.478.474 2.005.042.263.068.494.079.684z" fill="#fff" fill-opacity=".2"/><path fill-rule="evenodd" clip-rule="evenodd" d="M199.852 32.172c-.884-.175-15.367 2.507-15.762 19.555l15.762-19.555z" fill="#fff" fill-opacity=".2"/><path fill-rule="evenodd" clip-rule="evenodd" d="M199.507 31.88c.153-.014.301-.02.404 0l-.117.583c.001 0 0 0 0 0-.004 0-.022-.002-.061-.002-.043 0-.1.004-.172.01a6.56 6.56 0 00-.568.084 14.18 14.18 0 00-1.826.483 18.912 18.912 0 00-5.201 2.692c-3.712 2.729-7.382 7.578-7.577 16.004l-.597-.014c.2-8.622 3.969-13.637 7.819-16.468a19.537 19.537 0 015.367-2.778c.756-.25 1.409-.41 1.905-.503a6.96 6.96 0 01.624-.091zm37.982 25.089c-.303 1.34-10.313 19.117-26.011 6.806l26.011-6.806z" fill="#fff" fill-opacity=".2"/><path fill-rule="evenodd" clip-rule="evenodd" d="M236.598 56.774c.003-.01.004-.01.003-.005l1.778.398a3.313 3.313 0 01-.232.616c-.106.227-.248.501-.423.812a22.86 22.86 0 01-1.484 2.27c-1.267 1.718-3.107 3.763-5.467 5.374-2.366 1.614-5.279 2.808-8.663 2.761-3.389-.046-7.146-1.337-11.195-4.513l1.128-1.425c3.8 2.98 7.18 4.084 10.093 4.124 2.918.04 5.469-.985 7.606-2.444 2.142-1.462 3.842-3.343 5.028-4.95a20.785 20.785 0 001.364-2.086c.158-.28.278-.513.36-.688.066-.143.095-.22.104-.244zm105.885 9.93c.914-1.03-1.435-3.677-9.694-24.973l9.694 24.973z" fill="#fff" fill-opacity=".2"/><path fill-rule="evenodd" clip-rule="evenodd" d="M343.217 65.152c.226.744.324 1.463-.185 2.036l-1.098-.966a.033.033 0 00-.003.008l-.001.001s.004-.012.005-.045c.003-.094-.018-.274-.121-.611-.205-.676-.65-1.723-1.41-3.466l-.318-.727c-1.55-3.55-4.121-9.437-7.98-19.388l1.367-.525c3.848 9.922 6.41 15.788 7.958 19.332l.317.727c.745 1.71 1.233 2.848 1.469 3.624zM194.675 33.589c-.908-1.035-3.848.941-26.129 6.343l26.129-6.343z" fill="#fff" fill-opacity=".2"/><path fill-rule="evenodd" clip-rule="evenodd" d="M193.229 32.713c.769-.127 1.474-.126 1.961.43l-1.032.896-.005-.005-.001-.001m-.923-1.32c-.8.132-1.994.465-3.794.98l3.794-.98zm-3.794.98l-.766.22.766-.22zm-.766.22c-3.731 1.07-9.905 2.842-20.287 5.358l20.287-5.358zm-20.287 5.358l.324 1.325-.324-1.325zm.324 1.325c10.409-2.523 16.605-4.3 20.341-5.373l-20.341 5.373zm20.341-5.373l.766-.22-.766.22zm.766-.22c1.834-.524 2.938-.829 3.641-.945l-3.641.946zm3.641-.945c.351-.058.539-.057.639-.04l-.639.04zm.639-.04a.207.207 0 01.059.015l-.059-.016zm.059.015zm169.725 88.826c-.357-1.202-5.089-.978-34.529-6.675l34.529 6.675z" fill="#fff" fill-opacity=".2"/><path fill-rule="evenodd" clip-rule="evenodd" d="M363.939 121.654c.347.188.684.479.822.943l-1.769.522a.342.342 0 00.102.169l-.038-.022c-.114-.062-.35-.152-.809-.266-.909-.226-2.409-.482-4.88-.888l-1.035-.169c-5.046-.827-13.413-2.198-27.161-4.859l.352-1.803c13.722 2.656 22.069 4.024 27.11 4.85l1.035.169c2.437.401 4.027.67 5.026.918.494.123.917.258 1.245.436zM195.869 32.68c.221-.87-2.774-2.455-18.803-16.68l18.803 16.68z" fill="#fff" fill-opacity=".2"/><path fill-rule="evenodd" clip-rule="evenodd" d="M196.527 31.853c.161.27.286.628.182 1.036l-1.684-.424c-.042.166.013.278.012.278l-.004-.007c-.034-.057-.13-.183-.368-.417-.469-.463-1.29-1.16-2.665-2.312l-.574-.48c-2.804-2.348-7.452-6.24-14.94-12.884l1.156-1.291c7.469 6.628 12.103 10.508 14.902 12.85l.575.482c1.35 1.131 2.238 1.882 2.769 2.406.262.259.489.51.639.763zm3.325.318c-.884-.175-2.319 2.885-15.762 19.555l15.762-19.555z" fill="#fff" fill-opacity=".2"/><path fill-rule="evenodd" clip-rule="evenodd" d="M199.308 32.03c.188-.125.388-.193.603-.15l-.116.583h-.001c-.007-.002-.047-.01-.155.062-.118.078-.278.224-.509.482-.459.511-1.132 1.386-2.21 2.804a346.4 346.4 0 00-.453.596c-2.208 2.907-5.868 7.724-12.143 15.505l-.465-.372c6.269-7.774 9.925-12.587 12.132-15.492l.453-.596c1.071-1.409 1.762-2.307 2.241-2.841.238-.266.44-.46.623-.58zm38.181 24.939c-.303 1.34-3.834.995-26.011 6.806l26.011-6.806z" fill="#fff" fill-opacity=".2"/><path fill-rule="evenodd" clip-rule="evenodd" d="M236.635 56.694a.192.192 0 00-.035.078l1.778.398c-.191.847-.923 1.216-1.666 1.47-.782.27-2.007.545-3.83.944l-.779.17c-3.791.827-10.064 2.195-20.393 4.901l-.464-1.755c10.365-2.716 16.667-4.09 20.466-4.918l.779-.17c1.869-.41 2.969-.661 3.628-.887.346-.119.477-.2.516-.231zm.014-.014c.001 0-.003.005-.014.014.007-.01.013-.014.014-.014zm105.834 10.024c.028-18.434-1.934-15.063-9.694-24.973l9.694 24.973z" fill="#fff" fill-opacity=".2"/><path fill-rule="evenodd" clip-rule="evenodd" d="M341.203 50.679c1.559 2.889 2.028 6.845 2.014 16.03l-1.465-.003c.013-9.249-.485-12.825-1.84-15.337-.678-1.257-1.588-2.279-2.866-3.648l-.337-.36c-1.214-1.297-2.703-2.889-4.497-5.18l1.156-.896c1.752 2.238 3.203 3.788 4.415 5.083l.336.36c1.271 1.361 2.305 2.508 3.084 3.95zM194.675 33.591c-18.359-2.409-15.256-.037-26.13 6.343l26.13-6.343z" fill="#fff" fill-opacity=".2"/><path fill-rule="evenodd" clip-rule="evenodd" d="M178.561 32.828c3.066-1.16 7.055-1.115 16.204.085l-.179 1.352c-9.209-1.208-12.848-1.181-15.538-.163-1.347.51-2.486 1.279-4.016 2.364l-.402.286c-1.448 1.03-3.225 2.294-5.736 3.767l-.695-1.175c2.457-1.441 4.19-2.674 5.637-3.703l.402-.285c1.52-1.08 2.791-1.949 4.323-2.528zm185.316 90.033c-19.657-9.993-17.651-6.786-34.529-6.676l34.529 6.676z" fill="#fff" fill-opacity=".2"/><path fill-rule="evenodd" clip-rule="evenodd" d="M345.667 114.818c4.258.454 8.812 2.231 18.629 7.221l-.839 1.636c-9.841-5.003-14.112-6.618-17.986-7.031-1.944-.208-3.817-.115-6.314.045l-.657.043c-2.369.154-5.264.343-9.148.368l-.012-1.837c3.828-.025 6.674-.21 9.041-.364l.657-.042c2.488-.16 4.508-.266 6.629-.039zM237.489 56.969c-14.992 10.82-13.397 7.262-26.011 6.806l26.011-6.806z" fill="#fff" fill-opacity=".2"/><path fill-rule="evenodd" clip-rule="evenodd" d="M223.471 63.701c2.787-.37 5.955-2.033 13.483-7.467l1.07 1.47c-7.463 5.386-10.994 7.354-14.311 7.796-1.657.22-3.218.054-5.069-.174l-.49-.06c-1.764-.22-3.869-.481-6.709-.584l.066-1.813c2.923.105 5.099.376 6.866.596l.49.06c1.866.23 3.209.362 4.604.176zm119.012 3.003c-2.237-9.768-12.324-7.455-9.694-24.973l9.694 24.973z" fill="#fff" fill-opacity=".2"/><path fill-rule="evenodd" clip-rule="evenodd" d="M338.104 58.451c2.016 1.997 4.193 4.154 5.094 8.09l-1.428.324c-.799-3.487-2.592-5.27-4.543-7.209-.649-.645-1.315-1.307-1.969-2.056-1.291-1.479-2.442-3.237-3.088-5.773-.642-2.522-.771-5.765-.105-10.206l1.45.216c-.649 4.318-.504 7.355.076 9.632.575 2.262 1.592 3.821 2.773 5.174.54.618 1.133 1.206 1.74 1.808zM194.675 33.59c-10.02.946-9.019 11.203-26.13 6.342l26.13-6.342z" fill="#fff" fill-opacity=".2"/><path fill-rule="evenodd" clip-rule="evenodd" d="M185.925 36.88c2.249-1.73 4.664-3.59 8.686-3.97l.129 1.358c-3.592.339-5.612 1.889-7.799 3.566-.725.556-1.468 1.127-2.293 1.672-1.636 1.08-3.528 1.986-6.129 2.295-2.587.307-5.828.017-10.161-1.214l.376-1.311c4.222 1.2 7.272 1.45 9.623 1.171 2.337-.277 4.029-1.083 5.534-2.077.689-.456 1.354-.967 2.034-1.49zm177.952 85.979c-12.245-3.707-17.962 4.657-34.529-6.675l34.529 6.675z" fill="#fff" fill-opacity=".2"/><path fill-rule="evenodd" clip-rule="evenodd" d="M351.613 121.209c3.753-.339 7.693-.695 12.532.77l-.537 1.757c-4.463-1.351-7.945-1.039-11.624-.71-1.203.108-2.427.217-3.713.271-5.227.22-10.996-.577-19.447-6.358l1.045-1.513c8.116 5.552 13.49 6.239 18.324 6.036 1.137-.047 2.27-.15 3.42-.253zm-114.124-64.24c-9.264 3.916-13.289-5.577-26.011 6.806l26.011-6.806z" fill="#fff" fill-opacity=".2"/><path fill-rule="evenodd" clip-rule="evenodd" d="M228.731 56.685c2.709.436 5.146.828 8.402-.548l.713 1.67c-3.785 1.6-6.882 1.096-9.696.637-.839-.136-1.652-.269-2.451-.34-1.774-.159-3.609-.067-5.756.78-2.164.855-4.702 2.501-7.828 5.543l-1.274-1.297c3.236-3.15 5.972-4.962 8.43-5.932 2.475-.978 4.61-1.079 6.591-.902 1.015.09 1.957.243 2.869.39zm113.752 10.019c.914-1.03-20.98-9.229-9.694-24.973l9.694 24.973z" fill="#fff" fill-opacity=".2"/><path fill-rule="evenodd" clip-rule="evenodd" d="M343.204 66.374a.84.84 0 01-.171.815l-1.099-.966a.614.614 0 00-.13.58.39.39 0 00.054.115l-.005-.005a3.004 3.004 0 00-.417-.34 37.12 37.12 0 00-1.252-.841c-.253-.165-.528-.346-.823-.542-1.758-1.166-4.113-2.816-6.146-4.951-2.033-2.134-3.787-4.799-4.268-7.999-.485-3.22.337-6.873 3.246-10.931l1.193.847c-2.734 3.813-3.408 7.091-2.99 9.868.421 2.797 1.967 5.2 3.882 7.211 1.916 2.012 4.157 3.589 5.895 4.742.269.178.53.349.776.51.534.35 1.002.656 1.348.906.247.178.487.367.652.552.078.087.195.234.255.429zm-1.342.55l-.004-.006.004.006zM194.675 33.593c-.908-1.035-11.904 19.517-26.13 6.342l26.13-6.342z" fill="#fff" fill-opacity=".2"/><path fill-rule="evenodd" clip-rule="evenodd" d="M194.445 32.883a.8.8 0 01.745.26l-1.031.896a.57.57 0 00.516.188.379.379 0 00.097-.027 3.04 3.04 0 00-.4.375c-.27.284-.601.666-1.002 1.13-.197.228-.412.475-.645.74-1.388 1.584-3.333 3.693-5.718 5.42-2.384 1.728-5.256 3.11-8.492 3.171-3.256.062-6.776-1.214-10.436-4.604l.933-.998c3.452 3.198 6.642 4.293 9.477 4.239 2.854-.054 5.456-1.275 7.712-2.91 2.256-1.634 4.119-3.646 5.492-5.214l.61-.7c.417-.482.782-.903 1.074-1.211.21-.22.425-.43.626-.566.096-.065.25-.156.442-.189zm.342 1.308l-.006.003a.037.037 0 01.006-.003zm169.09 88.67c-.358-1.202-27.406 8.709-35.055-7.767l35.055 7.767zm0 0c-.358-1.202-13.9-17.208-35.323-6.607l35.323 6.607z" fill="#fff" fill-opacity=".2"/><path fill-rule="evenodd" clip-rule="evenodd" d="M364.436 121.94c.12.175.277.418.346.651l.457 1.532-1.893-.419a8.666 8.666 0 00-.617.08 67.24 67.24 0 00-1.988.361l-1.243.234c-2.718.505-6.427 1.127-10.381 1.263-7.837.271-17.07-1.364-21.151-10.156l-.8-1.724 3.07.68c10.046-4.287 18.343-2.91 24.277-.164 3.156 1.46 5.63 3.3 7.343 4.857a21.76 21.76 0 012.004 2.058c.237.282.431.535.576.747zm-33.797-5.483c3.927 6.181 11.35 7.551 18.412 7.307 3.534-.122 6.885-.647 9.502-1.122l-27.914-6.185zm2.928-1.277c8.331-2.813 15.165-1.505 20.15.802a27.488 27.488 0 016.866 4.541c.322.293.614.574.875.837l-27.891-6.18zM195.868 32.678c.221-.87-20.015-4.736-18.67-17.662l18.67 17.662z" fill="#fff" fill-opacity=".2"/><path fill-rule="evenodd" clip-rule="evenodd" d="M196.459 31.99c.092.097.371.427.251.9l-1.684-.425a.765.765 0 00.175.718.407.407 0 00.057.051l-.018-.01a4.314 4.314 0 00-.493-.224c-.348-.14-.798-.306-1.344-.507-.262-.096-.547-.2-.852-.315-1.856-.69-4.372-1.677-6.861-3.055-4.923-2.724-10.086-7.179-9.356-14.197l1.729.178c-.615 5.908 3.667 9.85 8.471 12.508 2.373 1.313 4.79 2.263 6.625 2.946l.809.3c.565.207 1.059.388 1.433.54.269.108.524.22.718.334.092.053.225.138.34.259zm-1.198 1.247l-.003-.003.003.003zm4.591-1.064c-.884-.175-2.724 20.224-15.762 19.555l15.762-19.555z" fill="#fff" fill-opacity=".2"/><path fill-rule="evenodd" clip-rule="evenodd" d="M199.543 32.019c.053-.059.181-.174.368-.137l-.117.583a.235.235 0 00.15-.02.12.12 0 00.046-.032l-.013.02a.683.683 0 00-.033.064 4.67 4.67 0 00-.202.578c-.107.361-.229.829-.375 1.386l-.228.864c-.502 1.881-1.227 4.412-2.336 6.93-2.21 5.018-6.009 10.115-12.727 9.77l.03-.593c6.32.324 9.96-4.444 12.15-9.415 1.091-2.476 1.806-4.97 2.306-6.844.08-.299.154-.583.224-.849a47.72 47.72 0 01.384-1.417c.081-.271.157-.5.233-.66a.949.949 0 01.14-.228zm37.946 24.951c-.303 1.34-19.802-11.522-26.011 6.806l26.011-6.806z" fill="#fff" fill-opacity=".2"/><path fill-rule="evenodd" clip-rule="evenodd" d="M237.113 56.197a.795.795 0 00-.513.574l1.778.4a1.023 1.023 0 01-.68.744c-.23.078-.448.067-.574.054-.268-.026-.578-.116-.869-.21-.41-.134-.94-.335-1.54-.562l-.864-.325c-1.953-.725-4.535-1.605-7.274-1.97-2.739-.364-5.559-.202-8.039 1.074-2.457 1.264-4.704 3.687-6.196 8.091l-1.728-.58c1.613-4.76 4.131-7.602 7.086-9.123 2.932-1.509 6.17-1.652 9.119-1.26 2.95.393 5.688 1.332 7.67 2.068.336.125.646.242.929.35.571.216 1.037.392 1.405.512.281.092.426.124.482.13a.572.572 0 00-.192.033zm.193-.033h-.001.001zm52.02-23.431c.378-1.644 1.854-19.807-25.178-21.264l25.178 21.264z" fill="#fff" fill-opacity=".2"/><path fill-rule="evenodd" clip-rule="evenodd" d="M287.813 21.557c3.111 5.177 2.648 10.383 2.418 11.383l-1.809-.412c.148-.645.612-5.342-2.202-10.022-2.767-4.603-8.833-9.398-22.122-10.114l.1-1.845c13.745.74 20.456 5.756 23.615 11.01z" fill="#fff" fill-opacity=".2"/><path fill-rule="evenodd" clip-rule="evenodd" d="M289.326 32.733c.378-1.644-3.715-3.126-25.178-21.264l25.178 21.264z" fill="#fff" fill-opacity=".2"/><path fill-rule="evenodd" clip-rule="evenodd" d="M289.222 30.611c.683.67 1.223 1.399 1.01 2.33l-1.81-.413c0 .003-.001.01.001.02v.005a.139.139 0 00-.018-.046c-.05-.098-.177-.277-.486-.58-.618-.607-1.714-1.475-3.562-2.911l-.771-.6c-3.765-2.921-10.01-7.767-20.038-16.242l1.201-1.408c9.999 8.45 16.22 13.278 19.979 16.194l.771.6c1.811 1.407 3.01 2.35 3.723 3.051z" fill="#fff" fill-opacity=".2"/><path fill-rule="evenodd" clip-rule="evenodd" d="M284.76 28.156c-8.021.144-10.72.639-12.312.639l12.312-.639z" fill="#fff" fill-opacity=".2"/><path fill-rule="evenodd" clip-rule="evenodd" d="M276.123 27.606c1.893-.143 4.591-.303 8.62-.376l.034 1.848c-3.992.071-6.654.23-8.513.37-.584.044-1.099.088-1.558.126-.969.082-1.686.142-2.257.142l-.001-1.847c.492 0 1.088-.05 1.986-.126.471-.04 1.024-.087 1.689-.137zm2.936-3.59c-6.857.144-9.165.638-10.526.638l10.526-.638z" fill="#fff" fill-opacity=".2"/><path fill-rule="evenodd" clip-rule="evenodd" d="M271.654 23.474c1.623-.143 3.935-.304 7.386-.376l.039 1.836c-3.407.072-5.678.23-7.262.37-.487.043-.922.086-1.312.124-.839.083-1.47.145-1.972.145v-1.837c.409 0 .9-.048 1.656-.123.403-.04.882-.087 1.465-.139zm1.889-4.24c-4.959.144-6.629.639-7.613.639l7.613-.639z" fill="#fff" fill-opacity=".2"/><path fill-rule="evenodd" clip-rule="evenodd" d="M268.133 18.688c1.187-.145 2.873-.307 5.383-.38l.054 1.852c-2.449.072-4.078.229-5.211.367-.379.046-.696.09-.979.128-.148.02-.287.04-.421.057a8.183 8.183 0 01-1.028.087l-.001-1.852c.179 0 .414-.023.787-.072l.389-.052c.291-.04.636-.087 1.027-.135z" fill="#fff" fill-opacity=".2"/><path fill-rule="evenodd" clip-rule="evenodd" d="M289.326 32.733c.378-1.644-22.188 5.519-25.178-21.264l25.178 21.264z" fill="#fff" fill-opacity=".2"/><path fill-rule="evenodd" clip-rule="evenodd" d="M289.989 31.99c.248.277.315.632.242.95l-1.809-.412a.783.783 0 00.18.69c.072.08.144.126.186.15a.391.391 0 00.078.033c.009.003-.017-.005-.1-.014a4.059 4.059 0 00-.313-.017c-.326-.008-.722.002-1.21.014-.366.009-.784.019-1.261.024-2.142.022-5.13-.074-8.246-.994-3.128-.924-6.392-2.681-9.061-5.974-2.667-3.289-4.687-8.042-5.449-14.869l1.844-.204c.733 6.565 2.655 10.96 5.049 13.912 2.39 2.949 5.305 4.525 8.145 5.364 2.852.842 5.622.939 7.698.917.403-.004.796-.013 1.161-.022a32.817 32.817 0 011.374-.015c.293.007.634.026.914.112.136.042.38.134.578.355z" fill="#fff" fill-opacity=".2"/><path fill-rule="evenodd" clip-rule="evenodd" d="M316.579 66.008c.633 0-14.309-26.493-28.638-34.25l28.638 34.25z" fill="#fff" fill-opacity=".2"/><path fill-rule="evenodd" clip-rule="evenodd" d="M317.62 66.972a1.436 1.436 0 01-1.041.446v-2.82a1.402 1.402 0 00-1.375 1.138c-.046.253-.004.449 0 .471l.001.002c.009.045.018.072.018.073l-.02-.053a9.827 9.827 0 00-.349-.738 58.96 58.96 0 00-1.689-3.03 135.453 135.453 0 00-6.446-9.85c-5.44-7.582-12.599-15.903-19.455-19.615l1.353-2.477c7.474 4.046 14.951 12.85 20.406 20.454a138.32 138.32 0 016.585 10.061 62.419 62.419 0 011.773 3.184c.194.381.352.715.454.97.045.113.11.286.146.467l.001.002c.013.064.06.3.008.586a1.428 1.428 0 01-.37.729z" fill="#fff" fill-opacity=".2"/><path fill-rule="evenodd" clip-rule="evenodd" d="M316.579 66.008c.633 0-14.309-26.493-28.638-34.25l28.638 34.25z" fill="#fff" fill-opacity=".2"/><path fill-rule="evenodd" clip-rule="evenodd" d="M317.62 66.972a1.436 1.436 0 01-1.041.446v-2.82a1.402 1.402 0 00-1.375 1.138c-.046.253-.004.449 0 .471l.001.002c.009.045.018.072.018.073l-.02-.053a9.827 9.827 0 00-.349-.738 58.96 58.96 0 00-1.689-3.03 135.453 135.453 0 00-6.446-9.85c-5.44-7.582-12.599-15.903-19.455-19.615l1.353-2.477c7.474 4.046 14.951 12.85 20.406 20.454a138.32 138.32 0 016.585 10.061 62.419 62.419 0 011.773 3.184c.194.381.352.715.454.97.045.113.11.286.146.467l.001.002c.013.064.06.3.008.586a1.428 1.428 0 01-.37.729zm39.537 30.108c.633 0-7.086-15.534-14.329-31.068l14.329 31.068z" fill="#fff" fill-opacity=".2"/><path fill-rule="evenodd" clip-rule="evenodd" d="M358.3 97.926a1.445 1.445 0 01-1.143.559v-2.82a1.39 1.39 0 00-1.097.537 1.33 1.33 0 00-.279.901.586.586 0 00.01.07 5.187 5.187 0 00-.104-.317 33.253 33.253 0 00-.781-1.885c-.739-1.68-1.863-4.09-3.241-7.004-.915-1.933-1.941-4.085-3.035-6.382a1973.786 1973.786 0 01-7.087-14.984l2.569-1.187c2.413 5.175 4.876 10.344 7.068 14.945 1.097 2.302 2.126 4.46 3.047 6.407 1.377 2.912 2.517 5.355 3.273 7.074.376.854.67 1.558.852 2.06.086.238.171.495.216.722.018.087.062.317.029.582-.017.131-.069.43-.297.722zm-65.922-20.422c.237.426 3.438 4.614 9.532-.262l-9.532.262z" fill="#fff" fill-opacity=".2"/><path fill-rule="evenodd" clip-rule="evenodd" d="M294.71 80.128c-1.833-.565-2.841-1.883-3.036-2.234l1.409-.779.002.002c.009.014.052.08.14.184a4.244 4.244 0 001.962 1.294c1.275.394 3.326.337 6.218-1.978l1.01 1.25c-3.201 2.562-5.797 2.85-7.705 2.261zm-.546 2.352c-.35.088-3.954 1.568-1.614 6.813l1.614-6.813z" fill="#fff" fill-opacity=".2"/><path fill-rule="evenodd" clip-rule="evenodd" d="M293.287 82.62c.37-.247.689-.37.813-.401l.131.518a2.615 2.615 0 00-.646.327 3.448 3.448 0 00-1.008 1.028c-.594.943-.924 2.527.219 5.09l-.491.216c-1.196-2.682-.894-4.46-.183-5.59a3.99 3.99 0 011.165-1.189zm16.408 17.711c-.678-.483-9.172-3.808-14.966 8.137l14.966-8.137z" fill="#fff" fill-opacity=".2"/><path fill-rule="evenodd" clip-rule="evenodd" d="M309.276 99.573c.319.117.579.241.721.342l-.601.838-.009-.006-.029-.017a4.143 4.143 0 00-.442-.193 7.495 7.495 0 00-1.13-.31 9.033 9.033 0 00-3.55.019c-2.747.563-6.2 2.593-9.041 8.449l-.931-.448c2.954-6.089 6.645-8.37 9.763-9.01a10.096 10.096 0 013.96-.02c.518.102.955.232 1.289.356zm-16.898-22.069c.237.426 1.404-.041 9.532-.262l-9.532.262z" fill="#fff" fill-opacity=".2"/><path fill-rule="evenodd" clip-rule="evenodd" d="M292.787 78.473c-.291-.014-.828-.07-1.113-.582l1.409-.779a.503.503 0 00-.303-.25c.013.003.04.006.083.008.212.01.578-.01 1.267-.058l.282-.019c1.377-.095 3.667-.252 7.476-.356l.044 1.605c-3.776.102-6.04.258-7.41.352l-.282.02c-.648.044-1.125.074-1.453.059zm-.019-1.612l.012.002a.104.104 0 01-.012-.002zm1.396 5.619c-.35.088-.236 1.004-1.614 6.813l1.614-6.813z" fill="#fff" fill-opacity=".2"/><path fill-rule="evenodd" clip-rule="evenodd" d="M293.703 82.682c.062-.196.158-.404.396-.463l.131.518a.076.076 0 00.036-.02.516.516 0 00-.052.126c-.054.17-.113.457-.208.946l-.039.204c-.193.995-.512 2.644-1.156 5.358l-.522-.122c.642-2.704.959-4.345 1.151-5.337l.039-.204c.093-.476.158-.799.224-1.006zm.565.033l-.002.003.002-.003zm15.428 17.62c-.679-.483-2.131 1.087-14.48 7.348l14.48-7.348z" fill="#fff" fill-opacity=".2"/><path fill-rule="evenodd" clip-rule="evenodd" d="M308.684 99.924c.437-.183.9-.302 1.313-.008l-.602.837a.117.117 0 00.03.015c-.031.001-.127.015-.342.105-.39.163-.99.491-1.997 1.055l-.42.235c-2.048 1.148-5.444 3.052-11.215 5.978l-.47-.917c5.752-2.917 9.135-4.813 11.178-5.958l.42-.235c.984-.551 1.646-.916 2.105-1.107zm.754.845c0 .001-.005.001-.013-.001a.04.04 0 01.013.001z" fill="#fff" fill-opacity=".2"/><path fill-rule="evenodd" clip-rule="evenodd" d="M306.74 101.527c-1.456 3.654-1.743 4.968-2.044 5.688l2.044-5.688z" fill="#fff" fill-opacity=".2"/><path fill-rule="evenodd" clip-rule="evenodd" d="M304.795 105.311c.294-.884.733-2.135 1.466-3.971l.96.379a71.055 71.055 0 00-1.445 3.916c-.09.27-.167.511-.237.725a14.76 14.76 0 01-.366 1.055l-.954-.396c.092-.22.181-.495.316-.913.071-.221.156-.481.26-.795zm-1.025-1.991c-1.236 3.128-1.448 4.265-1.706 4.881l1.706-4.881z" fill="#fff" fill-opacity=".2"/><path fill-rule="evenodd" clip-rule="evenodd" d="M302.082 106.554c.243-.762.608-1.839 1.231-3.413l.913.357a51.237 51.237 0 00-1.399 3.965 10.69 10.69 0 01-.311.925l-.906-.377c.077-.183.147-.411.256-.765.059-.191.128-.417.216-.692zm-1.54-1.648c-.876 2.27-.967 3.118-1.154 3.563l1.154-3.563z" fill="#fff" fill-opacity=".2"/><path fill-rule="evenodd" clip-rule="evenodd" d="M299.266 107.252c.159-.564.405-1.357.848-2.506l.854.327a26.734 26.734 0 00-.948 2.892l-.055.201c-.048.178-.095.34-.155.482l-.844-.351a3.28 3.28 0 00.117-.369l.05-.187c.037-.139.081-.304.133-.489zm-6.888-29.75c.237.426 3.701-5.445 9.532-.262l-9.532.262z" fill="#fff" fill-opacity=".2"/><path fill-rule="evenodd" clip-rule="evenodd" d="M292.32 78.323a.846.846 0 01-.646-.43l1.409-.778a.766.766 0 00-.583-.386.717.717 0 00-.378.057.432.432 0 00-.067.038l.038-.031c.065-.056.133-.12.224-.205.076-.071.167-.157.287-.266.47-.429 1.177-1.024 2.098-1.458a5.742 5.742 0 013.421-.5c1.334.215 2.78.907 4.324 2.28l-1.074 1.196c-1.371-1.22-2.545-1.737-3.507-1.892a4.129 4.129 0 00-2.474.366c-.704.332-1.271.8-1.7 1.191l-.222.207a11.1 11.1 0 01-.329.3c-.064.055-.191.16-.342.23a.906.906 0 01-.479.081zm1.844 4.157c-.35.088 3.2 3.656-1.614 6.813l1.614-6.813z" fill="#fff" fill-opacity=".2"/><path fill-rule="evenodd" clip-rule="evenodd" d="M293.893 82.399a.297.297 0 01.206-.18l.131.518a.24.24 0 00.163-.144.198.198 0 00.013-.105l-.001-.002c.001 0 .006.018.029.064.029.062.068.133.117.222.037.068.08.147.128.24.213.404.488.984.616 1.672.129.692.11 1.493-.266 2.33-.375.838-1.096 1.689-2.331 2.5l-.296-.447c1.172-.768 1.813-1.547 2.137-2.27a3.33 3.33 0 00.228-2.015c-.113-.61-.359-1.135-.563-1.523a27.728 27.728 0 00-.115-.213c-.055-.102-.105-.194-.139-.264a.828.828 0 01-.073-.202.338.338 0 01.016-.181zm15.803 17.936c-.678-.483-1.256 11.285-14.042 7.554l14.042-7.554z" fill="#fff" fill-opacity=".2"/><path fill-rule="evenodd" clip-rule="evenodd" d="M309.45 99.842a.583.583 0 01.546.073l-.601.838a.453.453 0 00.544-.021.316.316 0 00.04-.041l-.001.001a1.3 1.3 0 00-.075.169c-.058.146-.119.325-.194.546-.059.173-.127.372-.209.601-.355.994-.912 2.361-1.873 3.631-.965 1.275-2.342 2.457-4.329 3.066-1.983.608-4.523.63-7.791-.324l.291-.987c3.126.912 5.453.862 7.196.328 1.738-.533 2.946-1.563 3.808-2.703.866-1.145 1.381-2.396 1.724-3.356.067-.189.131-.375.191-.549.084-.247.16-.467.223-.629.053-.133.122-.294.214-.415a.666.666 0 01.296-.228zm-19.215-21.599c.045-.951-3.369-14.657-16.127-9.296l16.127 9.296z" fill="#fff" fill-opacity=".2"/><path fill-rule="evenodd" clip-rule="evenodd" d="M291.133 77.765c.027.154.054.35.046.52l-1.886-.087-.001.024s-.003-.042-.02-.144a6.732 6.732 0 00-.109-.502 13.978 13.978 0 00-.515-1.607c-.488-1.27-1.262-2.802-2.395-4.136-1.129-1.329-2.593-2.436-4.473-2.921-1.874-.485-4.266-.378-7.304.898l-.734-1.73c3.341-1.405 6.16-1.595 8.512-.987 2.347.606 4.126 1.98 5.44 3.526 1.31 1.542 2.178 3.278 2.717 4.679.27.703.461 1.331.584 1.823.062.246.108.464.138.644zm.14.592c.529-.33 6.558-8.529-1.375-17.318l1.375 17.318z" fill="#fff" fill-opacity=".2"/><path fill-rule="evenodd" clip-rule="evenodd" d="M291.723 78.46a1.27 1.27 0 01-.245.223l-.412-.657c-.005.003-.007.005-.008.004 0 0 .025-.022.081-.084a4.36 4.36 0 00.237-.298c.189-.258.427-.625.677-1.086.5-.924 1.04-2.216 1.322-3.763.562-3.08.114-7.204-3.767-11.504l.579-.518c4.052 4.49 4.556 8.86 3.954 12.16a13.589 13.589 0 01-1.402 3.993c-.266.49-.523.887-.734 1.175a5.21 5.21 0 01-.282.354zm3.109 2.804c-.358-.509-8.896-6.079-17.303 2.262l17.303-2.262z" fill="#fff" fill-opacity=".2"/><path fill-rule="evenodd" clip-rule="evenodd" d="M295.187 80.47c.083.064.225.181.324.322l-1.357.945a.533.533 0 00.055.066s-.015-.014-.053-.044a3.551 3.551 0 00-.278-.196 9.213 9.213 0 00-1.072-.588 12.52 12.52 0 00-3.712-1.081c-2.993-.383-6.969.237-10.98 4.216l-1.169-1.168c4.397-4.362 8.893-5.127 12.36-4.683 1.717.22 3.164.733 4.21 1.226.523.247.952.492 1.269.698.158.103.294.2.403.286zm-4.952-2.228c.045-.951-2.378-1.366-16.127-9.297l16.127 9.297z" fill="#fff" fill-opacity=".2"/><path fill-rule="evenodd" clip-rule="evenodd" d="M290.201 76.728c.456.31 1.014.778.978 1.558l-1.886-.087a.39.39 0 00.071.259 1.507 1.507 0 00-.228-.178c-.38-.259-1.05-.619-2.231-1.237l-.488-.255c-2.388-1.248-6.35-3.32-12.782-7.03l.947-1.625c6.398 3.69 10.334 5.748 12.713 6.991l.489.256c1.138.596 1.925 1.013 2.417 1.348zm-.833 1.734l-.004-.004a.039.039 0 01.004.004zm1.905-.105c.529-.33-.206-2.551-1.375-17.318l1.375 17.318z" fill="#fff" fill-opacity=".2"/><path fill-rule="evenodd" clip-rule="evenodd" d="M291.792 78.211a.726.726 0 01-.314.474l-.413-.657c-.031.02-.041.041-.041.041s.004-.009.009-.033c.017-.072.029-.203.023-.438-.013-.466-.089-1.217-.222-2.445l-.055-.514a426.454 426.454 0 01-1.27-13.57l.776-.061c.545 6.884.996 11.039 1.268 13.548l.055.514c.132 1.214.213 2.003.226 2.508.006.25-.002.462-.042.633zm3.04 3.052c-.358-.51-2.549.336-17.303 2.261l17.303-2.261z" fill="#fff" fill-opacity=".2"/><path fill-rule="evenodd" clip-rule="evenodd" d="M294.737 80.323c.25.045.56.163.774.467l-1.357.945c.125.178.288.21.292.211l-.021-.002a3.016 3.016 0 00-.308.008c-.445.035-1.173.146-2.407.343l-.513.081a433.086 433.086 0 01-13.56 1.966l-.215-1.635a432.669 432.669 0 0014.026-2.04c1.204-.192 2.012-.317 2.54-.358.26-.02.518-.027.749.014zm-4.501-2.081c-8.025-9.967-7.615-7.299-16.128-9.297l16.128 9.297z" fill="#fff" fill-opacity=".2"/><path fill-rule="evenodd" clip-rule="evenodd" d="M282.723 69.74c2.219.937 4.262 2.964 8.249 7.915l-1.473 1.175c-4.039-5.016-5.803-6.638-7.513-7.36-.856-.36-1.741-.513-3.032-.7l-.338-.05c-1.223-.175-2.738-.393-4.725-.86l.434-1.829c1.903.447 3.345.654 4.563.83l.339.049c1.277.185 2.388.363 3.496.83z" fill="#fff" fill-opacity=".2"/><path fill-rule="evenodd" clip-rule="evenodd" d="M290.236 78.242c-5.469-4.308-9.908 1.3-16.128-9.297l16.128 9.297z" fill="#fff" fill-opacity=".2"/><path fill-rule="evenodd" clip-rule="evenodd" d="M284.252 75.238c1.976.207 4.257.447 6.57 2.268l-1.172 1.474c-1.846-1.455-3.437-1.626-5.301-1.827-.647-.07-1.327-.143-2.062-.275-1.392-.25-2.849-.722-4.371-1.863-1.507-1.13-3.027-2.876-4.622-5.594l1.63-.948c1.514 2.58 2.882 4.107 4.127 5.04 1.231.923 2.391 1.304 3.57 1.515.514.093 1.06.15 1.631.21z" fill="#fff" fill-opacity=".2"/><path fill-rule="evenodd" clip-rule="evenodd" d="M290.236 78.242c.044-.951-15.355 4.084-16.128-9.297l16.128 9.297z" fill="#fff" fill-opacity=".2"/><path fill-rule="evenodd" clip-rule="evenodd" d="M290.725 77.39c.246.166.473.478.454.894l-1.886-.086a.857.857 0 00.374.749.733.733 0 00.178.089c.037.012.062.016.068.017h.003l-.066-.002c-.053-.001-.124 0-.216.005-.262.013-.593.044-1.009.084l-.698.065c-1.464.13-3.496.26-5.575-.02-2.079-.281-4.286-.984-6.031-2.586-1.765-1.62-2.95-4.062-3.155-7.6l1.885-.108c.182 3.151 1.212 5.098 2.55 6.326 1.358 1.247 3.142 1.854 5.005 2.106 1.861.251 3.719.138 5.153.01l.625-.058c.448-.043.851-.081 1.157-.096.213-.01.467-.016.687.021.102.018.302.06.497.19z" fill="#fff" fill-opacity=".2"/><path fill-rule="evenodd" clip-rule="evenodd" d="M291.273 78.357c.53-.33-8.273-11.492-1.374-17.318l1.374 17.318z" fill="#fff" fill-opacity=".2"/><path fill-rule="evenodd" clip-rule="evenodd" d="M291.685 78.279a.45.45 0 01-.206.402l-.413-.657a.323.323 0 00-.159.277l.001.019-.009-.03a2.99 2.99 0 00-.164-.363c-.117-.23-.276-.52-.467-.868l-.299-.548c-.646-1.189-1.492-2.818-2.139-4.627-1.283-3.591-1.832-8.065 1.816-11.146l.504.591c-3.25 2.745-2.847 6.766-1.586 10.295.626 1.751 1.449 3.339 2.09 4.518l.289.53c.196.356.365.664.487.906.089.175.165.337.208.468a.832.832 0 01.047.233zm3.147 2.983c-.358-.509-11.102 8.819-17.303 2.262l17.303-2.262z" fill="#fff" fill-opacity=".2"/><path fill-rule="evenodd" clip-rule="evenodd" d="M294.703 80.425c.124-.01.539-.015.809.368l-1.357.946a.767.767 0 00.682.329.52.52 0 00.112-.02c-.039.014-.13.059-.297.154-.218.124-.491.291-.826.496l-.544.333c-1.164.705-2.778 1.646-4.592 2.395-3.57 1.475-8.282 2.347-11.763-1.333l1.206-1.13c2.721 2.876 6.481 2.362 9.922.94 1.693-.699 3.219-1.585 4.365-2.28.175-.107.345-.21.506-.31.351-.215.662-.405.905-.543.173-.098.355-.196.517-.258.074-.03.203-.075.355-.087zm.253 1.62l-.007.002a.052.052 0 01.007-.002zm62.201 15.032c.632 0-54.138-2.805-61.382-18.339l61.382 18.339z" fill="#fff" fill-opacity=".2"/><path fill-rule="evenodd" clip-rule="evenodd" d="M357.197 98.49h-.04v-2.82l-.035.001a2.6 2.6 0 00-.115.008c-.124.02-1.115.777-1.166 1.908.347.516.964.857 1.047.876l.093.015.03.003.012.001h-.014l-.048-.004-.404-.027a258.867 258.867 0 01-7.844-.65c-5.183-.507-12.238-1.347-19.548-2.678-7.299-1.329-14.91-3.156-21.18-5.654-6.178-2.461-11.435-5.718-13.494-10.134l2.569-1.187c1.563 3.352 5.869 6.27 11.977 8.704 6.017 2.397 13.417 4.183 20.637 5.498 7.209 1.312 14.181 2.143 19.316 2.647a255.885 255.885 0 007.755.641l.408.027.112.009.037.003.036.004.097.016c.083.019.701.36 1.048.876-.051 1.13-1.043 1.89-1.167 1.908a1.694 1.694 0 01-.119.008z" fill="#fff" fill-opacity=".2"/><path fill-rule="evenodd" clip-rule="evenodd" d="M357.157 97.08c.633 0-40.559-3.998-48.594 4.336l48.594-4.337z" fill="#fff" fill-opacity=".2"/><path fill-rule="evenodd" clip-rule="evenodd" d="M357.305 98.48c-.076.008-.137.008-.149.008V95.67h-.001c-.01 0-.065 0-.136.007a2.562 2.562 0 00-.287.06c-.252.108-.917.913-.939 1.697.203.442.671.87.806.937a1.345 1.345 0 00.298.091h.001a1.239 1.239 0 00.024.005 82.771 82.771 0 00-1.464-.139 203.572 203.572 0 00-4.586-.336c-3.878-.243-9.186-.48-14.757-.46-5.579.021-11.379.302-16.256 1.082-2.439.39-4.609.9-6.39 1.547-1.798.654-3.093 1.41-3.885 2.231l-2.043-1.952c1.217-1.262 2.967-2.204 4.957-2.927 2.008-.73 4.368-1.275 6.912-1.682 5.086-.814 11.051-1.096 16.695-1.118 5.652-.021 11.026.22 14.945.466 1.96.123 3.559.247 4.652.34a88.245 88.245 0 011.567.15h.001c.025.004.086.011.144.022a1.296 1.296 0 01.313.095c.135.067.604.496.807.938-.021.784-.687 1.59-.939 1.698a2.611 2.611 0 01-.29.06zm-73.741-48.639c.632 0-38.261-2.108-48.594 8.911l48.594-8.91z" fill="#fff" fill-opacity=".2"/><path fill-rule="evenodd" clip-rule="evenodd" d="M283.64 51.252c-.037.002-.067.002-.076.002v-2.82h-.001c-.005 0-.031 0-.065.003a2.637 2.637 0 00-.125.012c-.103.018-.67.281-1.017.672-.162 1.05.627 2.005.808 2.073.058.016.144.035.172.04.041.007.073.01.078.01h.001a.67.67 0 00.021.002h-.02a76.852 76.852 0 00-1.385-.061 155.165 155.165 0 00-4.35-.088c-3.692-.026-8.775.055-14.192.476-5.424.422-11.14 1.182-16.113 2.503-5.021 1.334-9.067 3.184-11.371 5.641l-2.07-1.923c2.862-3.053 7.552-5.071 12.711-6.441 5.206-1.383 11.111-2.162 16.623-2.59 5.519-.43 10.686-.51 14.432-.485 1.873.013 3.395.052 4.43.089a78.21 78.21 0 011.472.065c.024.002.07.005.112.01a1.426 1.426 0 01.263.052c.181.068.971 1.024.809 2.074-.348.39-.915.654-1.018.672a2.64 2.64 0 01-.129.012zm104.104 83.13c.632 0-7.885-6.289-24.919-12.769l24.919 12.769z" fill="#fff" fill-opacity=".2"/><path fill-rule="evenodd" clip-rule="evenodd" d="M388.462 135.601a1.459 1.459 0 01-.719.187v-2.819a1.39 1.39 0 00-1.366 1.171 1.37 1.37 0 00.074.706 1.244 1.244 0 00.204.344 1.161 1.161 0 00-.051-.048c-.145-.13-.441-.364-.913-.699-.929-.658-2.426-1.622-4.486-2.796-4.115-2.345-10.437-5.506-18.886-8.721l1.011-2.633c8.585 3.266 15.039 6.489 19.282 8.908 2.12 1.208 3.698 2.221 4.721 2.945.503.357.902.664 1.168.903.107.096.294.269.433.478a1.495 1.495 0 01.24 1.053 1.425 1.425 0 01-.712 1.021zm-1.803-.407l-.004-.004.004.004z" fill="#fff" fill-opacity=".2"/><path fill-rule="evenodd" clip-rule="evenodd" d="M147.666 35.2C64.04 60.993 3.298 138.59 3.298 230.313c0 112.793 91.852 204.231 205.159 204.231 113.306 0 205.159-91.438 205.159-204.231 0-20.142-2.93-39.6-8.385-57.977l2.716-.799c5.531 18.634 8.5 38.361 8.5 58.776 0 114.35-93.12 207.05-207.99 207.05S.466 344.662.466 230.312c0-92.993 61.584-171.658 146.362-197.804l.838 2.693z" fill="#fff" fill-opacity=".5"/></svg>